<svg xmlns="http://www.w3.org/2000/svg" xmlns:xlink="http://www.w3.org/1999/xlink" width="1000" zoomAndPan="magnify" viewBox="0 0 750 74.999997" height="100" preserveAspectRatio="xMidYMid meet" version="1.0"><defs><g/></defs><g fill="#ffffff" fill-opacity="1"><g transform="translate(200.484374, 63.499967)"><g><path d="M 34.078125 -35.625 C 34.984375 -35.3125 35.75 -34.863281 36.375 -34.28125 C 37 -33.695312 37.492188 -33.019531 37.859375 -32.25 C 38.234375 -31.476562 38.5 -30.660156 38.65625 -29.796875 C 38.820312 -28.929688 38.898438 -28.054688 38.890625 -27.171875 C 38.878906 -25.390625 38.664062 -23.613281 38.25 -21.84375 C 37.832031 -20.070312 37.257812 -18.332031 36.53125 -16.625 C 35.8125 -14.925781 34.96875 -13.296875 34 -11.734375 C 33.039062 -10.171875 32 -8.710938 30.875 -7.359375 C 29.851562 -6.109375 28.71875 -4.945312 27.46875 -3.875 C 26.21875 -2.800781 24.878906 -1.863281 23.453125 -1.0625 C 22.023438 -0.269531 20.523438 0.328125 18.953125 0.734375 C 17.390625 1.140625 15.765625 1.3125 14.078125 1.25 C 13.171875 1.207031 12.253906 1.078125 11.328125 0.859375 C 10.398438 0.648438 9.539062 0.304688 8.75 -0.171875 C 7.96875 -0.660156 7.3125 -1.3125 6.78125 -2.125 C 6.332031 -2.832031 6.023438 -3.585938 5.859375 -4.390625 C 5.691406 -5.203125 5.628906 -6.035156 5.671875 -6.890625 C 5.722656 -7.742188 5.847656 -8.582031 6.046875 -9.40625 C 6.242188 -10.226562 6.492188 -11.003906 6.796875 -11.734375 C 7.265625 -12.859375 7.878906 -13.910156 8.640625 -14.890625 C 9.398438 -15.878906 10.269531 -16.742188 11.25 -17.484375 C 12.238281 -18.234375 13.300781 -18.828125 14.4375 -19.265625 C 14.445312 -19.390625 14.457031 -19.503906 14.46875 -19.609375 C 14.488281 -19.722656 14.503906 -19.828125 14.515625 -19.921875 C 14.671875 -21.472656 14.796875 -23.023438 14.890625 -24.578125 C 14.992188 -26.140625 15.050781 -27.691406 15.0625 -29.234375 C 15.082031 -31.859375 14.972656 -34.476562 14.734375 -37.09375 C 14.503906 -39.707031 14.097656 -42.289062 13.515625 -44.84375 C 13.234375 -46.132812 12.890625 -47.410156 12.484375 -48.671875 C 12.085938 -49.929688 11.617188 -51.171875 11.078125 -52.390625 C 10.828125 -52.960938 10.550781 -53.519531 10.25 -54.0625 C 9.957031 -54.613281 9.640625 -55.148438 9.296875 -55.671875 C 9.234375 -55.773438 9.125 -55.910156 8.96875 -56.078125 C 8.8125 -56.253906 8.632812 -56.414062 8.4375 -56.5625 C 8.238281 -56.71875 8.039062 -56.816406 7.84375 -56.859375 C 7.644531 -56.898438 7.46875 -56.828125 7.3125 -56.640625 C 6.800781 -56.066406 6.347656 -55.410156 5.953125 -54.671875 C 5.554688 -53.929688 5.207031 -53.164062 4.90625 -52.375 C 4.613281 -51.582031 4.359375 -50.820312 4.140625 -50.09375 C 4.023438 -49.695312 3.894531 -49.1875 3.75 -48.5625 C 3.601562 -47.945312 3.472656 -47.28125 3.359375 -46.5625 C 3.242188 -45.84375 3.15625 -45.125 3.09375 -44.40625 C 3.039062 -43.695312 3.023438 -43.035156 3.046875 -42.421875 C 3.078125 -41.804688 3.164062 -41.300781 3.3125 -40.90625 C 3.457031 -40.507812 3.679688 -40.28125 3.984375 -40.21875 C 4.398438 -40.125 4.796875 -40.242188 5.171875 -40.578125 C 5.554688 -40.910156 5.914062 -41.390625 6.25 -42.015625 C 6.59375 -42.640625 6.910156 -43.332031 7.203125 -44.09375 C 7.492188 -44.863281 7.753906 -45.640625 7.984375 -46.421875 C 8.222656 -47.203125 8.425781 -47.921875 8.59375 -48.578125 C 8.757812 -49.242188 8.894531 -49.769531 9 -50.15625 C 9.039062 -50.300781 9.164062 -50.40625 9.375 -50.46875 C 9.582031 -50.53125 9.8125 -50.554688 10.0625 -50.546875 C 10.320312 -50.535156 10.539062 -50.488281 10.71875 -50.40625 C 10.90625 -50.332031 10.976562 -50.21875 10.9375 -50.0625 C 10.820312 -49.5 10.648438 -48.820312 10.421875 -48.03125 C 10.203125 -47.238281 9.929688 -46.398438 9.609375 -45.515625 C 9.296875 -44.640625 8.929688 -43.785156 8.515625 -42.953125 C 8.097656 -42.117188 7.628906 -41.375 7.109375 -40.71875 C 6.597656 -40.0625 6.039062 -39.554688 5.4375 -39.203125 C 4.84375 -38.847656 4.203125 -38.722656 3.515625 -38.828125 C 3.191406 -38.878906 2.875 -39 2.5625 -39.1875 C 2.25 -39.375 1.984375 -39.671875 1.765625 -40.078125 C 1.398438 -40.734375 1.160156 -41.515625 1.046875 -42.421875 C 0.929688 -43.335938 0.914062 -44.316406 1 -45.359375 C 1.09375 -46.410156 1.253906 -47.476562 1.484375 -48.5625 C 1.722656 -49.65625 2.003906 -50.710938 2.328125 -51.734375 C 2.660156 -52.765625 3.019531 -53.71875 3.40625 -54.59375 C 3.800781 -55.46875 4.195312 -56.195312 4.59375 -56.78125 C 5.03125 -57.445312 5.5625 -57.960938 6.1875 -58.328125 C 6.8125 -58.703125 7.492188 -58.90625 8.234375 -58.9375 C 8.972656 -58.976562 9.707031 -58.8125 10.4375 -58.4375 C 11.0625 -58.125 11.617188 -57.703125 12.109375 -57.171875 C 12.609375 -56.640625 13.050781 -56.039062 13.4375 -55.375 C 13.832031 -54.71875 14.175781 -54.046875 14.46875 -53.359375 C 14.769531 -52.679688 15.039062 -52.03125 15.28125 -51.40625 C 15.9375 -49.6875 16.488281 -47.929688 16.9375 -46.140625 C 17.394531 -44.347656 17.757812 -42.535156 18.03125 -40.703125 C 18.289062 -41.671875 18.5625 -42.628906 18.84375 -43.578125 C 19.132812 -44.523438 19.441406 -45.46875 19.765625 -46.40625 C 20.179688 -47.601562 20.625 -48.789062 21.09375 -49.96875 C 21.5625 -51.144531 22.097656 -52.289062 22.703125 -53.40625 C 23.023438 -54.007812 23.394531 -54.625 23.8125 -55.25 C 24.226562 -55.875 24.707031 -56.425781 25.25 -56.90625 C 25.789062 -57.394531 26.414062 -57.722656 27.125 -57.890625 C 28 -58.097656 28.722656 -58.101562 29.296875 -57.90625 C 29.867188 -57.71875 30.320312 -57.375 30.65625 -56.875 C 30.988281 -56.382812 31.222656 -55.796875 31.359375 -55.109375 C 31.503906 -54.421875 31.582031 -53.6875 31.59375 -52.90625 C 31.601562 -52.125 31.566406 -51.347656 31.484375 -50.578125 C 31.410156 -49.804688 31.316406 -49.082031 31.203125 -48.40625 C 31.085938 -47.726562 30.988281 -47.15625 30.90625 -46.6875 C 30.539062 -44.707031 30.054688 -42.753906 29.453125 -40.828125 C 28.859375 -38.898438 28.203125 -36.988281 27.484375 -35.09375 C 28.523438 -35.53125 29.597656 -35.820312 30.703125 -35.96875 C 31.804688 -36.113281 32.929688 -36 34.078125 -35.625 Z M 35.15625 -26.0625 C 35.195312 -26.6875 35.207031 -27.34375 35.1875 -28.03125 C 35.164062 -28.71875 35.085938 -29.394531 34.953125 -30.0625 C 34.816406 -30.738281 34.59375 -31.367188 34.28125 -31.953125 C 33.96875 -32.535156 33.535156 -33.035156 32.984375 -33.453125 C 32.546875 -33.796875 32.078125 -33.988281 31.578125 -34.03125 C 31.085938 -34.082031 30.582031 -34.023438 30.0625 -33.859375 C 29.550781 -33.691406 29.046875 -33.472656 28.546875 -33.203125 C 28.046875 -32.929688 27.5625 -32.648438 27.09375 -32.359375 C 26.625 -32.066406 26.191406 -31.804688 25.796875 -31.578125 C 25.679688 -31.515625 25.484375 -31.457031 25.203125 -31.40625 C 24.921875 -31.351562 24.613281 -31.328125 24.28125 -31.328125 C 23.957031 -31.328125 23.65625 -31.359375 23.375 -31.421875 C 23.09375 -31.492188 22.878906 -31.609375 22.734375 -31.765625 C 22.585938 -31.929688 22.578125 -32.15625 22.703125 -32.4375 C 23.453125 -34.300781 24.164062 -36.179688 24.84375 -38.078125 C 25.519531 -39.972656 26.109375 -41.894531 26.609375 -43.84375 C 26.867188 -44.914062 27.097656 -45.988281 27.296875 -47.0625 C 27.492188 -48.132812 27.644531 -49.21875 27.75 -50.3125 C 27.800781 -50.738281 27.851562 -51.273438 27.90625 -51.921875 C 27.957031 -52.578125 27.972656 -53.226562 27.953125 -53.875 C 27.941406 -54.289062 27.832031 -54.53125 27.625 -54.59375 C 27.414062 -54.664062 27.179688 -54.492188 26.921875 -54.078125 C 26.691406 -53.710938 26.46875 -53.332031 26.25 -52.9375 C 26.039062 -52.550781 25.847656 -52.164062 25.671875 -51.78125 C 25.273438 -50.957031 24.90625 -50.125 24.5625 -49.28125 C 24.226562 -48.4375 23.910156 -47.585938 23.609375 -46.734375 C 22.972656 -44.953125 22.394531 -43.144531 21.875 -41.3125 C 21.363281 -39.488281 20.910156 -37.644531 20.515625 -35.78125 C 20.109375 -33.894531 19.757812 -32 19.46875 -30.09375 C 19.175781 -28.195312 18.878906 -26.296875 18.578125 -24.390625 C 18.535156 -23.804688 18.492188 -23.222656 18.453125 -22.640625 C 18.421875 -22.054688 18.367188 -21.476562 18.296875 -20.90625 C 18.285156 -20.75 18.273438 -20.59375 18.265625 -20.4375 C 18.253906 -20.28125 18.234375 -20.125 18.203125 -19.96875 C 18.554688 -19.96875 18.90625 -19.945312 19.25 -19.90625 C 19.59375 -19.863281 19.941406 -19.8125 20.296875 -19.75 C 20.671875 -19.664062 20.867188 -19.53125 20.890625 -19.34375 C 20.921875 -19.164062 20.847656 -18.992188 20.671875 -18.828125 C 20.492188 -18.660156 20.273438 -18.550781 20.015625 -18.5 C 19.679688 -18.445312 19.347656 -18.382812 19.015625 -18.3125 C 18.679688 -18.25 18.347656 -18.179688 18.015625 -18.109375 C 17.921875 -17.242188 17.800781 -16.382812 17.65625 -15.53125 C 17.550781 -14.945312 17.335938 -14.445312 17.015625 -14.03125 C 16.703125 -13.613281 16.34375 -13.28125 15.9375 -13.03125 C 15.53125 -12.789062 15.140625 -12.640625 14.765625 -12.578125 C 14.398438 -12.515625 14.097656 -12.535156 13.859375 -12.640625 C 13.628906 -12.753906 13.535156 -12.957031 13.578125 -13.25 C 13.628906 -13.582031 13.691406 -14.019531 13.765625 -14.5625 C 13.847656 -15.101562 13.9375 -15.671875 14.03125 -16.265625 C 13.988281 -16.242188 13.953125 -16.21875 13.921875 -16.1875 C 13.890625 -16.164062 13.859375 -16.140625 13.828125 -16.109375 C 12.765625 -15.222656 11.878906 -14.160156 11.171875 -12.921875 C 10.472656 -11.691406 9.972656 -10.398438 9.671875 -9.046875 C 9.535156 -8.441406 9.441406 -7.796875 9.390625 -7.109375 C 9.335938 -6.429688 9.359375 -5.753906 9.453125 -5.078125 C 9.554688 -4.410156 9.75 -3.785156 10.03125 -3.203125 C 10.3125 -2.617188 10.71875 -2.113281 11.25 -1.6875 C 11.8125 -1.238281 12.445312 -0.9375 13.15625 -0.78125 C 13.863281 -0.632812 14.585938 -0.59375 15.328125 -0.65625 C 16.078125 -0.71875 16.773438 -0.828125 17.421875 -0.984375 C 18.671875 -1.296875 19.863281 -1.769531 21 -2.40625 C 22.144531 -3.050781 23.21875 -3.804688 24.21875 -4.671875 C 25.21875 -5.546875 26.148438 -6.484375 27.015625 -7.484375 C 27.890625 -8.484375 28.675781 -9.5 29.375 -10.53125 C 30.40625 -12.050781 31.332031 -13.65625 32.15625 -15.34375 C 32.988281 -17.039062 33.664062 -18.789062 34.1875 -20.59375 C 34.707031 -22.394531 35.03125 -24.21875 35.15625 -26.0625 Z M 35.15625 -26.0625 "/></g></g></g><g fill="#ffffff" fill-opacity="1"><g transform="translate(242.335757, 63.499967)"><g><path d="M 7.9375 -24.203125 C 7.570312 -23.585938 7.140625 -23.019531 6.640625 -22.5 C 6.148438 -21.988281 5.59375 -21.585938 4.96875 -21.296875 C 4.351562 -21.015625 3.660156 -20.910156 2.890625 -20.984375 C 2.816406 -20.984375 2.738281 -20.988281 2.65625 -21 C 2.582031 -21.007812 2.503906 -21.019531 2.421875 -21.03125 C 2.472656 -20.320312 2.570312 -19.628906 2.71875 -18.953125 C 2.875 -18.273438 3.097656 -17.664062 3.390625 -17.125 C 3.691406 -16.582031 4.085938 -16.140625 4.578125 -15.796875 C 5.078125 -15.460938 5.6875 -15.28125 6.40625 -15.25 C 7.03125 -15.226562 7.617188 -15.375 8.171875 -15.6875 C 8.722656 -16 9.234375 -16.410156 9.703125 -16.921875 C 10.171875 -17.441406 10.597656 -17.988281 10.984375 -18.5625 C 11.378906 -19.132812 11.734375 -19.671875 12.046875 -20.171875 C 12.148438 -20.347656 12.296875 -20.628906 12.484375 -21.015625 C 12.679688 -21.410156 12.890625 -21.863281 13.109375 -22.375 C 13.328125 -22.882812 13.539062 -23.414062 13.75 -23.96875 C 13.96875 -24.53125 14.160156 -25.078125 14.328125 -25.609375 C 14.492188 -26.140625 14.613281 -26.609375 14.6875 -27.015625 C 14.738281 -27.285156 14.851562 -27.457031 15.03125 -27.53125 C 15.207031 -27.613281 15.367188 -27.609375 15.515625 -27.515625 C 15.671875 -27.429688 15.710938 -27.257812 15.640625 -27 C 15.484375 -26.300781 15.257812 -25.507812 14.96875 -24.625 C 14.675781 -23.738281 14.34375 -22.832031 13.96875 -21.90625 C 13.59375 -20.976562 13.195312 -20.078125 12.78125 -19.203125 C 12.257812 -18.097656 11.648438 -17.09375 10.953125 -16.1875 C 10.253906 -15.28125 9.488281 -14.550781 8.65625 -14 C 7.832031 -13.457031 6.953125 -13.15625 6.015625 -13.09375 C 5.140625 -13.019531 4.296875 -13.097656 3.484375 -13.328125 C 2.671875 -13.566406 1.945312 -13.953125 1.3125 -14.484375 C 0.675781 -15.023438 0.160156 -15.707031 -0.234375 -16.53125 C -0.597656 -17.332031 -0.859375 -18.1875 -1.015625 -19.09375 C -1.171875 -20.007812 -1.25 -20.9375 -1.25 -21.875 C -1.257812 -22.820312 -1.238281 -23.726562 -1.1875 -24.59375 C -1.15625 -25.289062 -1.0625 -26.0625 -0.90625 -26.90625 C -0.757812 -27.75 -0.546875 -28.601562 -0.265625 -29.46875 C 0.00390625 -30.34375 0.34375 -31.179688 0.75 -31.984375 C 1.164062 -32.796875 1.648438 -33.519531 2.203125 -34.15625 C 2.765625 -34.800781 3.40625 -35.3125 4.125 -35.6875 C 4.84375 -36.0625 5.644531 -36.25 6.53125 -36.25 C 7.382812 -36.25 8.070312 -36.082031 8.59375 -35.75 C 9.113281 -35.414062 9.492188 -34.957031 9.734375 -34.375 C 9.972656 -33.800781 10.109375 -33.148438 10.140625 -32.421875 C 10.179688 -31.703125 10.132812 -30.945312 10 -30.15625 C 9.875 -29.375 9.691406 -28.601562 9.453125 -27.84375 C 9.222656 -27.09375 8.972656 -26.398438 8.703125 -25.765625 C 8.429688 -25.140625 8.175781 -24.617188 7.9375 -24.203125 Z M 2.390625 -22.5 C 2.421875 -22.476562 2.457031 -22.453125 2.5 -22.421875 C 2.539062 -22.398438 2.585938 -22.375 2.640625 -22.34375 C 3.023438 -22.144531 3.382812 -22.101562 3.71875 -22.21875 C 4.0625 -22.332031 4.375 -22.53125 4.65625 -22.8125 C 4.945312 -23.101562 5.203125 -23.421875 5.421875 -23.765625 C 5.648438 -24.109375 5.84375 -24.410156 6 -24.671875 C 6.570312 -25.703125 7.03125 -26.789062 7.375 -27.9375 C 7.71875 -29.082031 7.894531 -30.238281 7.90625 -31.40625 C 7.925781 -31.707031 7.914062 -32.078125 7.875 -32.515625 C 7.84375 -32.960938 7.757812 -33.390625 7.625 -33.796875 C 7.5 -34.210938 7.28125 -34.503906 6.96875 -34.671875 C 6.6875 -34.835938 6.328125 -34.757812 5.890625 -34.4375 C 5.453125 -34.125 5.007812 -33.597656 4.5625 -32.859375 C 4.113281 -32.128906 3.710938 -31.210938 3.359375 -30.109375 C 3.003906 -29.003906 2.757812 -27.757812 2.625 -26.375 C 2.582031 -25.957031 2.53125 -25.40625 2.46875 -24.71875 C 2.414062 -24.03125 2.390625 -23.289062 2.390625 -22.5 Z M 2.390625 -22.5 "/></g></g></g><g fill="#ffffff" fill-opacity="1"><g transform="translate(257.178056, 63.499967)"><g><path d="M 21.703125 -24.15625 C 20.703125 -24.03125 19.722656 -23.773438 18.765625 -23.390625 C 17.804688 -23.015625 16.894531 -22.539062 16.03125 -21.96875 C 16.019531 -20.976562 15.953125 -19.992188 15.828125 -19.015625 C 15.703125 -18.046875 15.53125 -17.09375 15.3125 -16.15625 C 15.164062 -15.53125 15 -14.828125 14.8125 -14.046875 C 14.625 -13.273438 14.382812 -12.503906 14.09375 -11.734375 C 13.800781 -10.972656 13.441406 -10.273438 13.015625 -9.640625 C 12.597656 -9.003906 12.082031 -8.515625 11.46875 -8.171875 C 10.9375 -7.867188 10.390625 -7.695312 9.828125 -7.65625 C 9.273438 -7.613281 8.769531 -7.703125 8.3125 -7.921875 C 7.851562 -8.140625 7.476562 -8.460938 7.1875 -8.890625 C 6.90625 -9.316406 6.75 -9.847656 6.71875 -10.484375 C 6.695312 -11.441406 6.820312 -12.382812 7.09375 -13.3125 C 7.363281 -14.238281 7.742188 -15.128906 8.234375 -15.984375 C 8.722656 -16.847656 9.253906 -17.640625 9.828125 -18.359375 C 10.203125 -18.828125 10.597656 -19.289062 11.015625 -19.75 C 11.441406 -20.207031 11.898438 -20.644531 12.390625 -21.0625 C 12.398438 -21.25 12.40625 -21.441406 12.40625 -21.640625 C 12.414062 -21.835938 12.421875 -22.023438 12.421875 -22.203125 C 12.429688 -22.898438 12.429688 -23.628906 12.421875 -24.390625 C 12.410156 -25.160156 12.34375 -25.914062 12.21875 -26.65625 C 12.09375 -27.40625 11.851562 -28.082031 11.5 -28.6875 C 11.476562 -28.757812 11.425781 -28.863281 11.34375 -29 C 11.257812 -29.144531 11.171875 -29.28125 11.078125 -29.40625 C 10.984375 -29.539062 10.90625 -29.613281 10.84375 -29.625 C 10.695312 -29.664062 10.515625 -29.601562 10.296875 -29.4375 C 10.078125 -29.28125 9.867188 -29.097656 9.671875 -28.890625 C 9.484375 -28.679688 9.351562 -28.535156 9.28125 -28.453125 C 8.914062 -28.054688 8.585938 -27.625 8.296875 -27.15625 C 8.003906 -26.695312 7.734375 -26.21875 7.484375 -25.71875 C 6.960938 -24.71875 6.519531 -23.679688 6.15625 -22.609375 C 5.800781 -21.535156 5.515625 -20.4375 5.296875 -19.3125 C 5.085938 -18.1875 4.929688 -17.050781 4.828125 -15.90625 C 4.722656 -14.769531 4.648438 -13.628906 4.609375 -12.484375 C 4.566406 -11.378906 4.539062 -10.257812 4.53125 -9.125 C 4.53125 -8 4.660156 -6.898438 4.921875 -5.828125 C 4.972656 -5.597656 4.914062 -5.414062 4.75 -5.28125 C 4.59375 -5.15625 4.367188 -5.070312 4.078125 -5.03125 C 3.796875 -4.988281 3.5 -4.972656 3.1875 -4.984375 C 2.875 -4.992188 2.585938 -5.03125 2.328125 -5.09375 C 2.078125 -5.164062 1.90625 -5.253906 1.8125 -5.359375 C 1.21875 -6.035156 0.765625 -6.804688 0.453125 -7.671875 C 0.140625 -8.546875 -0.0859375 -9.453125 -0.234375 -10.390625 C -0.378906 -11.328125 -0.5 -12.226562 -0.59375 -13.09375 C -0.75 -14.707031 -0.859375 -16.328125 -0.921875 -17.953125 C -0.984375 -19.578125 -1.007812 -21.195312 -1 -22.8125 C -0.988281 -25.625 -0.875 -28.460938 -0.65625 -31.328125 C -0.4375 -34.191406 -0.0078125 -37 0.625 -39.75 C 0.914062 -40.9375 1.242188 -42.128906 1.609375 -43.328125 C 1.984375 -44.535156 2.46875 -45.671875 3.0625 -46.734375 C 3.351562 -47.242188 3.695312 -47.765625 4.09375 -48.296875 C 4.5 -48.835938 4.960938 -49.300781 5.484375 -49.6875 C 6.003906 -50.082031 6.578125 -50.316406 7.203125 -50.390625 C 7.566406 -50.429688 7.945312 -50.414062 8.34375 -50.34375 C 8.75 -50.269531 9.066406 -50.082031 9.296875 -49.78125 C 9.515625 -49.507812 9.644531 -49.078125 9.6875 -48.484375 C 9.726562 -47.890625 9.707031 -47.210938 9.625 -46.453125 C 9.539062 -45.691406 9.421875 -44.910156 9.265625 -44.109375 C 9.109375 -43.304688 8.941406 -42.5625 8.765625 -41.875 C 8.597656 -41.1875 8.453125 -40.613281 8.328125 -40.15625 C 7.710938 -38.101562 6.945312 -36.050781 6.03125 -34 C 5.113281 -31.945312 4.019531 -30.03125 2.75 -28.25 C 2.71875 -27.394531 2.691406 -26.539062 2.671875 -25.6875 C 2.648438 -24.84375 2.632812 -23.992188 2.625 -23.140625 C 2.601562 -22.429688 2.597656 -21.71875 2.609375 -21 C 2.628906 -20.28125 2.644531 -19.554688 2.65625 -18.828125 C 2.914062 -20.210938 3.253906 -21.566406 3.671875 -22.890625 C 4.097656 -24.222656 4.648438 -25.5 5.328125 -26.71875 C 5.660156 -27.320312 6.015625 -27.90625 6.390625 -28.46875 C 6.773438 -29.03125 7.203125 -29.53125 7.671875 -29.96875 C 8.140625 -30.414062 8.671875 -30.765625 9.265625 -31.015625 C 9.867188 -31.265625 10.550781 -31.367188 11.3125 -31.328125 C 12.21875 -31.273438 12.96875 -31.023438 13.5625 -30.578125 C 14.15625 -30.140625 14.617188 -29.578125 14.953125 -28.890625 C 15.296875 -28.203125 15.539062 -27.445312 15.6875 -26.625 C 15.78125 -26.125 15.851562 -25.617188 15.90625 -25.109375 C 15.957031 -24.609375 15.992188 -24.109375 16.015625 -23.609375 C 16.890625 -24.078125 17.785156 -24.453125 18.703125 -24.734375 C 19.628906 -25.023438 20.570312 -25.1875 21.53125 -25.21875 C 21.894531 -25.226562 22.132812 -25.148438 22.25 -24.984375 C 22.363281 -24.828125 22.367188 -24.660156 22.265625 -24.484375 C 22.171875 -24.304688 21.984375 -24.195312 21.703125 -24.15625 Z M 4.421875 -40.84375 C 4.054688 -39.289062 3.757812 -37.71875 3.53125 -36.125 C 3.300781 -34.539062 3.113281 -32.945312 2.96875 -31.34375 C 3.832031 -33.050781 4.617188 -34.785156 5.328125 -36.546875 C 6.035156 -38.304688 6.59375 -40.148438 7 -42.078125 C 7.132812 -42.765625 7.253906 -43.445312 7.359375 -44.125 C 7.460938 -44.8125 7.539062 -45.5 7.59375 -46.1875 C 7.625 -46.445312 7.648438 -46.710938 7.671875 -46.984375 C 7.691406 -47.253906 7.710938 -47.519531 7.734375 -47.78125 C 7.734375 -48 7.738281 -48.195312 7.75 -48.375 C 7.769531 -48.5625 7.765625 -48.71875 7.734375 -48.84375 C 7.679688 -48.789062 7.613281 -48.71875 7.53125 -48.625 C 7.445312 -48.539062 7.359375 -48.429688 7.265625 -48.296875 C 6.753906 -47.617188 6.320312 -46.859375 5.96875 -46.015625 C 5.613281 -45.171875 5.3125 -44.300781 5.0625 -43.40625 C 4.820312 -42.519531 4.609375 -41.664062 4.421875 -40.84375 Z M 11.546875 -14.765625 C 11.816406 -16.003906 12.03125 -17.234375 12.1875 -18.453125 C 11.625 -17.773438 11.125 -17.066406 10.6875 -16.328125 C 10.425781 -15.890625 10.164062 -15.367188 9.90625 -14.765625 C 9.644531 -14.171875 9.425781 -13.550781 9.25 -12.90625 C 9.082031 -12.257812 8.992188 -11.644531 8.984375 -11.0625 C 8.972656 -10.488281 9.078125 -10 9.296875 -9.59375 C 9.328125 -9.539062 9.410156 -9.578125 9.546875 -9.703125 C 9.691406 -9.828125 9.851562 -10.023438 10.03125 -10.296875 C 10.207031 -10.566406 10.359375 -10.890625 10.484375 -11.265625 C 10.671875 -11.835938 10.859375 -12.414062 11.046875 -13 C 11.242188 -13.582031 11.410156 -14.171875 11.546875 -14.765625 Z M 11.546875 -14.765625 "/></g></g></g><g fill="#ffffff" fill-opacity="1"><g transform="translate(278.69939, 63.499967)"><g><path d="M -0.546875 -27.890625 C -0.535156 -28.234375 -0.515625 -28.644531 -0.484375 -29.125 C -0.453125 -29.601562 -0.421875 -30.085938 -0.390625 -30.578125 C -0.367188 -31.066406 -0.359375 -31.472656 -0.359375 -31.796875 C -0.359375 -31.828125 -0.351562 -31.859375 -0.34375 -31.890625 C -0.332031 -31.929688 -0.328125 -31.96875 -0.328125 -32 C -0.671875 -32.007812 -0.976562 -32.066406 -1.25 -32.171875 C -1.519531 -32.285156 -1.65625 -32.46875 -1.65625 -32.71875 C -1.65625 -32.988281 -1.519531 -33.1875 -1.25 -33.3125 C -0.976562 -33.4375 -0.609375 -33.515625 -0.140625 -33.546875 C 0.316406 -33.578125 0.828125 -33.59375 1.390625 -33.59375 C 2.234375 -33.59375 2.941406 -33.519531 3.515625 -33.375 C 4.097656 -33.238281 4.398438 -33.019531 4.421875 -32.71875 C 4.429688 -32.5 4.34375 -32.335938 4.15625 -32.234375 C 3.96875 -32.128906 3.664062 -32.0625 3.25 -32.03125 C 3.25 -32.007812 3.25 -31.976562 3.25 -31.9375 C 3.25 -31.894531 3.25 -31.863281 3.25 -31.84375 C 3.257812 -31.488281 3.253906 -31.015625 3.234375 -30.421875 C 3.222656 -29.828125 3.203125 -29.203125 3.171875 -28.546875 C 3.140625 -27.890625 3.109375 -27.265625 3.078125 -26.671875 C 3.054688 -26.085938 3.039062 -25.625 3.03125 -25.28125 C 2.976562 -23.90625 2.914062 -22.519531 2.84375 -21.125 C 2.78125 -19.726562 2.863281 -18.351562 3.09375 -17 C 3.113281 -16.8125 3.160156 -16.546875 3.234375 -16.203125 C 3.304688 -15.859375 3.40625 -15.5 3.53125 -15.125 C 3.65625 -14.757812 3.8125 -14.441406 4 -14.171875 C 4.1875 -13.898438 4.40625 -13.765625 4.65625 -13.765625 C 5.09375 -13.753906 5.507812 -13.957031 5.90625 -14.375 C 6.300781 -14.800781 6.671875 -15.367188 7.015625 -16.078125 C 7.367188 -16.796875 7.691406 -17.578125 7.984375 -18.421875 C 8.273438 -19.273438 8.535156 -20.132812 8.765625 -21 C 9.003906 -21.875 9.203125 -22.675781 9.359375 -23.40625 C 9.515625 -24.144531 9.628906 -24.75 9.703125 -25.21875 C 9.734375 -25.363281 9.816406 -25.445312 9.953125 -25.46875 C 10.097656 -25.5 10.234375 -25.484375 10.359375 -25.421875 C 10.492188 -25.359375 10.550781 -25.257812 10.53125 -25.125 C 10.414062 -24.414062 10.265625 -23.601562 10.078125 -22.6875 C 9.898438 -21.78125 9.679688 -20.835938 9.421875 -19.859375 C 9.171875 -18.890625 8.863281 -17.9375 8.5 -17 C 8.144531 -16.070312 7.734375 -15.234375 7.265625 -14.484375 C 6.796875 -13.734375 6.257812 -13.132812 5.65625 -12.6875 C 5.0625 -12.25 4.378906 -12.03125 3.609375 -12.03125 C 2.859375 -12.03125 2.148438 -12.269531 1.484375 -12.75 C 0.835938 -13.25 0.347656 -13.867188 0.015625 -14.609375 C -0.304688 -15.347656 -0.519531 -16.144531 -0.625 -17 C -0.738281 -17.851562 -0.789062 -18.707031 -0.78125 -19.5625 C -0.78125 -20.425781 -0.769531 -21.21875 -0.75 -21.9375 C -0.71875 -22.925781 -0.679688 -23.914062 -0.640625 -24.90625 C -0.609375 -25.90625 -0.578125 -26.898438 -0.546875 -27.890625 Z M 4.6875 -36.875 C 4.675781 -36.488281 4.410156 -36.160156 3.890625 -35.890625 C 3.367188 -35.617188 2.742188 -35.492188 2.015625 -35.515625 C 1.273438 -35.523438 0.644531 -35.671875 0.125 -35.953125 C -0.382812 -36.234375 -0.632812 -36.566406 -0.625 -36.953125 C -0.625 -37.210938 -0.503906 -37.445312 -0.265625 -37.65625 C -0.0234375 -37.863281 0.296875 -38.03125 0.703125 -38.15625 C 1.117188 -38.28125 1.566406 -38.335938 2.046875 -38.328125 C 2.773438 -38.304688 3.394531 -38.148438 3.90625 -37.859375 C 4.425781 -37.578125 4.6875 -37.25 4.6875 -36.875 Z M 4.6875 -36.875 "/></g></g></g><g fill="#ffffff" fill-opacity="1"><g transform="translate(288.63983, 63.499967)"><g><path d="M 17.3125 -25.234375 C 17.320312 -25.285156 17.375 -25.3125 17.46875 -25.3125 C 17.570312 -25.3125 17.613281 -25.285156 17.59375 -25.234375 C 17.351562 -23.441406 17.019531 -21.660156 16.59375 -19.890625 C 16.164062 -18.128906 15.679688 -16.382812 15.140625 -14.65625 C 14.941406 -14.03125 14.613281 -13.5625 14.15625 -13.25 C 13.707031 -12.945312 13.203125 -12.785156 12.640625 -12.765625 C 12.078125 -12.753906 11.53125 -12.875 11 -13.125 C 10.46875 -13.382812 10.023438 -13.753906 9.671875 -14.234375 C 9.148438 -14.960938 8.773438 -15.804688 8.546875 -16.765625 C 8.328125 -17.722656 8.179688 -18.695312 8.109375 -19.6875 C 7.972656 -19.226562 7.835938 -18.769531 7.703125 -18.3125 C 7.566406 -17.863281 7.425781 -17.410156 7.28125 -16.953125 C 7.113281 -16.441406 6.9375 -15.9375 6.75 -15.4375 C 6.5625 -14.945312 6.320312 -14.503906 6.03125 -14.109375 C 5.75 -13.710938 5.390625 -13.398438 4.953125 -13.171875 C 4.523438 -12.941406 3.992188 -12.835938 3.359375 -12.859375 C 2.628906 -12.878906 2.015625 -13.078125 1.515625 -13.453125 C 1.015625 -13.835938 0.601562 -14.320312 0.28125 -14.90625 C -0.0390625 -15.488281 -0.285156 -16.097656 -0.453125 -16.734375 C -0.765625 -17.921875 -0.929688 -19.164062 -0.953125 -20.46875 C -0.984375 -21.78125 -0.894531 -23.101562 -0.6875 -24.4375 C -0.488281 -25.78125 -0.191406 -27.078125 0.203125 -28.328125 C 0.597656 -29.585938 1.070312 -30.75 1.625 -31.8125 C 1.9375 -32.414062 2.289062 -32.96875 2.6875 -33.46875 C 3.09375 -33.976562 3.566406 -34.390625 4.109375 -34.703125 C 4.660156 -35.015625 5.3125 -35.164062 6.0625 -35.15625 C 6.300781 -35.15625 6.585938 -35.125 6.921875 -35.0625 C 7.253906 -35 7.566406 -34.894531 7.859375 -34.75 C 8.046875 -37.625 8.394531 -40.472656 8.90625 -43.296875 C 9.164062 -44.785156 9.453125 -46.316406 9.765625 -47.890625 C 10.078125 -49.460938 10.515625 -50.953125 11.078125 -52.359375 C 11.328125 -52.960938 11.660156 -53.476562 12.078125 -53.90625 C 12.503906 -54.332031 12.96875 -54.644531 13.46875 -54.84375 C 13.976562 -55.039062 14.484375 -55.085938 14.984375 -54.984375 C 15.492188 -54.890625 15.941406 -54.609375 16.328125 -54.140625 C 16.597656 -53.816406 16.804688 -53.367188 16.953125 -52.796875 C 17.097656 -52.222656 17.1875 -51.585938 17.21875 -50.890625 C 17.257812 -50.203125 17.269531 -49.507812 17.25 -48.8125 C 17.238281 -48.125 17.203125 -47.492188 17.140625 -46.921875 C 17.078125 -46.347656 17.015625 -45.894531 16.953125 -45.5625 C 16.648438 -43.96875 16.25 -42.332031 15.75 -40.65625 C 15.25 -38.976562 14.640625 -37.34375 13.921875 -35.75 C 13.210938 -34.15625 12.378906 -32.660156 11.421875 -31.265625 C 11.347656 -28.941406 11.359375 -26.582031 11.453125 -24.1875 C 11.554688 -21.789062 11.84375 -19.453125 12.3125 -17.171875 C 12.375 -16.828125 12.457031 -16.484375 12.5625 -16.140625 C 12.664062 -15.804688 12.804688 -15.492188 12.984375 -15.203125 C 13.023438 -15.148438 13.066406 -15.097656 13.109375 -15.046875 C 13.148438 -15.003906 13.195312 -14.957031 13.25 -14.90625 C 13.375 -15.019531 13.492188 -15.148438 13.609375 -15.296875 C 13.734375 -15.441406 13.835938 -15.582031 13.921875 -15.71875 C 14.117188 -16.007812 14.285156 -16.3125 14.421875 -16.625 C 14.554688 -16.945312 14.691406 -17.257812 14.828125 -17.5625 C 15.390625 -18.800781 15.875 -20.050781 16.28125 -21.3125 C 16.6875 -22.582031 17.03125 -23.890625 17.3125 -25.234375 Z M 13.421875 -47.390625 C 12.898438 -45.109375 12.484375 -42.8125 12.171875 -40.5 C 11.859375 -38.1875 11.632812 -35.863281 11.5 -33.53125 C 11.757812 -34 12.007812 -34.472656 12.25 -34.953125 C 12.5 -35.429688 12.726562 -35.914062 12.9375 -36.40625 C 13.488281 -37.707031 13.976562 -39.035156 14.40625 -40.390625 C 14.832031 -41.742188 15.1875 -43.113281 15.46875 -44.5 C 15.738281 -45.851562 15.898438 -47.160156 15.953125 -48.421875 C 16.003906 -49.679688 15.84375 -50.976562 15.46875 -52.3125 C 15.46875 -52.3125 15.4375 -52.363281 15.375 -52.46875 C 15.320312 -52.570312 15.253906 -52.648438 15.171875 -52.703125 C 15.085938 -52.753906 14.992188 -52.691406 14.890625 -52.515625 C 14.753906 -52.304688 14.644531 -52.078125 14.5625 -51.828125 C 14.488281 -51.585938 14.421875 -51.34375 14.359375 -51.09375 C 14.003906 -49.84375 13.691406 -48.609375 13.421875 -47.390625 Z M 7.671875 -27.5625 C 7.660156 -28.25 7.65625 -28.9375 7.65625 -29.625 C 7.664062 -30.320312 7.679688 -31.007812 7.703125 -31.6875 C 7.609375 -32.175781 7.394531 -32.550781 7.0625 -32.8125 C 6.726562 -33.082031 6.425781 -33.179688 6.15625 -33.109375 C 5.945312 -33.046875 5.734375 -32.910156 5.515625 -32.703125 C 5.304688 -32.503906 5.109375 -32.285156 4.921875 -32.046875 C 4.742188 -31.816406 4.609375 -31.609375 4.515625 -31.421875 C 4.109375 -30.640625 3.78125 -29.828125 3.53125 -28.984375 C 3.289062 -28.148438 3.078125 -27.3125 2.890625 -26.46875 C 2.671875 -25.414062 2.488281 -24.289062 2.34375 -23.09375 C 2.195312 -21.894531 2.132812 -20.710938 2.15625 -19.546875 C 2.1875 -18.390625 2.320312 -17.332031 2.5625 -16.375 C 2.613281 -16.175781 2.675781 -15.972656 2.75 -15.765625 C 2.832031 -15.554688 2.929688 -15.367188 3.046875 -15.203125 C 3.234375 -14.921875 3.410156 -14.773438 3.578125 -14.765625 C 3.742188 -14.765625 3.929688 -14.867188 4.140625 -15.078125 C 4.484375 -15.421875 4.722656 -15.769531 4.859375 -16.125 C 4.992188 -16.476562 5.132812 -16.835938 5.28125 -17.203125 C 5.625 -18.140625 5.9375 -19.085938 6.21875 -20.046875 C 6.507812 -21.003906 6.757812 -21.976562 6.96875 -22.96875 C 7.28125 -24.488281 7.515625 -26.019531 7.671875 -27.5625 Z M 7.671875 -27.5625 "/></g></g></g><g fill="#ffffff" fill-opacity="1"><g transform="translate(305.903768, 63.499967)"><g><path d="M 15.640625 -27.5 C 15.660156 -27.5625 15.738281 -27.597656 15.875 -27.609375 C 16.019531 -27.628906 16.164062 -27.625 16.3125 -27.59375 C 16.457031 -27.570312 16.519531 -27.53125 16.5 -27.46875 C 16.3125 -25.832031 16.050781 -24.195312 15.71875 -22.5625 C 15.382812 -20.9375 14.9375 -19.347656 14.375 -17.796875 C 14.164062 -17.210938 13.929688 -16.613281 13.671875 -16 C 13.410156 -15.394531 13.09375 -14.859375 12.71875 -14.390625 C 12.351562 -13.921875 11.894531 -13.585938 11.34375 -13.390625 C 10.800781 -13.191406 10.140625 -13.195312 9.359375 -13.40625 C 8.722656 -13.582031 8.222656 -13.914062 7.859375 -14.40625 C 7.492188 -14.90625 7.222656 -15.492188 7.046875 -16.171875 C 6.867188 -16.847656 6.75 -17.539062 6.6875 -18.25 C 6.550781 -17.832031 6.40625 -17.414062 6.25 -17 C 6.101562 -16.59375 5.941406 -16.191406 5.765625 -15.796875 C 5.523438 -15.265625 5.238281 -14.757812 4.90625 -14.28125 C 4.582031 -13.8125 4.207031 -13.414062 3.78125 -13.09375 C 3.351562 -12.78125 2.875 -12.578125 2.34375 -12.484375 C 1.820312 -12.398438 1.238281 -12.484375 0.59375 -12.734375 C 0.03125 -12.953125 -0.414062 -13.28125 -0.75 -13.71875 C -1.09375 -14.15625 -1.351562 -14.644531 -1.53125 -15.1875 C -1.707031 -15.738281 -1.832031 -16.304688 -1.90625 -16.890625 C -1.976562 -17.484375 -2.023438 -18.039062 -2.046875 -18.5625 C -2.128906 -19.945312 -2.09375 -21.328125 -1.9375 -22.703125 C -1.78125 -24.078125 -1.519531 -25.4375 -1.15625 -26.78125 C -1 -27.351562 -0.816406 -27.96875 -0.609375 -28.625 C -0.410156 -29.28125 -0.175781 -29.929688 0.09375 -30.578125 C 0.375 -31.222656 0.695312 -31.820312 1.0625 -32.375 C 1.425781 -32.9375 1.851562 -33.414062 2.34375 -33.8125 C 2.71875 -34.113281 3.148438 -34.34375 3.640625 -34.5 C 4.140625 -34.664062 4.648438 -34.75 5.171875 -34.75 C 5.691406 -34.75 6.191406 -34.660156 6.671875 -34.484375 C 7.160156 -34.304688 7.570312 -34.03125 7.90625 -33.65625 C 7.9375 -33.625 7.960938 -33.59375 7.984375 -33.5625 C 8.015625 -33.53125 8.039062 -33.492188 8.0625 -33.453125 C 8.445312 -33.554688 8.835938 -33.59375 9.234375 -33.5625 C 9.640625 -33.539062 9.984375 -33.453125 10.265625 -33.296875 C 10.546875 -33.140625 10.671875 -32.921875 10.640625 -32.640625 C 10.515625 -30.828125 10.394531 -29 10.28125 -27.15625 C 10.175781 -25.3125 10.148438 -23.472656 10.203125 -21.640625 C 10.253906 -19.816406 10.453125 -18.007812 10.796875 -16.21875 C 10.816406 -16.082031 10.84375 -15.945312 10.875 -15.8125 C 10.90625 -15.675781 10.941406 -15.539062 10.984375 -15.40625 C 11.117188 -15.582031 11.25 -15.753906 11.375 -15.921875 C 11.5 -16.085938 11.613281 -16.253906 11.71875 -16.421875 C 12.082031 -16.960938 12.410156 -17.507812 12.703125 -18.0625 C 12.992188 -18.625 13.265625 -19.195312 13.515625 -19.78125 C 14.046875 -21.019531 14.484375 -22.28125 14.828125 -23.5625 C 15.179688 -24.84375 15.453125 -26.15625 15.640625 -27.5 Z M 5 -22.46875 C 5.351562 -23.695312 5.640625 -24.941406 5.859375 -26.203125 C 6.078125 -27.460938 6.289062 -28.722656 6.5 -29.984375 C 6.414062 -30.242188 6.300781 -30.5 6.15625 -30.75 C 6.019531 -30.96875 5.894531 -31.1875 5.78125 -31.40625 C 5.664062 -31.625 5.535156 -31.835938 5.390625 -32.046875 C 5.335938 -32.128906 5.28125 -32.207031 5.21875 -32.28125 C 5.164062 -32.363281 5.109375 -32.441406 5.046875 -32.515625 C 4.953125 -32.378906 4.863281 -32.238281 4.78125 -32.09375 C 4.695312 -31.945312 4.613281 -31.800781 4.53125 -31.65625 C 4.40625 -31.4375 4.28125 -31.207031 4.15625 -30.96875 C 4.039062 -30.726562 3.929688 -30.484375 3.828125 -30.234375 C 3.359375 -29.222656 2.96875 -28.1875 2.65625 -27.125 C 2.300781 -25.976562 2.035156 -24.800781 1.859375 -23.59375 C 1.691406 -22.394531 1.609375 -21.195312 1.609375 -20 C 1.609375 -19.46875 1.617188 -18.929688 1.640625 -18.390625 C 1.671875 -17.847656 1.726562 -17.3125 1.8125 -16.78125 C 1.84375 -16.625 1.890625 -16.375 1.953125 -16.03125 C 2.015625 -15.6875 2.109375 -15.359375 2.234375 -15.046875 C 2.460938 -15.367188 2.671875 -15.738281 2.859375 -16.15625 C 3.046875 -16.582031 3.210938 -16.988281 3.359375 -17.375 C 3.515625 -17.757812 3.625 -18.039062 3.6875 -18.21875 C 3.945312 -18.914062 4.179688 -19.617188 4.390625 -20.328125 C 4.597656 -21.035156 4.800781 -21.75 5 -22.46875 Z M 5 -22.46875 "/></g></g></g><g fill="#ffffff" fill-opacity="1"><g transform="translate(321.663951, 63.499967)"><g><path d="M 10.390625 -23.75 C 10.328125 -23.632812 10.164062 -23.550781 9.90625 -23.5 C 9.65625 -23.445312 9.378906 -23.429688 9.078125 -23.453125 C 8.785156 -23.472656 8.539062 -23.53125 8.34375 -23.625 C 8.144531 -23.71875 8.070312 -23.851562 8.125 -24.03125 C 8.28125 -24.582031 8.429688 -25.207031 8.578125 -25.90625 C 8.722656 -26.601562 8.8125 -27.316406 8.84375 -28.046875 C 8.882812 -28.785156 8.84375 -29.5 8.71875 -30.1875 C 8.59375 -30.882812 8.347656 -31.519531 7.984375 -32.09375 C 7.617188 -32.664062 7.09375 -33.128906 6.40625 -33.484375 C 6 -33.691406 5.675781 -33.773438 5.4375 -33.734375 C 5.195312 -33.703125 4.910156 -33.550781 4.578125 -33.28125 C 4.128906 -32.914062 3.742188 -32.460938 3.421875 -31.921875 C 3.097656 -31.378906 2.835938 -30.835938 2.640625 -30.296875 C 2.191406 -29.015625 2.101562 -27.726562 2.375 -26.4375 C 2.65625 -25.144531 3.234375 -23.988281 4.109375 -22.96875 C 4.503906 -22.5 4.945312 -22.082031 5.4375 -21.71875 C 5.925781 -21.363281 6.425781 -21.023438 6.9375 -20.703125 C 7.457031 -20.390625 7.960938 -20.0625 8.453125 -19.71875 C 8.941406 -19.382812 9.394531 -19 9.8125 -18.5625 C 10.34375 -18 10.695312 -17.390625 10.875 -16.734375 C 11.0625 -16.078125 11.046875 -15.4375 10.828125 -14.8125 C 10.617188 -14.195312 10.1875 -13.660156 9.53125 -13.203125 C 8.9375 -12.785156 8.273438 -12.484375 7.546875 -12.296875 C 6.816406 -12.109375 6.09375 -11.992188 5.375 -11.953125 C 4.21875 -11.898438 3.164062 -12.050781 2.21875 -12.40625 C 1.269531 -12.769531 0.5 -13.34375 -0.09375 -14.125 C -0.6875 -14.90625 -1.046875 -15.894531 -1.171875 -17.09375 C -1.203125 -17.351562 -1.097656 -17.5625 -0.859375 -17.71875 C -0.628906 -17.882812 -0.332031 -18 0.03125 -18.0625 C 0.40625 -18.132812 0.773438 -18.148438 1.140625 -18.109375 C 1.515625 -18.066406 1.832031 -17.96875 2.09375 -17.8125 C 2.363281 -17.65625 2.515625 -17.441406 2.546875 -17.171875 C 2.597656 -16.710938 2.703125 -16.234375 2.859375 -15.734375 C 3.015625 -15.242188 3.25 -14.820312 3.5625 -14.46875 C 3.882812 -14.125 4.316406 -13.925781 4.859375 -13.875 C 5.203125 -13.84375 5.546875 -13.890625 5.890625 -14.015625 C 6.242188 -14.140625 6.546875 -14.320312 6.796875 -14.5625 C 7.054688 -14.8125 7.222656 -15.125 7.296875 -15.5 C 7.367188 -15.875 7.300781 -16.296875 7.09375 -16.765625 C 6.925781 -17.160156 6.679688 -17.5 6.359375 -17.78125 C 6.035156 -18.070312 5.6875 -18.332031 5.3125 -18.5625 C 4.9375 -18.789062 4.570312 -19.015625 4.21875 -19.234375 C 3.726562 -19.546875 3.242188 -19.878906 2.765625 -20.234375 C 2.285156 -20.597656 1.835938 -20.984375 1.421875 -21.390625 C 0.609375 -22.191406 -0.0664062 -23.097656 -0.609375 -24.109375 C -1.148438 -25.128906 -1.445312 -26.226562 -1.5 -27.40625 C -1.539062 -28.34375 -1.425781 -29.265625 -1.15625 -30.171875 C -0.882812 -31.078125 -0.484375 -31.910156 0.046875 -32.671875 C 0.585938 -33.441406 1.222656 -34.085938 1.953125 -34.609375 C 2.691406 -35.128906 3.507812 -35.476562 4.40625 -35.65625 C 5.3125 -35.832031 6.257812 -35.789062 7.25 -35.53125 C 8.34375 -35.238281 9.226562 -34.773438 9.90625 -34.140625 C 10.59375 -33.515625 11.097656 -32.78125 11.421875 -31.9375 C 11.753906 -31.09375 11.921875 -30.191406 11.921875 -29.234375 C 11.929688 -28.285156 11.800781 -27.335938 11.53125 -26.390625 C 11.269531 -25.453125 10.890625 -24.570312 10.390625 -23.75 Z M 10.390625 -23.75 "/></g></g></g><g fill="#ffffff" fill-opacity="1"><g transform="translate(335.373549, 63.499967)"><g/></g></g><g fill="#ffffff" fill-opacity="1"><g transform="translate(345.196813, 63.499967)"><g><path d="M 18.453125 -27.953125 C 18.691406 -27.953125 18.875 -27.898438 19 -27.796875 C 19.132812 -27.691406 19.179688 -27.578125 19.140625 -27.453125 C 19.097656 -27.335938 18.941406 -27.253906 18.671875 -27.203125 C 18.085938 -27.085938 17.460938 -26.957031 16.796875 -26.8125 C 16.128906 -26.675781 15.335938 -26.429688 14.421875 -26.078125 C 14.398438 -25.265625 14.328125 -24.453125 14.203125 -23.640625 C 14.085938 -22.835938 13.9375 -22.046875 13.75 -21.265625 C 13.382812 -19.785156 12.878906 -18.363281 12.234375 -17 C 11.984375 -16.476562 11.695312 -15.929688 11.375 -15.359375 C 11.0625 -14.785156 10.65625 -14.328125 10.15625 -13.984375 C 9.789062 -13.734375 9.367188 -13.539062 8.890625 -13.40625 C 8.410156 -13.269531 7.929688 -13.210938 7.453125 -13.234375 C 6.972656 -13.265625 6.546875 -13.398438 6.171875 -13.640625 C 5.796875 -13.878906 5.53125 -14.257812 5.375 -14.78125 C 5.175781 -15.382812 5.101562 -16.007812 5.15625 -16.65625 C 5.21875 -17.300781 5.363281 -17.941406 5.59375 -18.578125 C 5.820312 -19.210938 6.09375 -19.828125 6.40625 -20.421875 C 6.71875 -21.015625 7.035156 -21.550781 7.359375 -22.03125 C 7.804688 -22.6875 8.304688 -23.289062 8.859375 -23.84375 C 9.421875 -24.394531 10.03125 -24.898438 10.6875 -25.359375 C 10.75 -26.085938 10.773438 -26.851562 10.765625 -27.65625 C 10.765625 -28.46875 10.679688 -29.242188 10.515625 -29.984375 C 10.359375 -30.734375 10.078125 -31.378906 9.671875 -31.921875 C 9.359375 -32.347656 9.046875 -32.566406 8.734375 -32.578125 C 8.421875 -32.585938 8.109375 -32.472656 7.796875 -32.234375 C 7.484375 -31.992188 7.148438 -31.691406 6.796875 -31.328125 C 6.328125 -30.847656 5.90625 -30.3125 5.53125 -29.71875 C 5.15625 -29.132812 4.816406 -28.539062 4.515625 -27.9375 C 4.015625 -26.925781 3.59375 -25.894531 3.25 -24.84375 C 2.90625 -23.789062 2.609375 -22.722656 2.359375 -21.640625 C 2.335938 -20.453125 2.316406 -19.265625 2.296875 -18.078125 C 2.285156 -16.898438 2.28125 -15.71875 2.28125 -14.53125 C 2.269531 -12.71875 2.28125 -10.910156 2.3125 -9.109375 C 2.34375 -7.304688 2.382812 -5.5 2.4375 -3.6875 C 2.46875 -2.820312 2.5 -1.953125 2.53125 -1.078125 C 2.570312 -0.203125 2.613281 0.675781 2.65625 1.5625 C 2.6875 2.070312 2.710938 2.613281 2.734375 3.1875 C 2.765625 3.769531 2.773438 4.347656 2.765625 4.921875 C 2.753906 5.492188 2.71875 6.015625 2.65625 6.484375 C 2.632812 6.679688 2.507812 6.800781 2.28125 6.84375 C 2.050781 6.894531 1.769531 6.882812 1.4375 6.8125 C 1.113281 6.738281 0.789062 6.628906 0.46875 6.484375 C 0.144531 6.335938 -0.128906 6.171875 -0.359375 5.984375 C -0.597656 5.804688 -0.738281 5.628906 -0.78125 5.453125 C -0.945312 4.765625 -1.03125 4.101562 -1.03125 3.46875 C -1.03125 2.832031 -1.050781 2.117188 -1.09375 1.328125 C -1.132812 0.441406 -1.171875 -0.4375 -1.203125 -1.3125 C -1.242188 -2.1875 -1.28125 -3.054688 -1.3125 -3.921875 C -1.363281 -5.679688 -1.398438 -7.4375 -1.421875 -9.1875 C -1.453125 -10.9375 -1.46875 -12.691406 -1.46875 -14.453125 C -1.457031 -16.265625 -1.4375 -18.066406 -1.40625 -19.859375 C -1.382812 -21.660156 -1.335938 -23.46875 -1.265625 -25.28125 C -1.234375 -26.164062 -1.195312 -27.039062 -1.15625 -27.90625 C -1.113281 -28.78125 -1.0625 -29.65625 -1 -30.53125 C -0.945312 -31.113281 -0.921875 -31.601562 -0.921875 -32 C -0.921875 -32.394531 -0.898438 -32.738281 -0.859375 -33.03125 C -0.816406 -33.332031 -0.734375 -33.617188 -0.609375 -33.890625 C -0.460938 -34.160156 -0.222656 -34.3125 0.109375 -34.34375 C 0.453125 -34.375 0.816406 -34.328125 1.203125 -34.203125 C 1.585938 -34.085938 1.921875 -33.929688 2.203125 -33.734375 C 2.492188 -33.535156 2.648438 -33.335938 2.671875 -33.140625 C 2.722656 -32.847656 2.75 -32.601562 2.75 -32.40625 C 2.75 -32.207031 2.738281 -31.957031 2.71875 -31.65625 C 2.707031 -31.363281 2.6875 -30.910156 2.65625 -30.296875 C 2.644531 -29.671875 2.625 -29.046875 2.59375 -28.421875 C 2.570312 -27.796875 2.546875 -27.171875 2.515625 -26.546875 C 2.765625 -27.316406 3.039062 -28.054688 3.34375 -28.765625 C 3.65625 -29.484375 4.003906 -30.179688 4.390625 -30.859375 C 4.671875 -31.316406 5.019531 -31.828125 5.4375 -32.390625 C 5.851562 -32.960938 6.269531 -33.421875 6.6875 -33.765625 C 7.113281 -34.117188 7.59375 -34.351562 8.125 -34.46875 C 8.65625 -34.59375 9.179688 -34.628906 9.703125 -34.578125 C 10.609375 -34.484375 11.363281 -34.210938 11.96875 -33.765625 C 12.582031 -33.316406 13.070312 -32.742188 13.4375 -32.046875 C 13.8125 -31.347656 14.066406 -30.582031 14.203125 -29.75 C 14.265625 -29.332031 14.3125 -28.910156 14.34375 -28.484375 C 14.375 -28.066406 14.398438 -27.640625 14.421875 -27.203125 C 15.148438 -27.453125 15.804688 -27.632812 16.390625 -27.75 C 16.984375 -27.875 17.671875 -27.941406 18.453125 -27.953125 Z M 8.125 -16.484375 C 9.351562 -18.722656 10.140625 -21.117188 10.484375 -23.671875 C 9.953125 -23.160156 9.453125 -22.570312 8.984375 -21.90625 C 8.515625 -21.25 8.097656 -20.476562 7.734375 -19.59375 C 7.484375 -18.988281 7.273438 -18.351562 7.109375 -17.6875 C 6.953125 -17.03125 6.921875 -16.375 7.015625 -15.71875 C 7.035156 -15.53125 7.050781 -15.378906 7.0625 -15.265625 C 7.070312 -15.148438 7.101562 -15.035156 7.15625 -14.921875 C 7.1875 -14.984375 7.210938 -15.03125 7.234375 -15.0625 C 7.265625 -15.101562 7.304688 -15.148438 7.359375 -15.203125 C 7.492188 -15.421875 7.625 -15.632812 7.75 -15.84375 C 7.875 -16.050781 8 -16.265625 8.125 -16.484375 Z M 8.125 -16.484375 "/></g></g></g><g fill="#ffffff" fill-opacity="1"><g transform="translate(363.476277, 63.499967)"><g><path d="M 15.640625 -27.5 C 15.660156 -27.5625 15.738281 -27.597656 15.875 -27.609375 C 16.019531 -27.628906 16.164062 -27.625 16.3125 -27.59375 C 16.457031 -27.570312 16.519531 -27.53125 16.5 -27.46875 C 16.3125 -25.832031 16.050781 -24.195312 15.71875 -22.5625 C 15.382812 -20.9375 14.9375 -19.347656 14.375 -17.796875 C 14.164062 -17.210938 13.929688 -16.613281 13.671875 -16 C 13.410156 -15.394531 13.09375 -14.859375 12.71875 -14.390625 C 12.351562 -13.921875 11.894531 -13.585938 11.34375 -13.390625 C 10.800781 -13.191406 10.140625 -13.195312 9.359375 -13.40625 C 8.722656 -13.582031 8.222656 -13.914062 7.859375 -14.40625 C 7.492188 -14.90625 7.222656 -15.492188 7.046875 -16.171875 C 6.867188 -16.847656 6.75 -17.539062 6.6875 -18.25 C 6.550781 -17.832031 6.40625 -17.414062 6.25 -17 C 6.101562 -16.59375 5.941406 -16.191406 5.765625 -15.796875 C 5.523438 -15.265625 5.238281 -14.757812 4.90625 -14.28125 C 4.582031 -13.8125 4.207031 -13.414062 3.78125 -13.09375 C 3.351562 -12.78125 2.875 -12.578125 2.34375 -12.484375 C 1.820312 -12.398438 1.238281 -12.484375 0.59375 -12.734375 C 0.03125 -12.953125 -0.414062 -13.28125 -0.75 -13.71875 C -1.09375 -14.15625 -1.351562 -14.644531 -1.53125 -15.1875 C -1.707031 -15.738281 -1.832031 -16.304688 -1.90625 -16.890625 C -1.976562 -17.484375 -2.023438 -18.039062 -2.046875 -18.5625 C -2.128906 -19.945312 -2.09375 -21.328125 -1.9375 -22.703125 C -1.78125 -24.078125 -1.519531 -25.4375 -1.15625 -26.78125 C -1 -27.351562 -0.816406 -27.96875 -0.609375 -28.625 C -0.410156 -29.28125 -0.175781 -29.929688 0.09375 -30.578125 C 0.375 -31.222656 0.695312 -31.820312 1.0625 -32.375 C 1.425781 -32.9375 1.851562 -33.414062 2.34375 -33.8125 C 2.71875 -34.113281 3.148438 -34.34375 3.640625 -34.5 C 4.140625 -34.664062 4.648438 -34.75 5.171875 -34.75 C 5.691406 -34.75 6.191406 -34.660156 6.671875 -34.484375 C 7.160156 -34.304688 7.570312 -34.03125 7.90625 -33.65625 C 7.9375 -33.625 7.960938 -33.59375 7.984375 -33.5625 C 8.015625 -33.53125 8.039062 -33.492188 8.0625 -33.453125 C 8.445312 -33.554688 8.835938 -33.59375 9.234375 -33.5625 C 9.640625 -33.539062 9.984375 -33.453125 10.265625 -33.296875 C 10.546875 -33.140625 10.671875 -32.921875 10.640625 -32.640625 C 10.515625 -30.828125 10.394531 -29 10.28125 -27.15625 C 10.175781 -25.3125 10.148438 -23.472656 10.203125 -21.640625 C 10.253906 -19.816406 10.453125 -18.007812 10.796875 -16.21875 C 10.816406 -16.082031 10.84375 -15.945312 10.875 -15.8125 C 10.90625 -15.675781 10.941406 -15.539062 10.984375 -15.40625 C 11.117188 -15.582031 11.25 -15.753906 11.375 -15.921875 C 11.5 -16.085938 11.613281 -16.253906 11.71875 -16.421875 C 12.082031 -16.960938 12.410156 -17.507812 12.703125 -18.0625 C 12.992188 -18.625 13.265625 -19.195312 13.515625 -19.78125 C 14.046875 -21.019531 14.484375 -22.28125 14.828125 -23.5625 C 15.179688 -24.84375 15.453125 -26.15625 15.640625 -27.5 Z M 5 -22.46875 C 5.351562 -23.695312 5.640625 -24.941406 5.859375 -26.203125 C 6.078125 -27.460938 6.289062 -28.722656 6.5 -29.984375 C 6.414062 -30.242188 6.300781 -30.5 6.15625 -30.75 C 6.019531 -30.96875 5.894531 -31.1875 5.78125 -31.40625 C 5.664062 -31.625 5.535156 -31.835938 5.390625 -32.046875 C 5.335938 -32.128906 5.28125 -32.207031 5.21875 -32.28125 C 5.164062 -32.363281 5.109375 -32.441406 5.046875 -32.515625 C 4.953125 -32.378906 4.863281 -32.238281 4.78125 -32.09375 C 4.695312 -31.945312 4.613281 -31.800781 4.53125 -31.65625 C 4.40625 -31.4375 4.28125 -31.207031 4.15625 -30.96875 C 4.039062 -30.726562 3.929688 -30.484375 3.828125 -30.234375 C 3.359375 -29.222656 2.96875 -28.1875 2.65625 -27.125 C 2.300781 -25.976562 2.035156 -24.800781 1.859375 -23.59375 C 1.691406 -22.394531 1.609375 -21.195312 1.609375 -20 C 1.609375 -19.46875 1.617188 -18.929688 1.640625 -18.390625 C 1.671875 -17.847656 1.726562 -17.3125 1.8125 -16.78125 C 1.84375 -16.625 1.890625 -16.375 1.953125 -16.03125 C 2.015625 -15.6875 2.109375 -15.359375 2.234375 -15.046875 C 2.460938 -15.367188 2.671875 -15.738281 2.859375 -16.15625 C 3.046875 -16.582031 3.210938 -16.988281 3.359375 -17.375 C 3.515625 -17.757812 3.625 -18.039062 3.6875 -18.21875 C 3.945312 -18.914062 4.179688 -19.617188 4.390625 -20.328125 C 4.597656 -21.035156 4.800781 -21.75 5 -22.46875 Z M 5 -22.46875 "/></g></g></g><g fill="#ffffff" fill-opacity="1"><g transform="translate(379.236461, 63.499967)"><g><path d="M 9.265625 -25.09375 C 8.660156 -24.5 8.054688 -24.109375 7.453125 -23.921875 C 6.847656 -23.742188 6.210938 -23.875 5.546875 -24.3125 C 5.265625 -24.507812 5.0625 -24.765625 4.9375 -25.078125 C 4.8125 -25.390625 4.757812 -25.703125 4.78125 -26.015625 C 4.8125 -26.328125 4.898438 -26.582031 5.046875 -26.78125 C 5.097656 -26.820312 5.210938 -26.847656 5.390625 -26.859375 C 5.578125 -26.867188 5.765625 -26.859375 5.953125 -26.828125 C 6.148438 -26.804688 6.300781 -26.765625 6.40625 -26.703125 C 6.519531 -26.640625 6.535156 -26.535156 6.453125 -26.390625 C 6.347656 -26.234375 6.296875 -26.054688 6.296875 -25.859375 C 6.304688 -25.660156 6.375 -25.492188 6.5 -25.359375 C 6.625 -25.222656 6.800781 -25.15625 7.03125 -25.15625 C 7.269531 -25.164062 7.484375 -25.320312 7.671875 -25.625 C 7.859375 -25.925781 8.019531 -26.316406 8.15625 -26.796875 C 8.300781 -27.273438 8.414062 -27.785156 8.5 -28.328125 C 8.59375 -28.878906 8.640625 -29.40625 8.640625 -29.90625 C 8.640625 -30.414062 8.59375 -30.84375 8.5 -31.1875 C 8.414062 -31.53125 8.285156 -31.734375 8.109375 -31.796875 C 7.691406 -31.953125 7.257812 -31.882812 6.8125 -31.59375 C 6.363281 -31.300781 5.925781 -30.828125 5.5 -30.171875 C 5.070312 -29.523438 4.671875 -28.726562 4.296875 -27.78125 C 3.929688 -26.84375 3.613281 -25.796875 3.34375 -24.640625 C 3.070312 -23.484375 2.867188 -22.269531 2.734375 -21 C 2.503906 -19.695312 2.390625 -18.320312 2.390625 -16.875 C 2.398438 -15.425781 2.398438 -14.023438 2.390625 -12.671875 C 2.390625 -12.617188 2.390625 -12.5625 2.390625 -12.5 C 2.398438 -12.4375 2.40625 -12.378906 2.40625 -12.328125 L 2.390625 -12.328125 C 2.390625 -12.234375 2.382812 -12.140625 2.375 -12.046875 C 2.363281 -11.960938 2.359375 -11.875 2.359375 -11.78125 C 2.347656 -11.519531 2.222656 -11.320312 1.984375 -11.1875 C 1.753906 -11.0625 1.460938 -10.992188 1.109375 -10.984375 C 0.765625 -10.984375 0.414062 -11.035156 0.0625 -11.140625 C -0.289062 -11.242188 -0.585938 -11.390625 -0.828125 -11.578125 C -1.066406 -11.765625 -1.195312 -11.988281 -1.21875 -12.25 C -1.300781 -14.1875 -1.378906 -16.117188 -1.453125 -18.046875 C -1.535156 -19.972656 -1.585938 -21.898438 -1.609375 -23.828125 C -1.609375 -24.796875 -1.59375 -25.765625 -1.5625 -26.734375 C -1.539062 -27.703125 -1.503906 -28.660156 -1.453125 -29.609375 C -1.410156 -30.191406 -1.351562 -30.804688 -1.28125 -31.453125 C -1.21875 -32.097656 -1.117188 -32.707031 -0.984375 -33.28125 C -0.859375 -33.851562 -0.691406 -34.316406 -0.484375 -34.671875 C -0.378906 -34.847656 -0.195312 -34.992188 0.0625 -35.109375 C 0.320312 -35.222656 0.601562 -35.296875 0.90625 -35.328125 C 1.21875 -35.359375 1.507812 -35.34375 1.78125 -35.28125 C 2.0625 -35.226562 2.285156 -35.125 2.453125 -34.96875 C 2.617188 -34.820312 2.675781 -34.625 2.625 -34.375 C 2.425781 -33.375 2.3125 -32.460938 2.28125 -31.640625 C 2.25 -30.816406 2.207031 -29.957031 2.15625 -29.0625 C 2.132812 -28.550781 2.113281 -28.035156 2.09375 -27.515625 C 2.082031 -26.992188 2.066406 -26.472656 2.046875 -25.953125 C 2.117188 -26.148438 2.1875 -26.34375 2.25 -26.53125 C 2.320312 -26.71875 2.398438 -26.910156 2.484375 -27.109375 C 2.816406 -27.972656 3.175781 -28.847656 3.5625 -29.734375 C 3.957031 -30.617188 4.398438 -31.429688 4.890625 -32.171875 C 5.390625 -32.910156 5.945312 -33.5 6.5625 -33.9375 C 7.1875 -34.375 7.894531 -34.570312 8.6875 -34.53125 C 9.226562 -34.507812 9.664062 -34.3125 10 -33.9375 C 10.34375 -33.5625 10.59375 -33.082031 10.75 -32.5 C 10.914062 -31.914062 11 -31.273438 11 -30.578125 C 11.007812 -29.878906 10.945312 -29.175781 10.8125 -28.46875 C 10.675781 -27.769531 10.476562 -27.125 10.21875 -26.53125 C 9.957031 -25.9375 9.640625 -25.457031 9.265625 -25.09375 Z M 9.265625 -25.09375 "/></g></g></g><g fill="#ffffff" fill-opacity="1"><g transform="translate(392.164884, 63.499967)"><g><path d="M 15.640625 -27.5 C 15.660156 -27.5625 15.738281 -27.597656 15.875 -27.609375 C 16.019531 -27.628906 16.164062 -27.625 16.3125 -27.59375 C 16.457031 -27.570312 16.519531 -27.53125 16.5 -27.46875 C 16.3125 -25.832031 16.050781 -24.195312 15.71875 -22.5625 C 15.382812 -20.9375 14.9375 -19.347656 14.375 -17.796875 C 14.164062 -17.210938 13.929688 -16.613281 13.671875 -16 C 13.410156 -15.394531 13.09375 -14.859375 12.71875 -14.390625 C 12.351562 -13.921875 11.894531 -13.585938 11.34375 -13.390625 C 10.800781 -13.191406 10.140625 -13.195312 9.359375 -13.40625 C 8.722656 -13.582031 8.222656 -13.914062 7.859375 -14.40625 C 7.492188 -14.90625 7.222656 -15.492188 7.046875 -16.171875 C 6.867188 -16.847656 6.75 -17.539062 6.6875 -18.25 C 6.550781 -17.832031 6.40625 -17.414062 6.25 -17 C 6.101562 -16.59375 5.941406 -16.191406 5.765625 -15.796875 C 5.523438 -15.265625 5.238281 -14.757812 4.90625 -14.28125 C 4.582031 -13.8125 4.207031 -13.414062 3.78125 -13.09375 C 3.351562 -12.78125 2.875 -12.578125 2.34375 -12.484375 C 1.820312 -12.398438 1.238281 -12.484375 0.59375 -12.734375 C 0.03125 -12.953125 -0.414062 -13.28125 -0.75 -13.71875 C -1.09375 -14.15625 -1.351562 -14.644531 -1.53125 -15.1875 C -1.707031 -15.738281 -1.832031 -16.304688 -1.90625 -16.890625 C -1.976562 -17.484375 -2.023438 -18.039062 -2.046875 -18.5625 C -2.128906 -19.945312 -2.09375 -21.328125 -1.9375 -22.703125 C -1.78125 -24.078125 -1.519531 -25.4375 -1.15625 -26.78125 C -1 -27.351562 -0.816406 -27.96875 -0.609375 -28.625 C -0.410156 -29.28125 -0.175781 -29.929688 0.09375 -30.578125 C 0.375 -31.222656 0.695312 -31.820312 1.0625 -32.375 C 1.425781 -32.9375 1.851562 -33.414062 2.34375 -33.8125 C 2.71875 -34.113281 3.148438 -34.34375 3.640625 -34.5 C 4.140625 -34.664062 4.648438 -34.75 5.171875 -34.75 C 5.691406 -34.75 6.191406 -34.660156 6.671875 -34.484375 C 7.160156 -34.304688 7.570312 -34.03125 7.90625 -33.65625 C 7.9375 -33.625 7.960938 -33.59375 7.984375 -33.5625 C 8.015625 -33.53125 8.039062 -33.492188 8.0625 -33.453125 C 8.445312 -33.554688 8.835938 -33.59375 9.234375 -33.5625 C 9.640625 -33.539062 9.984375 -33.453125 10.265625 -33.296875 C 10.546875 -33.140625 10.671875 -32.921875 10.640625 -32.640625 C 10.515625 -30.828125 10.394531 -29 10.28125 -27.15625 C 10.175781 -25.3125 10.148438 -23.472656 10.203125 -21.640625 C 10.253906 -19.816406 10.453125 -18.007812 10.796875 -16.21875 C 10.816406 -16.082031 10.84375 -15.945312 10.875 -15.8125 C 10.90625 -15.675781 10.941406 -15.539062 10.984375 -15.40625 C 11.117188 -15.582031 11.25 -15.753906 11.375 -15.921875 C 11.5 -16.085938 11.613281 -16.253906 11.71875 -16.421875 C 12.082031 -16.960938 12.410156 -17.507812 12.703125 -18.0625 C 12.992188 -18.625 13.265625 -19.195312 13.515625 -19.78125 C 14.046875 -21.019531 14.484375 -22.28125 14.828125 -23.5625 C 15.179688 -24.84375 15.453125 -26.15625 15.640625 -27.5 Z M 5 -22.46875 C 5.351562 -23.695312 5.640625 -24.941406 5.859375 -26.203125 C 6.078125 -27.460938 6.289062 -28.722656 6.5 -29.984375 C 6.414062 -30.242188 6.300781 -30.5 6.15625 -30.75 C 6.019531 -30.96875 5.894531 -31.1875 5.78125 -31.40625 C 5.664062 -31.625 5.535156 -31.835938 5.390625 -32.046875 C 5.335938 -32.128906 5.28125 -32.207031 5.21875 -32.28125 C 5.164062 -32.363281 5.109375 -32.441406 5.046875 -32.515625 C 4.953125 -32.378906 4.863281 -32.238281 4.78125 -32.09375 C 4.695312 -31.945312 4.613281 -31.800781 4.53125 -31.65625 C 4.40625 -31.4375 4.28125 -31.207031 4.15625 -30.96875 C 4.039062 -30.726562 3.929688 -30.484375 3.828125 -30.234375 C 3.359375 -29.222656 2.96875 -28.1875 2.65625 -27.125 C 2.300781 -25.976562 2.035156 -24.800781 1.859375 -23.59375 C 1.691406 -22.394531 1.609375 -21.195312 1.609375 -20 C 1.609375 -19.46875 1.617188 -18.929688 1.640625 -18.390625 C 1.671875 -17.847656 1.726562 -17.3125 1.8125 -16.78125 C 1.84375 -16.625 1.890625 -16.375 1.953125 -16.03125 C 2.015625 -15.6875 2.109375 -15.359375 2.234375 -15.046875 C 2.460938 -15.367188 2.671875 -15.738281 2.859375 -16.15625 C 3.046875 -16.582031 3.210938 -16.988281 3.359375 -17.375 C 3.515625 -17.757812 3.625 -18.039062 3.6875 -18.21875 C 3.945312 -18.914062 4.179688 -19.617188 4.390625 -20.328125 C 4.597656 -21.035156 4.800781 -21.75 5 -22.46875 Z M 5 -22.46875 "/></g></g></g><g fill="#ffffff" fill-opacity="1"><g transform="translate(407.925068, 63.499967)"><g/></g></g><g fill="#ffffff" fill-opacity="1"><g transform="translate(417.748332, 63.499967)"><g><path d="M 17.3125 -25.234375 C 17.320312 -25.285156 17.375 -25.3125 17.46875 -25.3125 C 17.570312 -25.3125 17.613281 -25.285156 17.59375 -25.234375 C 17.351562 -23.441406 17.019531 -21.660156 16.59375 -19.890625 C 16.164062 -18.128906 15.679688 -16.382812 15.140625 -14.65625 C 14.941406 -14.03125 14.613281 -13.5625 14.15625 -13.25 C 13.707031 -12.945312 13.203125 -12.785156 12.640625 -12.765625 C 12.078125 -12.753906 11.53125 -12.875 11 -13.125 C 10.46875 -13.382812 10.023438 -13.753906 9.671875 -14.234375 C 9.148438 -14.960938 8.773438 -15.804688 8.546875 -16.765625 C 8.328125 -17.722656 8.179688 -18.695312 8.109375 -19.6875 C 7.972656 -19.226562 7.835938 -18.769531 7.703125 -18.3125 C 7.566406 -17.863281 7.425781 -17.410156 7.28125 -16.953125 C 7.113281 -16.441406 6.9375 -15.9375 6.75 -15.4375 C 6.5625 -14.945312 6.320312 -14.503906 6.03125 -14.109375 C 5.75 -13.710938 5.390625 -13.398438 4.953125 -13.171875 C 4.523438 -12.941406 3.992188 -12.835938 3.359375 -12.859375 C 2.628906 -12.878906 2.015625 -13.078125 1.515625 -13.453125 C 1.015625 -13.835938 0.601562 -14.320312 0.28125 -14.90625 C -0.0390625 -15.488281 -0.285156 -16.097656 -0.453125 -16.734375 C -0.765625 -17.921875 -0.929688 -19.164062 -0.953125 -20.46875 C -0.984375 -21.78125 -0.894531 -23.101562 -0.6875 -24.4375 C -0.488281 -25.78125 -0.191406 -27.078125 0.203125 -28.328125 C 0.597656 -29.585938 1.070312 -30.75 1.625 -31.8125 C 1.9375 -32.414062 2.289062 -32.96875 2.6875 -33.46875 C 3.09375 -33.976562 3.566406 -34.390625 4.109375 -34.703125 C 4.660156 -35.015625 5.3125 -35.164062 6.0625 -35.15625 C 6.300781 -35.15625 6.585938 -35.125 6.921875 -35.0625 C 7.253906 -35 7.566406 -34.894531 7.859375 -34.75 C 8.046875 -37.625 8.394531 -40.472656 8.90625 -43.296875 C 9.164062 -44.785156 9.453125 -46.316406 9.765625 -47.890625 C 10.078125 -49.460938 10.515625 -50.953125 11.078125 -52.359375 C 11.328125 -52.960938 11.660156 -53.476562 12.078125 -53.90625 C 12.503906 -54.332031 12.96875 -54.644531 13.46875 -54.84375 C 13.976562 -55.039062 14.484375 -55.085938 14.984375 -54.984375 C 15.492188 -54.890625 15.941406 -54.609375 16.328125 -54.140625 C 16.597656 -53.816406 16.804688 -53.367188 16.953125 -52.796875 C 17.097656 -52.222656 17.1875 -51.585938 17.21875 -50.890625 C 17.257812 -50.203125 17.269531 -49.507812 17.25 -48.8125 C 17.238281 -48.125 17.203125 -47.492188 17.140625 -46.921875 C 17.078125 -46.347656 17.015625 -45.894531 16.953125 -45.5625 C 16.648438 -43.96875 16.25 -42.332031 15.75 -40.65625 C 15.25 -38.976562 14.640625 -37.34375 13.921875 -35.75 C 13.210938 -34.15625 12.378906 -32.660156 11.421875 -31.265625 C 11.347656 -28.941406 11.359375 -26.582031 11.453125 -24.1875 C 11.554688 -21.789062 11.84375 -19.453125 12.3125 -17.171875 C 12.375 -16.828125 12.457031 -16.484375 12.5625 -16.140625 C 12.664062 -15.804688 12.804688 -15.492188 12.984375 -15.203125 C 13.023438 -15.148438 13.066406 -15.097656 13.109375 -15.046875 C 13.148438 -15.003906 13.195312 -14.957031 13.25 -14.90625 C 13.375 -15.019531 13.492188 -15.148438 13.609375 -15.296875 C 13.734375 -15.441406 13.835938 -15.582031 13.921875 -15.71875 C 14.117188 -16.007812 14.285156 -16.3125 14.421875 -16.625 C 14.554688 -16.945312 14.691406 -17.257812 14.828125 -17.5625 C 15.390625 -18.800781 15.875 -20.050781 16.28125 -21.3125 C 16.6875 -22.582031 17.03125 -23.890625 17.3125 -25.234375 Z M 13.421875 -47.390625 C 12.898438 -45.109375 12.484375 -42.8125 12.171875 -40.5 C 11.859375 -38.1875 11.632812 -35.863281 11.5 -33.53125 C 11.757812 -34 12.007812 -34.472656 12.25 -34.953125 C 12.5 -35.429688 12.726562 -35.914062 12.9375 -36.40625 C 13.488281 -37.707031 13.976562 -39.035156 14.40625 -40.390625 C 14.832031 -41.742188 15.1875 -43.113281 15.46875 -44.5 C 15.738281 -45.851562 15.898438 -47.160156 15.953125 -48.421875 C 16.003906 -49.679688 15.84375 -50.976562 15.46875 -52.3125 C 15.46875 -52.3125 15.4375 -52.363281 15.375 -52.46875 C 15.320312 -52.570312 15.253906 -52.648438 15.171875 -52.703125 C 15.085938 -52.753906 14.992188 -52.691406 14.890625 -52.515625 C 14.753906 -52.304688 14.644531 -52.078125 14.5625 -51.828125 C 14.488281 -51.585938 14.421875 -51.34375 14.359375 -51.09375 C 14.003906 -49.84375 13.691406 -48.609375 13.421875 -47.390625 Z M 7.671875 -27.5625 C 7.660156 -28.25 7.65625 -28.9375 7.65625 -29.625 C 7.664062 -30.320312 7.679688 -31.007812 7.703125 -31.6875 C 7.609375 -32.175781 7.394531 -32.550781 7.0625 -32.8125 C 6.726562 -33.082031 6.425781 -33.179688 6.15625 -33.109375 C 5.945312 -33.046875 5.734375 -32.910156 5.515625 -32.703125 C 5.304688 -32.503906 5.109375 -32.285156 4.921875 -32.046875 C 4.742188 -31.816406 4.609375 -31.609375 4.515625 -31.421875 C 4.109375 -30.640625 3.78125 -29.828125 3.53125 -28.984375 C 3.289062 -28.148438 3.078125 -27.3125 2.890625 -26.46875 C 2.671875 -25.414062 2.488281 -24.289062 2.34375 -23.09375 C 2.195312 -21.894531 2.132812 -20.710938 2.15625 -19.546875 C 2.1875 -18.390625 2.320312 -17.332031 2.5625 -16.375 C 2.613281 -16.175781 2.675781 -15.972656 2.75 -15.765625 C 2.832031 -15.554688 2.929688 -15.367188 3.046875 -15.203125 C 3.234375 -14.921875 3.410156 -14.773438 3.578125 -14.765625 C 3.742188 -14.765625 3.929688 -14.867188 4.140625 -15.078125 C 4.484375 -15.421875 4.722656 -15.769531 4.859375 -16.125 C 4.992188 -16.476562 5.132812 -16.835938 5.28125 -17.203125 C 5.625 -18.140625 5.9375 -19.085938 6.21875 -20.046875 C 6.507812 -21.003906 6.757812 -21.976562 6.96875 -22.96875 C 7.28125 -24.488281 7.515625 -26.019531 7.671875 -27.5625 Z M 7.671875 -27.5625 "/></g></g></g><g fill="#ffffff" fill-opacity="1"><g transform="translate(435.01227, 63.499967)"><g><path d="M 7.9375 -24.203125 C 7.570312 -23.585938 7.140625 -23.019531 6.640625 -22.5 C 6.148438 -21.988281 5.59375 -21.585938 4.96875 -21.296875 C 4.351562 -21.015625 3.660156 -20.910156 2.890625 -20.984375 C 2.816406 -20.984375 2.738281 -20.988281 2.65625 -21 C 2.582031 -21.007812 2.503906 -21.019531 2.421875 -21.03125 C 2.472656 -20.320312 2.570312 -19.628906 2.71875 -18.953125 C 2.875 -18.273438 3.097656 -17.664062 3.390625 -17.125 C 3.691406 -16.582031 4.085938 -16.140625 4.578125 -15.796875 C 5.078125 -15.460938 5.6875 -15.28125 6.40625 -15.25 C 7.03125 -15.226562 7.617188 -15.375 8.171875 -15.6875 C 8.722656 -16 9.234375 -16.410156 9.703125 -16.921875 C 10.171875 -17.441406 10.597656 -17.988281 10.984375 -18.5625 C 11.378906 -19.132812 11.734375 -19.671875 12.046875 -20.171875 C 12.148438 -20.347656 12.296875 -20.628906 12.484375 -21.015625 C 12.679688 -21.410156 12.890625 -21.863281 13.109375 -22.375 C 13.328125 -22.882812 13.539062 -23.414062 13.75 -23.96875 C 13.96875 -24.53125 14.160156 -25.078125 14.328125 -25.609375 C 14.492188 -26.140625 14.613281 -26.609375 14.6875 -27.015625 C 14.738281 -27.285156 14.851562 -27.457031 15.03125 -27.53125 C 15.207031 -27.613281 15.367188 -27.609375 15.515625 -27.515625 C 15.671875 -27.429688 15.710938 -27.257812 15.640625 -27 C 15.484375 -26.300781 15.257812 -25.507812 14.96875 -24.625 C 14.675781 -23.738281 14.34375 -22.832031 13.96875 -21.90625 C 13.59375 -20.976562 13.195312 -20.078125 12.78125 -19.203125 C 12.257812 -18.097656 11.648438 -17.09375 10.953125 -16.1875 C 10.253906 -15.28125 9.488281 -14.550781 8.65625 -14 C 7.832031 -13.457031 6.953125 -13.15625 6.015625 -13.09375 C 5.140625 -13.019531 4.296875 -13.097656 3.484375 -13.328125 C 2.671875 -13.566406 1.945312 -13.953125 1.3125 -14.484375 C 0.675781 -15.023438 0.160156 -15.707031 -0.234375 -16.53125 C -0.597656 -17.332031 -0.859375 -18.1875 -1.015625 -19.09375 C -1.171875 -20.007812 -1.25 -20.9375 -1.25 -21.875 C -1.257812 -22.820312 -1.238281 -23.726562 -1.1875 -24.59375 C -1.15625 -25.289062 -1.0625 -26.0625 -0.90625 -26.90625 C -0.757812 -27.75 -0.546875 -28.601562 -0.265625 -29.46875 C 0.00390625 -30.34375 0.34375 -31.179688 0.75 -31.984375 C 1.164062 -32.796875 1.648438 -33.519531 2.203125 -34.15625 C 2.765625 -34.800781 3.40625 -35.3125 4.125 -35.6875 C 4.84375 -36.0625 5.644531 -36.25 6.53125 -36.25 C 7.382812 -36.25 8.070312 -36.082031 8.59375 -35.75 C 9.113281 -35.414062 9.492188 -34.957031 9.734375 -34.375 C 9.972656 -33.800781 10.109375 -33.148438 10.140625 -32.421875 C 10.179688 -31.703125 10.132812 -30.945312 10 -30.15625 C 9.875 -29.375 9.691406 -28.601562 9.453125 -27.84375 C 9.222656 -27.09375 8.972656 -26.398438 8.703125 -25.765625 C 8.429688 -25.140625 8.175781 -24.617188 7.9375 -24.203125 Z M 2.390625 -22.5 C 2.421875 -22.476562 2.457031 -22.453125 2.5 -22.421875 C 2.539062 -22.398438 2.585938 -22.375 2.640625 -22.34375 C 3.023438 -22.144531 3.382812 -22.101562 3.71875 -22.21875 C 4.0625 -22.332031 4.375 -22.53125 4.65625 -22.8125 C 4.945312 -23.101562 5.203125 -23.421875 5.421875 -23.765625 C 5.648438 -24.109375 5.84375 -24.410156 6 -24.671875 C 6.570312 -25.703125 7.03125 -26.789062 7.375 -27.9375 C 7.71875 -29.082031 7.894531 -30.238281 7.90625 -31.40625 C 7.925781 -31.707031 7.914062 -32.078125 7.875 -32.515625 C 7.84375 -32.960938 7.757812 -33.390625 7.625 -33.796875 C 7.5 -34.210938 7.28125 -34.503906 6.96875 -34.671875 C 6.6875 -34.835938 6.328125 -34.757812 5.890625 -34.4375 C 5.453125 -34.125 5.007812 -33.597656 4.5625 -32.859375 C 4.113281 -32.128906 3.710938 -31.210938 3.359375 -30.109375 C 3.003906 -29.003906 2.757812 -27.757812 2.625 -26.375 C 2.582031 -25.957031 2.53125 -25.40625 2.46875 -24.71875 C 2.414062 -24.03125 2.390625 -23.289062 2.390625 -22.5 Z M 2.390625 -22.5 "/></g></g></g><g fill="#ffffff" fill-opacity="1"><g transform="translate(449.854569, 63.499967)"><g><path d="M 10.390625 -23.75 C 10.328125 -23.632812 10.164062 -23.550781 9.90625 -23.5 C 9.65625 -23.445312 9.378906 -23.429688 9.078125 -23.453125 C 8.785156 -23.472656 8.539062 -23.53125 8.34375 -23.625 C 8.144531 -23.71875 8.070312 -23.851562 8.125 -24.03125 C 8.28125 -24.582031 8.429688 -25.207031 8.578125 -25.90625 C 8.722656 -26.601562 8.8125 -27.316406 8.84375 -28.046875 C 8.882812 -28.785156 8.84375 -29.5 8.71875 -30.1875 C 8.59375 -30.882812 8.347656 -31.519531 7.984375 -32.09375 C 7.617188 -32.664062 7.09375 -33.128906 6.40625 -33.484375 C 6 -33.691406 5.675781 -33.773438 5.4375 -33.734375 C 5.195312 -33.703125 4.910156 -33.550781 4.578125 -33.28125 C 4.128906 -32.914062 3.742188 -32.460938 3.421875 -31.921875 C 3.097656 -31.378906 2.835938 -30.835938 2.640625 -30.296875 C 2.191406 -29.015625 2.101562 -27.726562 2.375 -26.4375 C 2.65625 -25.144531 3.234375 -23.988281 4.109375 -22.96875 C 4.503906 -22.5 4.945312 -22.082031 5.4375 -21.71875 C 5.925781 -21.363281 6.425781 -21.023438 6.9375 -20.703125 C 7.457031 -20.390625 7.960938 -20.0625 8.453125 -19.71875 C 8.941406 -19.382812 9.394531 -19 9.8125 -18.5625 C 10.34375 -18 10.695312 -17.390625 10.875 -16.734375 C 11.0625 -16.078125 11.046875 -15.4375 10.828125 -14.8125 C 10.617188 -14.195312 10.1875 -13.660156 9.53125 -13.203125 C 8.9375 -12.785156 8.273438 -12.484375 7.546875 -12.296875 C 6.816406 -12.109375 6.09375 -11.992188 5.375 -11.953125 C 4.21875 -11.898438 3.164062 -12.050781 2.21875 -12.40625 C 1.269531 -12.769531 0.5 -13.34375 -0.09375 -14.125 C -0.6875 -14.90625 -1.046875 -15.894531 -1.171875 -17.09375 C -1.203125 -17.351562 -1.097656 -17.5625 -0.859375 -17.71875 C -0.628906 -17.882812 -0.332031 -18 0.03125 -18.0625 C 0.40625 -18.132812 0.773438 -18.148438 1.140625 -18.109375 C 1.515625 -18.066406 1.832031 -17.96875 2.09375 -17.8125 C 2.363281 -17.65625 2.515625 -17.441406 2.546875 -17.171875 C 2.597656 -16.710938 2.703125 -16.234375 2.859375 -15.734375 C 3.015625 -15.242188 3.25 -14.820312 3.5625 -14.46875 C 3.882812 -14.125 4.316406 -13.925781 4.859375 -13.875 C 5.203125 -13.84375 5.546875 -13.890625 5.890625 -14.015625 C 6.242188 -14.140625 6.546875 -14.320312 6.796875 -14.5625 C 7.054688 -14.8125 7.222656 -15.125 7.296875 -15.5 C 7.367188 -15.875 7.300781 -16.296875 7.09375 -16.765625 C 6.925781 -17.160156 6.679688 -17.5 6.359375 -17.78125 C 6.035156 -18.070312 5.6875 -18.332031 5.3125 -18.5625 C 4.9375 -18.789062 4.570312 -19.015625 4.21875 -19.234375 C 3.726562 -19.546875 3.242188 -19.878906 2.765625 -20.234375 C 2.285156 -20.597656 1.835938 -20.984375 1.421875 -21.390625 C 0.609375 -22.191406 -0.0664062 -23.097656 -0.609375 -24.109375 C -1.148438 -25.128906 -1.445312 -26.226562 -1.5 -27.40625 C -1.539062 -28.34375 -1.425781 -29.265625 -1.15625 -30.171875 C -0.882812 -31.078125 -0.484375 -31.910156 0.046875 -32.671875 C 0.585938 -33.441406 1.222656 -34.085938 1.953125 -34.609375 C 2.691406 -35.128906 3.507812 -35.476562 4.40625 -35.65625 C 5.3125 -35.832031 6.257812 -35.789062 7.25 -35.53125 C 8.34375 -35.238281 9.226562 -34.773438 9.90625 -34.140625 C 10.59375 -33.515625 11.097656 -32.78125 11.421875 -31.9375 C 11.753906 -31.09375 11.921875 -30.191406 11.921875 -29.234375 C 11.929688 -28.285156 11.800781 -27.335938 11.53125 -26.390625 C 11.269531 -25.453125 10.890625 -24.570312 10.390625 -23.75 Z M 10.390625 -23.75 "/></g></g></g><g fill="#ffffff" fill-opacity="1"><g transform="translate(463.564155, 63.499967)"><g><path d="M 18.453125 -27.953125 C 18.691406 -27.953125 18.875 -27.898438 19 -27.796875 C 19.132812 -27.691406 19.179688 -27.578125 19.140625 -27.453125 C 19.097656 -27.335938 18.941406 -27.253906 18.671875 -27.203125 C 18.085938 -27.085938 17.460938 -26.957031 16.796875 -26.8125 C 16.128906 -26.675781 15.335938 -26.429688 14.421875 -26.078125 C 14.398438 -25.265625 14.328125 -24.453125 14.203125 -23.640625 C 14.085938 -22.835938 13.9375 -22.046875 13.75 -21.265625 C 13.382812 -19.785156 12.878906 -18.363281 12.234375 -17 C 11.984375 -16.476562 11.695312 -15.929688 11.375 -15.359375 C 11.0625 -14.785156 10.65625 -14.328125 10.15625 -13.984375 C 9.789062 -13.734375 9.367188 -13.539062 8.890625 -13.40625 C 8.410156 -13.269531 7.929688 -13.210938 7.453125 -13.234375 C 6.972656 -13.265625 6.546875 -13.398438 6.171875 -13.640625 C 5.796875 -13.878906 5.53125 -14.257812 5.375 -14.78125 C 5.175781 -15.382812 5.101562 -16.007812 5.15625 -16.65625 C 5.21875 -17.300781 5.363281 -17.941406 5.59375 -18.578125 C 5.820312 -19.210938 6.09375 -19.828125 6.40625 -20.421875 C 6.71875 -21.015625 7.035156 -21.550781 7.359375 -22.03125 C 7.804688 -22.6875 8.304688 -23.289062 8.859375 -23.84375 C 9.421875 -24.394531 10.03125 -24.898438 10.6875 -25.359375 C 10.75 -26.085938 10.773438 -26.851562 10.765625 -27.65625 C 10.765625 -28.46875 10.679688 -29.242188 10.515625 -29.984375 C 10.359375 -30.734375 10.078125 -31.378906 9.671875 -31.921875 C 9.359375 -32.347656 9.046875 -32.566406 8.734375 -32.578125 C 8.421875 -32.585938 8.109375 -32.472656 7.796875 -32.234375 C 7.484375 -31.992188 7.148438 -31.691406 6.796875 -31.328125 C 6.328125 -30.847656 5.90625 -30.3125 5.53125 -29.71875 C 5.15625 -29.132812 4.816406 -28.539062 4.515625 -27.9375 C 4.015625 -26.925781 3.59375 -25.894531 3.25 -24.84375 C 2.90625 -23.789062 2.609375 -22.722656 2.359375 -21.640625 C 2.335938 -20.453125 2.316406 -19.265625 2.296875 -18.078125 C 2.285156 -16.898438 2.28125 -15.71875 2.28125 -14.53125 C 2.269531 -12.71875 2.28125 -10.910156 2.3125 -9.109375 C 2.34375 -7.304688 2.382812 -5.5 2.4375 -3.6875 C 2.46875 -2.820312 2.5 -1.953125 2.53125 -1.078125 C 2.570312 -0.203125 2.613281 0.675781 2.65625 1.5625 C 2.6875 2.070312 2.710938 2.613281 2.734375 3.1875 C 2.765625 3.769531 2.773438 4.347656 2.765625 4.921875 C 2.753906 5.492188 2.71875 6.015625 2.65625 6.484375 C 2.632812 6.679688 2.507812 6.800781 2.28125 6.84375 C 2.050781 6.894531 1.769531 6.882812 1.4375 6.8125 C 1.113281 6.738281 0.789062 6.628906 0.46875 6.484375 C 0.144531 6.335938 -0.128906 6.171875 -0.359375 5.984375 C -0.597656 5.804688 -0.738281 5.628906 -0.78125 5.453125 C -0.945312 4.765625 -1.03125 4.101562 -1.03125 3.46875 C -1.03125 2.832031 -1.050781 2.117188 -1.09375 1.328125 C -1.132812 0.441406 -1.171875 -0.4375 -1.203125 -1.3125 C -1.242188 -2.1875 -1.28125 -3.054688 -1.3125 -3.921875 C -1.363281 -5.679688 -1.398438 -7.4375 -1.421875 -9.1875 C -1.453125 -10.9375 -1.46875 -12.691406 -1.46875 -14.453125 C -1.457031 -16.265625 -1.4375 -18.066406 -1.40625 -19.859375 C -1.382812 -21.660156 -1.335938 -23.46875 -1.265625 -25.28125 C -1.234375 -26.164062 -1.195312 -27.039062 -1.15625 -27.90625 C -1.113281 -28.78125 -1.0625 -29.65625 -1 -30.53125 C -0.945312 -31.113281 -0.921875 -31.601562 -0.921875 -32 C -0.921875 -32.394531 -0.898438 -32.738281 -0.859375 -33.03125 C -0.816406 -33.332031 -0.734375 -33.617188 -0.609375 -33.890625 C -0.460938 -34.160156 -0.222656 -34.3125 0.109375 -34.34375 C 0.453125 -34.375 0.816406 -34.328125 1.203125 -34.203125 C 1.585938 -34.085938 1.921875 -33.929688 2.203125 -33.734375 C 2.492188 -33.535156 2.648438 -33.335938 2.671875 -33.140625 C 2.722656 -32.847656 2.75 -32.601562 2.75 -32.40625 C 2.75 -32.207031 2.738281 -31.957031 2.71875 -31.65625 C 2.707031 -31.363281 2.6875 -30.910156 2.65625 -30.296875 C 2.644531 -29.671875 2.625 -29.046875 2.59375 -28.421875 C 2.570312 -27.796875 2.546875 -27.171875 2.515625 -26.546875 C 2.765625 -27.316406 3.039062 -28.054688 3.34375 -28.765625 C 3.65625 -29.484375 4.003906 -30.179688 4.390625 -30.859375 C 4.671875 -31.316406 5.019531 -31.828125 5.4375 -32.390625 C 5.851562 -32.960938 6.269531 -33.421875 6.6875 -33.765625 C 7.113281 -34.117188 7.59375 -34.351562 8.125 -34.46875 C 8.65625 -34.59375 9.179688 -34.628906 9.703125 -34.578125 C 10.609375 -34.484375 11.363281 -34.210938 11.96875 -33.765625 C 12.582031 -33.316406 13.070312 -32.742188 13.4375 -32.046875 C 13.8125 -31.347656 14.066406 -30.582031 14.203125 -29.75 C 14.265625 -29.332031 14.3125 -28.910156 14.34375 -28.484375 C 14.375 -28.066406 14.398438 -27.640625 14.421875 -27.203125 C 15.148438 -27.453125 15.804688 -27.632812 16.390625 -27.75 C 16.984375 -27.875 17.671875 -27.941406 18.453125 -27.953125 Z M 8.125 -16.484375 C 9.351562 -18.722656 10.140625 -21.117188 10.484375 -23.671875 C 9.953125 -23.160156 9.453125 -22.570312 8.984375 -21.90625 C 8.515625 -21.25 8.097656 -20.476562 7.734375 -19.59375 C 7.484375 -18.988281 7.273438 -18.351562 7.109375 -17.6875 C 6.953125 -17.03125 6.921875 -16.375 7.015625 -15.71875 C 7.035156 -15.53125 7.050781 -15.378906 7.0625 -15.265625 C 7.070312 -15.148438 7.101562 -15.035156 7.15625 -14.921875 C 7.1875 -14.984375 7.210938 -15.03125 7.234375 -15.0625 C 7.265625 -15.101562 7.304688 -15.148438 7.359375 -15.203125 C 7.492188 -15.421875 7.625 -15.632812 7.75 -15.84375 C 7.875 -16.050781 8 -16.265625 8.125 -16.484375 Z M 8.125 -16.484375 "/></g></g></g><g fill="#ffffff" fill-opacity="1"><g transform="translate(481.843618, 63.499967)"><g><path d="M 7.9375 -24.203125 C 7.570312 -23.585938 7.140625 -23.019531 6.640625 -22.5 C 6.148438 -21.988281 5.59375 -21.585938 4.96875 -21.296875 C 4.351562 -21.015625 3.660156 -20.910156 2.890625 -20.984375 C 2.816406 -20.984375 2.738281 -20.988281 2.65625 -21 C 2.582031 -21.007812 2.503906 -21.019531 2.421875 -21.03125 C 2.472656 -20.320312 2.570312 -19.628906 2.71875 -18.953125 C 2.875 -18.273438 3.097656 -17.664062 3.390625 -17.125 C 3.691406 -16.582031 4.085938 -16.140625 4.578125 -15.796875 C 5.078125 -15.460938 5.6875 -15.28125 6.40625 -15.25 C 7.03125 -15.226562 7.617188 -15.375 8.171875 -15.6875 C 8.722656 -16 9.234375 -16.410156 9.703125 -16.921875 C 10.171875 -17.441406 10.597656 -17.988281 10.984375 -18.5625 C 11.378906 -19.132812 11.734375 -19.671875 12.046875 -20.171875 C 12.148438 -20.347656 12.296875 -20.628906 12.484375 -21.015625 C 12.679688 -21.410156 12.890625 -21.863281 13.109375 -22.375 C 13.328125 -22.882812 13.539062 -23.414062 13.75 -23.96875 C 13.96875 -24.53125 14.160156 -25.078125 14.328125 -25.609375 C 14.492188 -26.140625 14.613281 -26.609375 14.6875 -27.015625 C 14.738281 -27.285156 14.851562 -27.457031 15.03125 -27.53125 C 15.207031 -27.613281 15.367188 -27.609375 15.515625 -27.515625 C 15.671875 -27.429688 15.710938 -27.257812 15.640625 -27 C 15.484375 -26.300781 15.257812 -25.507812 14.96875 -24.625 C 14.675781 -23.738281 14.34375 -22.832031 13.96875 -21.90625 C 13.59375 -20.976562 13.195312 -20.078125 12.78125 -19.203125 C 12.257812 -18.097656 11.648438 -17.09375 10.953125 -16.1875 C 10.253906 -15.28125 9.488281 -14.550781 8.65625 -14 C 7.832031 -13.457031 6.953125 -13.15625 6.015625 -13.09375 C 5.140625 -13.019531 4.296875 -13.097656 3.484375 -13.328125 C 2.671875 -13.566406 1.945312 -13.953125 1.3125 -14.484375 C 0.675781 -15.023438 0.160156 -15.707031 -0.234375 -16.53125 C -0.597656 -17.332031 -0.859375 -18.1875 -1.015625 -19.09375 C -1.171875 -20.007812 -1.25 -20.9375 -1.25 -21.875 C -1.257812 -22.820312 -1.238281 -23.726562 -1.1875 -24.59375 C -1.15625 -25.289062 -1.0625 -26.0625 -0.90625 -26.90625 C -0.757812 -27.75 -0.546875 -28.601562 -0.265625 -29.46875 C 0.00390625 -30.34375 0.34375 -31.179688 0.75 -31.984375 C 1.164062 -32.796875 1.648438 -33.519531 2.203125 -34.15625 C 2.765625 -34.800781 3.40625 -35.3125 4.125 -35.6875 C 4.84375 -36.0625 5.644531 -36.25 6.53125 -36.25 C 7.382812 -36.25 8.070312 -36.082031 8.59375 -35.75 C 9.113281 -35.414062 9.492188 -34.957031 9.734375 -34.375 C 9.972656 -33.800781 10.109375 -33.148438 10.140625 -32.421875 C 10.179688 -31.703125 10.132812 -30.945312 10 -30.15625 C 9.875 -29.375 9.691406 -28.601562 9.453125 -27.84375 C 9.222656 -27.09375 8.972656 -26.398438 8.703125 -25.765625 C 8.429688 -25.140625 8.175781 -24.617188 7.9375 -24.203125 Z M 2.390625 -22.5 C 2.421875 -22.476562 2.457031 -22.453125 2.5 -22.421875 C 2.539062 -22.398438 2.585938 -22.375 2.640625 -22.34375 C 3.023438 -22.144531 3.382812 -22.101562 3.71875 -22.21875 C 4.0625 -22.332031 4.375 -22.53125 4.65625 -22.8125 C 4.945312 -23.101562 5.203125 -23.421875 5.421875 -23.765625 C 5.648438 -24.109375 5.84375 -24.410156 6 -24.671875 C 6.570312 -25.703125 7.03125 -26.789062 7.375 -27.9375 C 7.71875 -29.082031 7.894531 -30.238281 7.90625 -31.40625 C 7.925781 -31.707031 7.914062 -32.078125 7.875 -32.515625 C 7.84375 -32.960938 7.757812 -33.390625 7.625 -33.796875 C 7.5 -34.210938 7.28125 -34.503906 6.96875 -34.671875 C 6.6875 -34.835938 6.328125 -34.757812 5.890625 -34.4375 C 5.453125 -34.125 5.007812 -33.597656 4.5625 -32.859375 C 4.113281 -32.128906 3.710938 -31.210938 3.359375 -30.109375 C 3.003906 -29.003906 2.757812 -27.757812 2.625 -26.375 C 2.582031 -25.957031 2.53125 -25.40625 2.46875 -24.71875 C 2.414062 -24.03125 2.390625 -23.289062 2.390625 -22.5 Z M 2.390625 -22.5 "/></g></g></g><g fill="#ffffff" fill-opacity="1"><g transform="translate(496.685918, 63.499967)"><g><path d="M 9.265625 -25.09375 C 8.660156 -24.5 8.054688 -24.109375 7.453125 -23.921875 C 6.847656 -23.742188 6.210938 -23.875 5.546875 -24.3125 C 5.265625 -24.507812 5.0625 -24.765625 4.9375 -25.078125 C 4.8125 -25.390625 4.757812 -25.703125 4.78125 -26.015625 C 4.8125 -26.328125 4.898438 -26.582031 5.046875 -26.78125 C 5.097656 -26.820312 5.210938 -26.847656 5.390625 -26.859375 C 5.578125 -26.867188 5.765625 -26.859375 5.953125 -26.828125 C 6.148438 -26.804688 6.300781 -26.765625 6.40625 -26.703125 C 6.519531 -26.640625 6.535156 -26.535156 6.453125 -26.390625 C 6.347656 -26.234375 6.296875 -26.054688 6.296875 -25.859375 C 6.304688 -25.660156 6.375 -25.492188 6.5 -25.359375 C 6.625 -25.222656 6.800781 -25.15625 7.03125 -25.15625 C 7.269531 -25.164062 7.484375 -25.320312 7.671875 -25.625 C 7.859375 -25.925781 8.019531 -26.316406 8.15625 -26.796875 C 8.300781 -27.273438 8.414062 -27.785156 8.5 -28.328125 C 8.59375 -28.878906 8.640625 -29.40625 8.640625 -29.90625 C 8.640625 -30.414062 8.59375 -30.84375 8.5 -31.1875 C 8.414062 -31.53125 8.285156 -31.734375 8.109375 -31.796875 C 7.691406 -31.953125 7.257812 -31.882812 6.8125 -31.59375 C 6.363281 -31.300781 5.925781 -30.828125 5.5 -30.171875 C 5.070312 -29.523438 4.671875 -28.726562 4.296875 -27.78125 C 3.929688 -26.84375 3.613281 -25.796875 3.34375 -24.640625 C 3.070312 -23.484375 2.867188 -22.269531 2.734375 -21 C 2.503906 -19.695312 2.390625 -18.320312 2.390625 -16.875 C 2.398438 -15.425781 2.398438 -14.023438 2.390625 -12.671875 C 2.390625 -12.617188 2.390625 -12.5625 2.390625 -12.5 C 2.398438 -12.4375 2.40625 -12.378906 2.40625 -12.328125 L 2.390625 -12.328125 C 2.390625 -12.234375 2.382812 -12.140625 2.375 -12.046875 C 2.363281 -11.960938 2.359375 -11.875 2.359375 -11.78125 C 2.347656 -11.519531 2.222656 -11.320312 1.984375 -11.1875 C 1.753906 -11.0625 1.460938 -10.992188 1.109375 -10.984375 C 0.765625 -10.984375 0.414062 -11.035156 0.0625 -11.140625 C -0.289062 -11.242188 -0.585938 -11.390625 -0.828125 -11.578125 C -1.066406 -11.765625 -1.195312 -11.988281 -1.21875 -12.25 C -1.300781 -14.1875 -1.378906 -16.117188 -1.453125 -18.046875 C -1.535156 -19.972656 -1.585938 -21.898438 -1.609375 -23.828125 C -1.609375 -24.796875 -1.59375 -25.765625 -1.5625 -26.734375 C -1.539062 -27.703125 -1.503906 -28.660156 -1.453125 -29.609375 C -1.410156 -30.191406 -1.351562 -30.804688 -1.28125 -31.453125 C -1.21875 -32.097656 -1.117188 -32.707031 -0.984375 -33.28125 C -0.859375 -33.851562 -0.691406 -34.316406 -0.484375 -34.671875 C -0.378906 -34.847656 -0.195312 -34.992188 0.0625 -35.109375 C 0.320312 -35.222656 0.601562 -35.296875 0.90625 -35.328125 C 1.21875 -35.359375 1.507812 -35.34375 1.78125 -35.28125 C 2.0625 -35.226562 2.285156 -35.125 2.453125 -34.96875 C 2.617188 -34.820312 2.675781 -34.625 2.625 -34.375 C 2.425781 -33.375 2.3125 -32.460938 2.28125 -31.640625 C 2.25 -30.816406 2.207031 -29.957031 2.15625 -29.0625 C 2.132812 -28.550781 2.113281 -28.035156 2.09375 -27.515625 C 2.082031 -26.992188 2.066406 -26.472656 2.046875 -25.953125 C 2.117188 -26.148438 2.1875 -26.34375 2.25 -26.53125 C 2.320312 -26.71875 2.398438 -26.910156 2.484375 -27.109375 C 2.816406 -27.972656 3.175781 -28.847656 3.5625 -29.734375 C 3.957031 -30.617188 4.398438 -31.429688 4.890625 -32.171875 C 5.390625 -32.910156 5.945312 -33.5 6.5625 -33.9375 C 7.1875 -34.375 7.894531 -34.570312 8.6875 -34.53125 C 9.226562 -34.507812 9.664062 -34.3125 10 -33.9375 C 10.34375 -33.5625 10.59375 -33.082031 10.75 -32.5 C 10.914062 -31.914062 11 -31.273438 11 -30.578125 C 11.007812 -29.878906 10.945312 -29.175781 10.8125 -28.46875 C 10.675781 -27.769531 10.476562 -27.125 10.21875 -26.53125 C 9.957031 -25.9375 9.640625 -25.457031 9.265625 -25.09375 Z M 9.265625 -25.09375 "/></g></g></g><g fill="#ffffff" fill-opacity="1"><g transform="translate(509.614353, 63.499967)"><g><path d="M 4.421875 -43.609375 C 4.140625 -42.234375 3.890625 -40.84375 3.671875 -39.4375 C 3.453125 -38.039062 3.257812 -36.640625 3.09375 -35.234375 C 2.988281 -34.640625 2.898438 -33.640625 2.828125 -32.234375 C 2.753906 -30.835938 2.691406 -29.03125 2.640625 -26.8125 C 2.609375 -25.394531 2.664062 -23.988281 2.8125 -22.59375 C 2.96875 -21.207031 3.207031 -19.816406 3.53125 -18.421875 C 3.6875 -17.796875 3.878906 -17.1875 4.109375 -16.59375 C 4.347656 -16 4.632812 -15.421875 4.96875 -14.859375 C 5.15625 -14.523438 5.351562 -14.273438 5.5625 -14.109375 C 5.800781 -13.921875 6.109375 -13.832031 6.484375 -13.84375 C 7.109375 -13.9375 7.707031 -14.601562 8.28125 -15.84375 C 8.832031 -17.082031 9.320312 -18.507812 9.75 -20.125 C 9.96875 -20.925781 10.164062 -21.6875 10.34375 -22.40625 C 10.519531 -23.125 10.671875 -23.796875 10.796875 -24.421875 C 10.898438 -24.890625 10.992188 -25.28125 11.078125 -25.59375 C 11.171875 -25.90625 11.242188 -26.144531 11.296875 -26.3125 C 11.398438 -26.625 11.535156 -26.785156 11.703125 -26.796875 C 11.867188 -26.804688 12.007812 -26.742188 12.125 -26.609375 C 12.25 -26.429688 12.273438 -26.207031 12.203125 -25.9375 C 12.128906 -25.570312 12.050781 -25.207031 11.96875 -24.84375 C 11.894531 -24.488281 11.816406 -24.128906 11.734375 -23.765625 C 11.523438 -22.765625 11.3125 -21.789062 11.09375 -20.84375 C 10.875 -19.90625 10.644531 -18.992188 10.40625 -18.109375 C 9.9375 -16.335938 9.382812 -14.878906 8.75 -13.734375 C 8.101562 -12.578125 7.328125 -11.921875 6.421875 -11.765625 C 4.703125 -11.566406 3.347656 -12 2.359375 -13.0625 C 1.359375 -14.144531 0.617188 -15.539062 0.140625 -17.25 C -0.347656 -18.9375 -0.660156 -20.660156 -0.796875 -22.421875 C -0.953125 -24.171875 -1.03125 -25.609375 -1.03125 -26.734375 C -1.113281 -30.210938 -0.921875 -33.753906 -0.453125 -37.359375 C -0.304688 -38.484375 -0.128906 -39.585938 0.078125 -40.671875 C 0.285156 -41.765625 0.523438 -42.84375 0.796875 -43.90625 C 0.765625 -43.914062 0.722656 -43.921875 0.671875 -43.921875 C 0.628906 -43.921875 0.585938 -43.921875 0.546875 -43.921875 C -0.867188 -43.972656 -1.929688 -43.859375 -2.640625 -43.578125 C -2.679688 -43.566406 -2.710938 -43.628906 -2.734375 -43.765625 C -2.742188 -43.890625 -2.734375 -44.0625 -2.703125 -44.28125 C -2.679688 -44.445312 -2.613281 -44.609375 -2.5 -44.765625 C -2.164062 -45.085938 -1.488281 -45.25 -0.46875 -45.25 C -0.21875 -45.238281 0.0390625 -45.226562 0.3125 -45.21875 C 0.582031 -45.21875 0.863281 -45.210938 1.15625 -45.203125 C 1.28125 -45.617188 1.40625 -46.035156 1.53125 -46.453125 C 1.664062 -46.878906 1.804688 -47.300781 1.953125 -47.71875 C 2.828125 -50.113281 3.597656 -51.789062 4.265625 -52.75 C 4.953125 -53.738281 5.566406 -54.347656 6.109375 -54.578125 C 6.296875 -54.640625 6.484375 -54.675781 6.671875 -54.6875 C 6.867188 -54.695312 7.0625 -54.691406 7.25 -54.671875 C 7.625 -54.585938 7.9375 -54.429688 8.1875 -54.203125 C 8.25 -54.109375 8.28125 -54.023438 8.28125 -53.953125 C 8.257812 -53.828125 8.210938 -53.738281 8.140625 -53.6875 C 7.617188 -53.25 7.109375 -52.390625 6.609375 -51.109375 C 6.097656 -49.847656 5.644531 -48.503906 5.25 -47.078125 C 5.144531 -46.671875 5.046875 -46.285156 4.953125 -45.921875 C 4.859375 -45.566406 4.769531 -45.234375 4.6875 -44.921875 C 5.1875 -44.898438 5.671875 -44.878906 6.140625 -44.859375 C 6.617188 -44.835938 7.09375 -44.832031 7.5625 -44.84375 C 9.039062 -44.84375 10.191406 -45.117188 11.015625 -45.671875 C 11.015625 -45.648438 11.019531 -45.640625 11.03125 -45.640625 C 11.03125 -45.640625 11.03125 -45.632812 11.03125 -45.625 C 11.03125 -45.625 11.039062 -45.625 11.0625 -45.625 C 11.0625 -45.601562 11.070312 -45.578125 11.09375 -45.546875 C 11.125 -45.492188 11.148438 -45.441406 11.171875 -45.390625 C 11.203125 -45.335938 11.226562 -45.28125 11.25 -45.21875 C 11.289062 -45.0625 11.304688 -44.898438 11.296875 -44.734375 C 11.273438 -44.535156 11.210938 -44.335938 11.109375 -44.140625 C 11.023438 -43.941406 10.84375 -43.726562 10.5625 -43.5 C 10.21875 -43.28125 9.539062 -43.195312 8.53125 -43.25 C 8.007812 -43.269531 7.457031 -43.304688 6.875 -43.359375 C 6.289062 -43.410156 5.660156 -43.476562 4.984375 -43.5625 C 4.890625 -43.570312 4.796875 -43.578125 4.703125 -43.578125 C 4.617188 -43.585938 4.523438 -43.597656 4.421875 -43.609375 Z M 4.421875 -43.609375 "/></g></g></g><g fill="#ffffff" fill-opacity="1"><g transform="translate(520.804659, 63.499967)"><g><path d="M 15.640625 -27.5 C 15.660156 -27.5625 15.738281 -27.597656 15.875 -27.609375 C 16.019531 -27.628906 16.164062 -27.625 16.3125 -27.59375 C 16.457031 -27.570312 16.519531 -27.53125 16.5 -27.46875 C 16.3125 -25.832031 16.050781 -24.195312 15.71875 -22.5625 C 15.382812 -20.9375 14.9375 -19.347656 14.375 -17.796875 C 14.164062 -17.210938 13.929688 -16.613281 13.671875 -16 C 13.410156 -15.394531 13.09375 -14.859375 12.71875 -14.390625 C 12.351562 -13.921875 11.894531 -13.585938 11.34375 -13.390625 C 10.800781 -13.191406 10.140625 -13.195312 9.359375 -13.40625 C 8.722656 -13.582031 8.222656 -13.914062 7.859375 -14.40625 C 7.492188 -14.90625 7.222656 -15.492188 7.046875 -16.171875 C 6.867188 -16.847656 6.75 -17.539062 6.6875 -18.25 C 6.550781 -17.832031 6.40625 -17.414062 6.25 -17 C 6.101562 -16.59375 5.941406 -16.191406 5.765625 -15.796875 C 5.523438 -15.265625 5.238281 -14.757812 4.90625 -14.28125 C 4.582031 -13.8125 4.207031 -13.414062 3.78125 -13.09375 C 3.351562 -12.78125 2.875 -12.578125 2.34375 -12.484375 C 1.820312 -12.398438 1.238281 -12.484375 0.59375 -12.734375 C 0.03125 -12.953125 -0.414062 -13.28125 -0.75 -13.71875 C -1.09375 -14.15625 -1.351562 -14.644531 -1.53125 -15.1875 C -1.707031 -15.738281 -1.832031 -16.304688 -1.90625 -16.890625 C -1.976562 -17.484375 -2.023438 -18.039062 -2.046875 -18.5625 C -2.128906 -19.945312 -2.09375 -21.328125 -1.9375 -22.703125 C -1.78125 -24.078125 -1.519531 -25.4375 -1.15625 -26.78125 C -1 -27.351562 -0.816406 -27.96875 -0.609375 -28.625 C -0.410156 -29.28125 -0.175781 -29.929688 0.09375 -30.578125 C 0.375 -31.222656 0.695312 -31.820312 1.0625 -32.375 C 1.425781 -32.9375 1.851562 -33.414062 2.34375 -33.8125 C 2.71875 -34.113281 3.148438 -34.34375 3.640625 -34.5 C 4.140625 -34.664062 4.648438 -34.75 5.171875 -34.75 C 5.691406 -34.75 6.191406 -34.660156 6.671875 -34.484375 C 7.160156 -34.304688 7.570312 -34.03125 7.90625 -33.65625 C 7.9375 -33.625 7.960938 -33.59375 7.984375 -33.5625 C 8.015625 -33.53125 8.039062 -33.492188 8.0625 -33.453125 C 8.445312 -33.554688 8.835938 -33.59375 9.234375 -33.5625 C 9.640625 -33.539062 9.984375 -33.453125 10.265625 -33.296875 C 10.546875 -33.140625 10.671875 -32.921875 10.640625 -32.640625 C 10.515625 -30.828125 10.394531 -29 10.28125 -27.15625 C 10.175781 -25.3125 10.148438 -23.472656 10.203125 -21.640625 C 10.253906 -19.816406 10.453125 -18.007812 10.796875 -16.21875 C 10.816406 -16.082031 10.84375 -15.945312 10.875 -15.8125 C 10.90625 -15.675781 10.941406 -15.539062 10.984375 -15.40625 C 11.117188 -15.582031 11.25 -15.753906 11.375 -15.921875 C 11.5 -16.085938 11.613281 -16.253906 11.71875 -16.421875 C 12.082031 -16.960938 12.410156 -17.507812 12.703125 -18.0625 C 12.992188 -18.625 13.265625 -19.195312 13.515625 -19.78125 C 14.046875 -21.019531 14.484375 -22.28125 14.828125 -23.5625 C 15.179688 -24.84375 15.453125 -26.15625 15.640625 -27.5 Z M 5 -22.46875 C 5.351562 -23.695312 5.640625 -24.941406 5.859375 -26.203125 C 6.078125 -27.460938 6.289062 -28.722656 6.5 -29.984375 C 6.414062 -30.242188 6.300781 -30.5 6.15625 -30.75 C 6.019531 -30.96875 5.894531 -31.1875 5.78125 -31.40625 C 5.664062 -31.625 5.535156 -31.835938 5.390625 -32.046875 C 5.335938 -32.128906 5.28125 -32.207031 5.21875 -32.28125 C 5.164062 -32.363281 5.109375 -32.441406 5.046875 -32.515625 C 4.953125 -32.378906 4.863281 -32.238281 4.78125 -32.09375 C 4.695312 -31.945312 4.613281 -31.800781 4.53125 -31.65625 C 4.40625 -31.4375 4.28125 -31.207031 4.15625 -30.96875 C 4.039062 -30.726562 3.929688 -30.484375 3.828125 -30.234375 C 3.359375 -29.222656 2.96875 -28.1875 2.65625 -27.125 C 2.300781 -25.976562 2.035156 -24.800781 1.859375 -23.59375 C 1.691406 -22.394531 1.609375 -21.195312 1.609375 -20 C 1.609375 -19.46875 1.617188 -18.929688 1.640625 -18.390625 C 1.671875 -17.847656 1.726562 -17.3125 1.8125 -16.78125 C 1.84375 -16.625 1.890625 -16.375 1.953125 -16.03125 C 2.015625 -15.6875 2.109375 -15.359375 2.234375 -15.046875 C 2.460938 -15.367188 2.671875 -15.738281 2.859375 -16.15625 C 3.046875 -16.582031 3.210938 -16.988281 3.359375 -17.375 C 3.515625 -17.757812 3.625 -18.039062 3.6875 -18.21875 C 3.945312 -18.914062 4.179688 -19.617188 4.390625 -20.328125 C 4.597656 -21.035156 4.800781 -21.75 5 -22.46875 Z M 5 -22.46875 "/></g></g></g><g fill="#ffffff" fill-opacity="1"><g transform="translate(536.564866, 63.499967)"><g><path d="M 9.265625 -25.09375 C 8.660156 -24.5 8.054688 -24.109375 7.453125 -23.921875 C 6.847656 -23.742188 6.210938 -23.875 5.546875 -24.3125 C 5.265625 -24.507812 5.0625 -24.765625 4.9375 -25.078125 C 4.8125 -25.390625 4.757812 -25.703125 4.78125 -26.015625 C 4.8125 -26.328125 4.898438 -26.582031 5.046875 -26.78125 C 5.097656 -26.820312 5.210938 -26.847656 5.390625 -26.859375 C 5.578125 -26.867188 5.765625 -26.859375 5.953125 -26.828125 C 6.148438 -26.804688 6.300781 -26.765625 6.40625 -26.703125 C 6.519531 -26.640625 6.535156 -26.535156 6.453125 -26.390625 C 6.347656 -26.234375 6.296875 -26.054688 6.296875 -25.859375 C 6.304688 -25.660156 6.375 -25.492188 6.5 -25.359375 C 6.625 -25.222656 6.800781 -25.15625 7.03125 -25.15625 C 7.269531 -25.164062 7.484375 -25.320312 7.671875 -25.625 C 7.859375 -25.925781 8.019531 -26.316406 8.15625 -26.796875 C 8.300781 -27.273438 8.414062 -27.785156 8.5 -28.328125 C 8.59375 -28.878906 8.640625 -29.40625 8.640625 -29.90625 C 8.640625 -30.414062 8.59375 -30.84375 8.5 -31.1875 C 8.414062 -31.53125 8.285156 -31.734375 8.109375 -31.796875 C 7.691406 -31.953125 7.257812 -31.882812 6.8125 -31.59375 C 6.363281 -31.300781 5.925781 -30.828125 5.5 -30.171875 C 5.070312 -29.523438 4.671875 -28.726562 4.296875 -27.78125 C 3.929688 -26.84375 3.613281 -25.796875 3.34375 -24.640625 C 3.070312 -23.484375 2.867188 -22.269531 2.734375 -21 C 2.503906 -19.695312 2.390625 -18.320312 2.390625 -16.875 C 2.398438 -15.425781 2.398438 -14.023438 2.390625 -12.671875 C 2.390625 -12.617188 2.390625 -12.5625 2.390625 -12.5 C 2.398438 -12.4375 2.40625 -12.378906 2.40625 -12.328125 L 2.390625 -12.328125 C 2.390625 -12.234375 2.382812 -12.140625 2.375 -12.046875 C 2.363281 -11.960938 2.359375 -11.875 2.359375 -11.78125 C 2.347656 -11.519531 2.222656 -11.320312 1.984375 -11.1875 C 1.753906 -11.0625 1.460938 -10.992188 1.109375 -10.984375 C 0.765625 -10.984375 0.414062 -11.035156 0.0625 -11.140625 C -0.289062 -11.242188 -0.585938 -11.390625 -0.828125 -11.578125 C -1.066406 -11.765625 -1.195312 -11.988281 -1.21875 -12.25 C -1.300781 -14.1875 -1.378906 -16.117188 -1.453125 -18.046875 C -1.535156 -19.972656 -1.585938 -21.898438 -1.609375 -23.828125 C -1.609375 -24.796875 -1.59375 -25.765625 -1.5625 -26.734375 C -1.539062 -27.703125 -1.503906 -28.660156 -1.453125 -29.609375 C -1.410156 -30.191406 -1.351562 -30.804688 -1.28125 -31.453125 C -1.21875 -32.097656 -1.117188 -32.707031 -0.984375 -33.28125 C -0.859375 -33.851562 -0.691406 -34.316406 -0.484375 -34.671875 C -0.378906 -34.847656 -0.195312 -34.992188 0.0625 -35.109375 C 0.320312 -35.222656 0.601562 -35.296875 0.90625 -35.328125 C 1.21875 -35.359375 1.507812 -35.34375 1.78125 -35.28125 C 2.0625 -35.226562 2.285156 -35.125 2.453125 -34.96875 C 2.617188 -34.820312 2.675781 -34.625 2.625 -34.375 C 2.425781 -33.375 2.3125 -32.460938 2.28125 -31.640625 C 2.25 -30.816406 2.207031 -29.957031 2.15625 -29.0625 C 2.132812 -28.550781 2.113281 -28.035156 2.09375 -27.515625 C 2.082031 -26.992188 2.066406 -26.472656 2.046875 -25.953125 C 2.117188 -26.148438 2.1875 -26.34375 2.25 -26.53125 C 2.320312 -26.71875 2.398438 -26.910156 2.484375 -27.109375 C 2.816406 -27.972656 3.175781 -28.847656 3.5625 -29.734375 C 3.957031 -30.617188 4.398438 -31.429688 4.890625 -32.171875 C 5.390625 -32.910156 5.945312 -33.5 6.5625 -33.9375 C 7.1875 -34.375 7.894531 -34.570312 8.6875 -34.53125 C 9.226562 -34.507812 9.664062 -34.3125 10 -33.9375 C 10.34375 -33.5625 10.59375 -33.082031 10.75 -32.5 C 10.914062 -31.914062 11 -31.273438 11 -30.578125 C 11.007812 -29.878906 10.945312 -29.175781 10.8125 -28.46875 C 10.675781 -27.769531 10.476562 -27.125 10.21875 -26.53125 C 9.957031 -25.9375 9.640625 -25.457031 9.265625 -25.09375 Z M 9.265625 -25.09375 "/></g></g></g></svg>