<svg xmlns="http://www.w3.org/2000/svg" xmlns:xlink="http://www.w3.org/1999/xlink" width="500" zoomAndPan="magnify" viewBox="0 0 375 374.999991" height="500" preserveAspectRatio="xMidYMid meet" version="1.0"><defs><clipPath id="629ffe147e"><path d="M 152.078125 112.5 L 222.578125 112.5 L 222.578125 262.5 L 152.078125 262.5 Z M 152.078125 112.5 " clip-rule="nonzero"/></clipPath><clipPath id="fc93138811"><path d="M 187.5 0 C 83.945312 0 0 83.945312 0 187.5 C 0 291.054688 83.945312 375 187.5 375 C 291.054688 375 375 291.054688 375 187.5 C 375 83.945312 291.054688 0 187.5 0 Z M 187.5 0 " clip-rule="nonzero"/></clipPath><clipPath id="5c0c147cc2"><path d="M 18.75 18.75 L 356.25 18.75 L 356.25 356.25 L 18.75 356.25 Z M 18.75 18.75 " clip-rule="nonzero"/></clipPath><clipPath id="dc2a37505d"><path d="M 187.5 18.75 C 94.300781 18.75 18.75 94.300781 18.75 187.5 C 18.75 280.699219 94.300781 356.25 187.5 356.25 C 280.699219 356.25 356.25 280.699219 356.25 187.5 C 356.25 94.300781 280.699219 18.75 187.5 18.75 Z M 187.5 18.75 " clip-rule="nonzero"/></clipPath><clipPath id="0da0d07f0a"><path d="M 127.390625 60.21875 L 247.390625 60.21875 L 247.390625 314.46875 L 127.390625 314.46875 Z M 127.390625 60.21875 " clip-rule="nonzero"/></clipPath></defs><g clip-path="url(#629ffe147e)"><path fill="#ffffff" d="M 206.316406 137.402344 L 222.578125 137.402344 L 222.578125 112.761719 L 201.8125 112.761719 L 201.8125 112.855469 C 174.507812 113.863281 168.875 129.230469 168.40625 145.480469 L 168.34375 145.480469 L 168.34375 162.578125 L 152.078125 162.578125 L 152.078125 187.25 L 168.34375 187.25 L 168.34375 262.238281 L 197.527344 262.238281 L 197.527344 187.25 L 218.449219 187.25 L 222.578125 162.578125 L 197.527344 162.578125 L 197.527344 147.273438 C 197.527344 141.835938 201.15625 137.402344 206.316406 137.402344 Z M 206.316406 137.402344 " fill-opacity="1" fill-rule="nonzero"/></g><g clip-path="url(#fc93138811)"><rect x="-37.5" width="450" fill="#bb8f2f" y="-37.499999" height="449.999989" fill-opacity="1"/></g><g clip-path="url(#5c0c147cc2)"><g clip-path="url(#dc2a37505d)"><path fill="#000000" d="M 18.75 18.75 L 356.25 18.75 L 356.25 356.25 L 18.75 356.25 Z M 18.75 18.75 " fill-opacity="1" fill-rule="nonzero"/></g></g><g clip-path="url(#0da0d07f0a)"><path fill="#bb8f2f" d="M 219.867188 102.484375 L 247.601562 102.484375 L 247.601562 60.671875 L 212.1875 60.671875 L 212.1875 60.832031 C 165.628906 62.539062 156.027344 88.617188 155.230469 116.191406 L 155.121094 116.191406 L 155.121094 145.203125 L 127.390625 145.203125 L 127.390625 187.070312 L 155.121094 187.070312 L 155.121094 314.320312 L 204.882812 314.320312 L 204.882812 187.070312 L 240.558594 187.070312 L 247.601562 145.203125 L 204.882812 145.203125 L 204.882812 119.230469 C 204.882812 110.003906 211.066406 102.484375 219.867188 102.484375 Z M 219.867188 102.484375 " fill-opacity="1" fill-rule="nonzero"/></g></svg>