<svg xmlns="http://www.w3.org/2000/svg" xmlns:xlink="http://www.w3.org/1999/xlink" width="500" zoomAndPan="magnify" viewBox="0 0 375 374.999991" height="500" preserveAspectRatio="xMidYMid meet" version="1.0"><defs><clipPath id="459e11c87c"><path d="M 187.5 0 C 83.945312 0 0 83.945312 0 187.5 C 0 291.054688 83.945312 375 187.5 375 C 291.054688 375 375 291.054688 375 187.5 C 375 83.945312 291.054688 0 187.5 0 Z M 187.5 0 " clip-rule="nonzero"/></clipPath><clipPath id="6fa8e09933"><path d="M 18.75 18.75 L 356.25 18.75 L 356.25 356.25 L 18.75 356.25 Z M 18.75 18.75 " clip-rule="nonzero"/></clipPath><clipPath id="5e54e030ec"><path d="M 187.5 18.75 C 94.300781 18.75 18.75 94.300781 18.75 187.5 C 18.75 280.699219 94.300781 356.25 187.5 356.25 C 280.699219 356.25 356.25 280.699219 356.25 187.5 C 356.25 94.300781 280.699219 18.75 187.5 18.75 Z M 187.5 18.75 " clip-rule="nonzero"/></clipPath><clipPath id="faa30dba9f"><path d="M 75.203125 75.203125 L 299.453125 75.203125 L 299.453125 299.453125 L 75.203125 299.453125 Z M 75.203125 75.203125 " clip-rule="nonzero"/></clipPath></defs><g clip-path="url(#459e11c87c)"><rect x="-37.5" width="450" fill="#bb8f2f" y="-37.499999" height="449.999989" fill-opacity="1"/></g><g clip-path="url(#6fa8e09933)"><g clip-path="url(#5e54e030ec)"><path fill="#000000" d="M 18.75 18.75 L 356.25 18.75 L 356.25 356.25 L 18.75 356.25 Z M 18.75 18.75 " fill-opacity="1" fill-rule="nonzero"/></g></g><g clip-path="url(#faa30dba9f)"><path fill="#bb8f2f" d="M 278.851562 232.839844 C 278.351562 243.785156 276.523438 249.734375 275.003906 253.683594 C 272.960938 258.921875 270.523438 262.667969 266.574219 266.59375 C 262.667969 270.523438 258.921875 272.953125 253.683594 274.972656 C 249.734375 276.515625 243.761719 278.351562 232.816406 278.875 C 220.980469 279.394531 217.472656 279.507812 187.460938 279.507812 C 157.476562 279.507812 153.941406 279.394531 142.109375 278.875 C 131.160156 278.351562 125.21875 276.515625 121.265625 274.972656 C 116 272.953125 112.285156 270.523438 108.355469 266.59375 C 104.398438 262.667969 101.964844 258.921875 99.949219 253.683594 C 98.429688 249.734375 96.570312 243.785156 96.097656 232.839844 C 95.523438 221.003906 95.417969 217.441406 95.417969 187.488281 C 95.417969 157.476562 95.523438 153.941406 96.097656 142.109375 C 96.570312 131.160156 98.429688 125.21875 99.949219 121.234375 C 101.964844 116 104.398438 112.277344 108.355469 108.351562 C 112.285156 104.425781 116 101.992188 121.265625 99.949219 C 125.21875 98.402344 131.160156 96.59375 142.109375 96.070312 C 153.941406 95.550781 157.476562 95.417969 187.460938 95.417969 C 217.472656 95.417969 220.980469 95.550781 232.816406 96.070312 C 243.761719 96.59375 249.734375 98.402344 253.683594 99.949219 C 258.921875 101.992188 262.667969 104.425781 266.574219 108.351562 C 270.523438 112.277344 272.960938 116 275.003906 121.234375 C 276.523438 125.21875 278.351562 131.160156 278.851562 142.109375 C 279.402344 153.941406 279.535156 157.476562 279.535156 187.488281 C 279.535156 217.441406 279.402344 221.003906 278.851562 232.839844 Z M 299.066406 141.1875 C 298.515625 129.222656 296.628906 121.050781 293.828125 113.933594 C 290.976562 106.546875 287.152344 100.289062 280.894531 94.03125 C 274.664062 87.796875 268.40625 83.976562 261.019531 81.089844 C 253.871094 78.316406 245.726562 76.40625 233.757812 75.886719 C 221.789062 75.308594 217.96875 75.203125 187.460938 75.203125 C 156.984375 75.203125 153.132812 75.308594 141.164062 75.886719 C 129.222656 76.40625 121.085938 78.316406 113.90625 81.089844 C 106.546875 83.976562 100.289062 87.796875 94.058594 94.03125 C 87.796875 100.289062 83.976562 106.546875 81.097656 113.933594 C 78.320312 121.050781 76.433594 129.222656 75.859375 141.1875 C 75.335938 153.15625 75.203125 156.984375 75.203125 187.488281 C 75.203125 217.96875 75.335938 221.789062 75.859375 233.757812 C 76.433594 245.699219 78.320312 253.867188 81.097656 261.019531 C 83.976562 268.375 87.796875 274.664062 94.058594 280.894531 C 100.289062 287.125 106.546875 290.976562 113.90625 293.855469 C 121.085938 296.628906 129.222656 298.515625 141.164062 299.066406 C 153.132812 299.617188 156.984375 299.746094 187.460938 299.746094 C 217.96875 299.746094 221.789062 299.617188 233.757812 299.066406 C 245.726562 298.515625 253.871094 296.628906 261.019531 293.855469 C 268.40625 290.976562 274.664062 287.125 280.894531 280.894531 C 287.152344 274.664062 290.976562 268.375 293.828125 261.019531 C 296.628906 253.867188 298.515625 245.699219 299.066406 233.757812 C 299.617188 221.789062 299.746094 217.96875 299.746094 187.488281 C 299.746094 156.984375 299.617188 153.15625 299.066406 141.1875 Z M 299.066406 141.1875 " fill-opacity="1" fill-rule="nonzero"/></g><path fill="#bb8f2f" d="M 187.460938 224.882812 C 166.804688 224.882812 150.042969 208.148438 150.042969 187.488281 C 150.042969 166.796875 166.804688 150.042969 187.460938 150.042969 C 208.125 150.042969 224.910156 166.796875 224.910156 187.488281 C 224.910156 208.148438 208.125 224.882812 187.460938 224.882812 Z M 187.460938 129.800781 C 155.617188 129.800781 129.828125 155.644531 129.828125 187.488281 C 129.828125 219.304688 155.617188 245.121094 187.460938 245.121094 C 219.304688 245.121094 245.121094 219.304688 245.121094 187.488281 C 245.121094 155.644531 219.304688 129.800781 187.460938 129.800781 Z M 187.460938 129.800781 " fill-opacity="1" fill-rule="nonzero"/></svg>