<svg xmlns="http://www.w3.org/2000/svg" xmlns:xlink="http://www.w3.org/1999/xlink" width="1000" zoomAndPan="magnify" viewBox="0 0 750 74.999997" height="100" preserveAspectRatio="xMidYMid meet" version="1.0"><defs><g/></defs><g fill="#ffffff" fill-opacity="1"><g transform="translate(221.027344, 63.499967)"><g><path d="M 8.0625 -40.6875 C 7.726562 -40.257812 7.316406 -39.851562 6.828125 -39.46875 C 6.335938 -39.09375 5.816406 -38.8125 5.265625 -38.625 C 4.722656 -38.4375 4.1875 -38.40625 3.65625 -38.53125 C 3.132812 -38.65625 2.660156 -39.003906 2.234375 -39.578125 C 1.828125 -40.117188 1.546875 -40.75 1.390625 -41.46875 C 1.242188 -42.195312 1.1875 -42.945312 1.21875 -43.71875 C 1.25 -44.5 1.328125 -45.257812 1.453125 -46 C 1.585938 -46.75 1.726562 -47.425781 1.875 -48.03125 C 2.195312 -49.425781 2.628906 -50.851562 3.171875 -52.3125 C 3.710938 -53.769531 4.394531 -55.085938 5.21875 -56.265625 C 5.9375 -57.296875 6.832031 -57.992188 7.90625 -58.359375 C 8.976562 -58.734375 10.113281 -58.695312 11.3125 -58.25 C 12 -57.988281 12.625 -57.601562 13.1875 -57.09375 C 13.75 -56.59375 14.253906 -56.019531 14.703125 -55.375 C 15.148438 -54.738281 15.550781 -54.070312 15.90625 -53.375 C 16.269531 -52.6875 16.59375 -52.03125 16.875 -51.40625 C 17.40625 -50.207031 17.882812 -48.976562 18.3125 -47.71875 C 18.738281 -46.46875 19.097656 -45.203125 19.390625 -43.921875 C 19.753906 -45.398438 20.175781 -46.847656 20.65625 -48.265625 C 21.132812 -49.691406 21.6875 -51.070312 22.3125 -52.40625 C 22.59375 -53.03125 22.921875 -53.664062 23.296875 -54.3125 C 23.679688 -54.957031 24.128906 -55.539062 24.640625 -56.0625 C 25.148438 -56.59375 25.738281 -56.988281 26.40625 -57.25 C 27.082031 -57.507812 27.773438 -57.613281 28.484375 -57.5625 C 29.191406 -57.519531 29.863281 -57.34375 30.5 -57.03125 C 31.132812 -56.71875 31.675781 -56.28125 32.125 -55.71875 C 32.675781 -55.070312 33.144531 -54.34375 33.53125 -53.53125 C 33.914062 -52.726562 34.253906 -51.898438 34.546875 -51.046875 C 34.835938 -50.191406 35.113281 -49.363281 35.375 -48.5625 C 35.800781 -47.28125 36.1875 -45.984375 36.53125 -44.671875 C 36.875 -43.359375 37.175781 -42.035156 37.4375 -40.703125 C 37.976562 -38.003906 38.34375 -35.257812 38.53125 -32.46875 C 38.726562 -29.6875 38.703125 -26.910156 38.453125 -24.140625 C 38.210938 -21.378906 37.703125 -18.671875 36.921875 -16.015625 C 36.148438 -13.367188 35.0625 -10.820312 33.65625 -8.375 C 33.070312 -7.363281 32.414062 -6.367188 31.6875 -5.390625 C 30.957031 -4.410156 30.15625 -3.5 29.28125 -2.65625 C 28.40625 -1.820312 27.453125 -1.09375 26.421875 -0.46875 C 25.398438 0.15625 24.296875 0.625 23.109375 0.9375 C 22.242188 1.15625 21.335938 1.28125 20.390625 1.3125 C 19.441406 1.351562 18.5 1.273438 17.5625 1.078125 C 16.632812 0.890625 15.753906 0.585938 14.921875 0.171875 C 14.085938 -0.242188 13.351562 -0.78125 12.71875 -1.4375 C 12.082031 -2.09375 11.582031 -2.878906 11.21875 -3.796875 C 10.78125 -4.890625 10.5625 -6.015625 10.5625 -7.171875 C 10.5625 -8.335938 10.726562 -9.488281 11.0625 -10.625 C 11.40625 -11.769531 11.867188 -12.859375 12.453125 -13.890625 C 13.046875 -14.929688 13.710938 -15.867188 14.453125 -16.703125 C 15.066406 -17.378906 15.75 -18.007812 16.5 -18.59375 C 16.53125 -18.8125 16.554688 -19.03125 16.578125 -19.25 C 16.609375 -19.46875 16.632812 -19.679688 16.65625 -19.890625 C 16.738281 -20.472656 16.800781 -21.0625 16.84375 -21.65625 C 16.875 -23.007812 16.925781 -24.363281 17 -25.71875 C 17.070312 -27.070312 17.160156 -28.421875 17.265625 -29.765625 C 17.253906 -32.253906 17.113281 -34.734375 16.84375 -37.203125 C 16.582031 -39.679688 16.140625 -42.117188 15.515625 -44.515625 C 15.179688 -45.804688 14.789062 -47.082031 14.34375 -48.34375 C 13.894531 -49.613281 13.363281 -50.84375 12.75 -52.03125 C 12.476562 -52.5625 12.1875 -53.085938 11.875 -53.609375 C 11.5625 -54.128906 11.226562 -54.632812 10.875 -55.125 C 10.632812 -55.457031 10.375 -55.773438 10.09375 -56.078125 C 9.8125 -56.390625 9.503906 -56.585938 9.171875 -56.671875 C 8.847656 -56.765625 8.492188 -56.640625 8.109375 -56.296875 C 7.535156 -55.785156 7.035156 -55.175781 6.609375 -54.46875 C 6.191406 -53.757812 5.820312 -53.019531 5.5 -52.25 C 5.175781 -51.476562 4.882812 -50.734375 4.625 -50.015625 C 4.195312 -48.835938 3.863281 -47.597656 3.625 -46.296875 C 3.382812 -44.992188 3.328125 -43.703125 3.453125 -42.421875 C 3.492188 -42.085938 3.550781 -41.742188 3.625 -41.390625 C 3.707031 -41.046875 3.828125 -40.726562 3.984375 -40.4375 C 4.222656 -39.988281 4.453125 -39.800781 4.671875 -39.875 C 4.898438 -39.957031 5.179688 -40.148438 5.515625 -40.453125 C 5.929688 -40.835938 6.304688 -41.289062 6.640625 -41.8125 C 6.984375 -42.332031 7.296875 -42.835938 7.578125 -43.328125 C 8.191406 -44.335938 8.71875 -45.390625 9.15625 -46.484375 C 9.59375 -47.578125 9.972656 -48.691406 10.296875 -49.828125 C 10.335938 -49.972656 10.460938 -50.078125 10.671875 -50.140625 C 10.890625 -50.203125 11.125 -50.226562 11.375 -50.21875 C 11.632812 -50.207031 11.851562 -50.15625 12.03125 -50.0625 C 12.21875 -49.976562 12.289062 -49.867188 12.25 -49.734375 C 11.851562 -48.085938 11.316406 -46.5 10.640625 -44.96875 C 9.960938 -43.4375 9.101562 -42.007812 8.0625 -40.6875 Z M 19.703125 -15.203125 C 19.617188 -14.640625 19.535156 -14.113281 19.453125 -13.625 C 19.378906 -13.144531 19.222656 -12.71875 18.984375 -12.34375 C 18.753906 -11.96875 18.363281 -11.632812 17.8125 -11.34375 C 17.613281 -11.257812 17.394531 -11.21875 17.15625 -11.21875 C 16.914062 -11.21875 16.707031 -11.28125 16.53125 -11.40625 C 16.25 -11.613281 16.039062 -11.832031 15.90625 -12.0625 C 15.78125 -12.289062 15.707031 -12.53125 15.6875 -12.78125 C 15.238281 -11.863281 14.882812 -10.882812 14.625 -9.84375 C 14.363281 -8.8125 14.25 -7.78125 14.28125 -6.75 C 14.320312 -5.726562 14.550781 -4.765625 14.96875 -3.859375 C 15.394531 -2.960938 16.0625 -2.203125 16.96875 -1.578125 C 17.738281 -1.054688 18.515625 -0.742188 19.296875 -0.640625 C 20.078125 -0.535156 20.84375 -0.59375 21.59375 -0.8125 C 22.351562 -1.03125 23.082031 -1.359375 23.78125 -1.796875 C 24.488281 -2.242188 25.15625 -2.75 25.78125 -3.3125 C 26.40625 -3.875 26.96875 -4.453125 27.46875 -5.046875 C 28.84375 -6.671875 30.007812 -8.460938 30.96875 -10.421875 C 31.925781 -12.390625 32.710938 -14.382812 33.328125 -16.40625 C 34.003906 -18.675781 34.472656 -20.988281 34.734375 -23.34375 C 34.992188 -25.695312 35.078125 -28.066406 34.984375 -30.453125 C 34.898438 -32.847656 34.671875 -35.222656 34.296875 -37.578125 C 33.929688 -39.929688 33.453125 -42.238281 32.859375 -44.5 C 32.566406 -45.613281 32.238281 -46.71875 31.875 -47.8125 C 31.507812 -48.914062 31.113281 -50.007812 30.6875 -51.09375 C 30.488281 -51.570312 30.285156 -52.050781 30.078125 -52.53125 C 29.867188 -53.019531 29.648438 -53.492188 29.421875 -53.953125 C 29.128906 -54.503906 28.8125 -54.835938 28.46875 -54.953125 C 28.132812 -55.078125 27.804688 -55.019531 27.484375 -54.78125 C 27.160156 -54.550781 26.875 -54.1875 26.625 -53.6875 C 26.300781 -53.050781 25.992188 -52.367188 25.703125 -51.640625 C 25.421875 -50.921875 25.179688 -50.296875 24.984375 -49.765625 C 24.609375 -48.722656 24.257812 -47.664062 23.9375 -46.59375 C 23.613281 -45.519531 23.316406 -44.441406 23.046875 -43.359375 C 22.609375 -41.578125 22.210938 -39.785156 21.859375 -37.984375 C 21.515625 -36.191406 21.195312 -34.382812 20.90625 -32.5625 C 20.914062 -32.40625 20.921875 -32.25 20.921875 -32.09375 C 20.921875 -31.945312 20.925781 -31.796875 20.9375 -31.640625 C 20.988281 -29.828125 20.96875 -28.015625 20.875 -26.203125 C 20.789062 -24.390625 20.648438 -22.570312 20.453125 -20.75 C 22.085938 -21.332031 23.835938 -21.59375 25.703125 -21.53125 C 25.847656 -21.53125 25.988281 -21.488281 26.125 -21.40625 C 26.257812 -21.332031 26.335938 -21.242188 26.359375 -21.140625 C 26.390625 -21.046875 26.289062 -20.957031 26.0625 -20.875 C 25.03125 -20.550781 24.003906 -20.144531 22.984375 -19.65625 C 21.972656 -19.164062 21.019531 -18.597656 20.125 -17.953125 C 20.050781 -17.492188 19.976562 -17.03125 19.90625 -16.5625 C 19.84375 -16.101562 19.773438 -15.648438 19.703125 -15.203125 Z M 19.703125 -15.203125 "/></g></g></g><g fill="#ffffff" fill-opacity="1"><g transform="translate(262.35143, 63.499967)"><g><path d="M 7.9375 -24.203125 C 7.570312 -23.585938 7.140625 -23.019531 6.640625 -22.5 C 6.148438 -21.988281 5.59375 -21.585938 4.96875 -21.296875 C 4.351562 -21.015625 3.660156 -20.910156 2.890625 -20.984375 C 2.816406 -20.984375 2.738281 -20.988281 2.65625 -21 C 2.582031 -21.007812 2.503906 -21.019531 2.421875 -21.03125 C 2.472656 -20.320312 2.570312 -19.628906 2.71875 -18.953125 C 2.875 -18.273438 3.097656 -17.664062 3.390625 -17.125 C 3.691406 -16.582031 4.085938 -16.140625 4.578125 -15.796875 C 5.078125 -15.460938 5.6875 -15.28125 6.40625 -15.25 C 7.03125 -15.226562 7.617188 -15.375 8.171875 -15.6875 C 8.722656 -16 9.234375 -16.410156 9.703125 -16.921875 C 10.171875 -17.441406 10.597656 -17.988281 10.984375 -18.5625 C 11.378906 -19.132812 11.734375 -19.671875 12.046875 -20.171875 C 12.148438 -20.347656 12.296875 -20.628906 12.484375 -21.015625 C 12.679688 -21.410156 12.890625 -21.863281 13.109375 -22.375 C 13.328125 -22.882812 13.539062 -23.414062 13.75 -23.96875 C 13.96875 -24.53125 14.160156 -25.078125 14.328125 -25.609375 C 14.492188 -26.140625 14.613281 -26.609375 14.6875 -27.015625 C 14.738281 -27.285156 14.851562 -27.457031 15.03125 -27.53125 C 15.207031 -27.613281 15.367188 -27.609375 15.515625 -27.515625 C 15.671875 -27.429688 15.710938 -27.257812 15.640625 -27 C 15.484375 -26.300781 15.257812 -25.507812 14.96875 -24.625 C 14.675781 -23.738281 14.34375 -22.832031 13.96875 -21.90625 C 13.59375 -20.976562 13.195312 -20.078125 12.78125 -19.203125 C 12.257812 -18.097656 11.648438 -17.09375 10.953125 -16.1875 C 10.253906 -15.28125 9.488281 -14.550781 8.65625 -14 C 7.832031 -13.457031 6.953125 -13.15625 6.015625 -13.09375 C 5.140625 -13.019531 4.296875 -13.097656 3.484375 -13.328125 C 2.671875 -13.566406 1.945312 -13.953125 1.3125 -14.484375 C 0.675781 -15.023438 0.160156 -15.707031 -0.234375 -16.53125 C -0.597656 -17.332031 -0.859375 -18.1875 -1.015625 -19.09375 C -1.171875 -20.007812 -1.25 -20.9375 -1.25 -21.875 C -1.257812 -22.820312 -1.238281 -23.726562 -1.1875 -24.59375 C -1.15625 -25.289062 -1.0625 -26.0625 -0.90625 -26.90625 C -0.757812 -27.75 -0.546875 -28.601562 -0.265625 -29.46875 C 0.00390625 -30.34375 0.34375 -31.179688 0.75 -31.984375 C 1.164062 -32.796875 1.648438 -33.519531 2.203125 -34.15625 C 2.765625 -34.800781 3.40625 -35.3125 4.125 -35.6875 C 4.84375 -36.0625 5.644531 -36.25 6.53125 -36.25 C 7.382812 -36.25 8.070312 -36.082031 8.59375 -35.75 C 9.113281 -35.414062 9.492188 -34.957031 9.734375 -34.375 C 9.972656 -33.800781 10.109375 -33.148438 10.140625 -32.421875 C 10.179688 -31.703125 10.132812 -30.945312 10 -30.15625 C 9.875 -29.375 9.691406 -28.601562 9.453125 -27.84375 C 9.222656 -27.09375 8.972656 -26.398438 8.703125 -25.765625 C 8.429688 -25.140625 8.175781 -24.617188 7.9375 -24.203125 Z M 2.390625 -22.5 C 2.421875 -22.476562 2.457031 -22.453125 2.5 -22.421875 C 2.539062 -22.398438 2.585938 -22.375 2.640625 -22.34375 C 3.023438 -22.144531 3.382812 -22.101562 3.71875 -22.21875 C 4.0625 -22.332031 4.375 -22.53125 4.65625 -22.8125 C 4.945312 -23.101562 5.203125 -23.421875 5.421875 -23.765625 C 5.648438 -24.109375 5.84375 -24.410156 6 -24.671875 C 6.570312 -25.703125 7.03125 -26.789062 7.375 -27.9375 C 7.71875 -29.082031 7.894531 -30.238281 7.90625 -31.40625 C 7.925781 -31.707031 7.914062 -32.078125 7.875 -32.515625 C 7.84375 -32.960938 7.757812 -33.390625 7.625 -33.796875 C 7.5 -34.210938 7.28125 -34.503906 6.96875 -34.671875 C 6.6875 -34.835938 6.328125 -34.757812 5.890625 -34.4375 C 5.453125 -34.125 5.007812 -33.597656 4.5625 -32.859375 C 4.113281 -32.128906 3.710938 -31.210938 3.359375 -30.109375 C 3.003906 -29.003906 2.757812 -27.757812 2.625 -26.375 C 2.582031 -25.957031 2.53125 -25.40625 2.46875 -24.71875 C 2.414062 -24.03125 2.390625 -23.289062 2.390625 -22.5 Z M 2.390625 -22.5 "/></g></g></g><g fill="#ffffff" fill-opacity="1"><g transform="translate(277.193729, 63.499967)"><g><path d="M 12.171875 -25.859375 C 11.867188 -24.515625 11.570312 -23.175781 11.28125 -21.84375 C 11 -20.519531 10.695312 -19.265625 10.375 -18.078125 C 10.0625 -16.890625 9.710938 -15.820312 9.328125 -14.875 C 8.941406 -13.925781 8.503906 -13.164062 8.015625 -12.59375 C 7.523438 -12.019531 6.96875 -11.691406 6.34375 -11.609375 C 5.351562 -11.460938 4.488281 -11.550781 3.75 -11.875 C 3.007812 -12.195312 2.375 -12.691406 1.84375 -13.359375 C 1.320312 -14.035156 0.878906 -14.820312 0.515625 -15.71875 C 0.160156 -16.625 -0.125 -17.578125 -0.34375 -18.578125 C -0.5625 -19.578125 -0.722656 -20.578125 -0.828125 -21.578125 C -0.941406 -22.585938 -1.019531 -23.53125 -1.0625 -24.40625 C -1.113281 -25.28125 -1.144531 -26.03125 -1.15625 -26.65625 C -1.195312 -28.976562 -1.125 -31.335938 -0.9375 -33.734375 C -0.757812 -36.140625 -0.441406 -38.523438 0.015625 -40.890625 C 0.472656 -43.265625 1.085938 -45.546875 1.859375 -47.734375 C 2.335938 -49.097656 2.796875 -50.234375 3.234375 -51.140625 C 3.671875 -52.046875 4.082031 -52.769531 4.46875 -53.3125 C 4.851562 -53.863281 5.210938 -54.273438 5.546875 -54.546875 C 5.890625 -54.828125 6.203125 -55.007812 6.484375 -55.09375 C 7.523438 -55.457031 8.4375 -55.210938 9.21875 -54.359375 C 9.632812 -53.898438 9.890625 -53.207031 9.984375 -52.28125 C 10.085938 -51.363281 10.050781 -50.273438 9.875 -49.015625 C 9.707031 -47.753906 9.421875 -46.398438 9.015625 -44.953125 C 8.609375 -43.503906 8.085938 -42.015625 7.453125 -40.484375 C 6.816406 -38.960938 6.09375 -37.46875 5.28125 -36 C 4.46875 -34.53125 3.582031 -33.160156 2.625 -31.890625 C 2.59375 -31.441406 2.570312 -30.898438 2.5625 -30.265625 C 2.550781 -29.628906 2.546875 -28.992188 2.546875 -28.359375 C 2.546875 -27.734375 2.546875 -27.191406 2.546875 -26.734375 C 2.566406 -25.347656 2.640625 -23.9375 2.765625 -22.5 C 2.890625 -21.070312 3.117188 -19.671875 3.453125 -18.296875 C 3.628906 -17.691406 3.828125 -17.082031 4.046875 -16.46875 C 4.273438 -15.851562 4.554688 -15.273438 4.890625 -14.734375 C 5.097656 -14.398438 5.300781 -14.140625 5.5 -13.953125 C 5.695312 -13.773438 6 -13.695312 6.40625 -13.71875 C 6.75 -13.726562 7.082031 -13.941406 7.40625 -14.359375 C 7.726562 -14.773438 8.035156 -15.320312 8.328125 -16 C 8.617188 -16.675781 8.894531 -17.421875 9.15625 -18.234375 C 9.414062 -19.054688 9.65625 -19.890625 9.875 -20.734375 C 10.101562 -21.585938 10.304688 -22.394531 10.484375 -23.15625 C 10.660156 -23.914062 10.8125 -24.566406 10.9375 -25.109375 C 11.070312 -25.648438 11.171875 -26.023438 11.234375 -26.234375 C 11.335938 -26.546875 11.476562 -26.710938 11.65625 -26.734375 C 11.832031 -26.765625 11.976562 -26.691406 12.09375 -26.515625 C 12.207031 -26.347656 12.234375 -26.128906 12.171875 -25.859375 Z M 4.34375 -43.640625 C 4.0625 -42.242188 3.804688 -40.84375 3.578125 -39.4375 C 3.359375 -38.03125 3.160156 -36.617188 2.984375 -35.203125 C 3.160156 -35.359375 3.394531 -35.6875 3.6875 -36.1875 C 3.988281 -36.695312 4.328125 -37.335938 4.703125 -38.109375 C 5.085938 -38.890625 5.476562 -39.75 5.875 -40.6875 C 6.269531 -41.625 6.648438 -42.601562 7.015625 -43.625 C 7.390625 -44.65625 7.71875 -45.675781 8 -46.6875 C 8.289062 -47.695312 8.507812 -48.660156 8.65625 -49.578125 C 8.800781 -50.492188 8.847656 -51.3125 8.796875 -52.03125 C 8.753906 -52.757812 8.582031 -53.335938 8.28125 -53.765625 C 8.019531 -53.691406 7.753906 -53.453125 7.484375 -53.046875 C 7.210938 -52.640625 6.941406 -52.128906 6.671875 -51.515625 C 6.398438 -50.898438 6.144531 -50.226562 5.90625 -49.5 C 5.664062 -48.78125 5.441406 -48.050781 5.234375 -47.3125 C 5.023438 -46.582031 4.84375 -45.894531 4.6875 -45.25 C 4.539062 -44.613281 4.425781 -44.078125 4.34375 -43.640625 Z M 4.34375 -43.640625 "/></g></g></g><g fill="#ffffff" fill-opacity="1"><g transform="translate(288.384047, 63.499967)"><g/></g></g><g fill="#ffffff" fill-opacity="1"><g transform="translate(298.207312, 63.499967)"><g><path d="M 14.109375 -26.5625 C 14.171875 -26.695312 14.269531 -26.773438 14.40625 -26.796875 C 14.550781 -26.828125 14.671875 -26.800781 14.765625 -26.71875 C 14.867188 -26.644531 14.890625 -26.519531 14.828125 -26.34375 C 14.660156 -25.09375 14.171875 -24.0625 13.359375 -23.25 C 12.554688 -22.4375 11.457031 -21.757812 10.0625 -21.21875 C 9.90625 -20.132812 9.679688 -19.0625 9.390625 -18 C 9.109375 -16.945312 8.757812 -15.984375 8.34375 -15.109375 C 7.925781 -14.234375 7.4375 -13.523438 6.875 -12.984375 C 6.3125 -12.441406 5.675781 -12.148438 4.96875 -12.109375 C 4.15625 -12.054688 3.445312 -12.1875 2.84375 -12.5 C 2.238281 -12.820312 1.71875 -13.269531 1.28125 -13.84375 C 0.851562 -14.414062 0.492188 -15.070312 0.203125 -15.8125 C -0.078125 -16.5625 -0.296875 -17.332031 -0.453125 -18.125 C -0.617188 -18.914062 -0.742188 -19.6875 -0.828125 -20.4375 C -0.910156 -21.1875 -0.960938 -21.867188 -0.984375 -22.484375 C -1.003906 -23.097656 -1.007812 -23.578125 -1 -23.921875 C -1 -24.078125 -0.984375 -24.222656 -0.953125 -24.359375 C -0.929688 -24.503906 -0.898438 -24.628906 -0.859375 -24.734375 C -1.097656 -25.628906 -1.160156 -26.5625 -1.046875 -27.53125 C -0.929688 -28.507812 -0.671875 -29.460938 -0.265625 -30.390625 C 0.128906 -31.316406 0.648438 -32.144531 1.296875 -32.875 C 1.921875 -33.570312 2.585938 -34.035156 3.296875 -34.265625 C 4.015625 -34.503906 4.71875 -34.539062 5.40625 -34.375 C 6.101562 -34.21875 6.71875 -33.90625 7.25 -33.4375 C 8.519531 -32.320312 9.394531 -30.921875 9.875 -29.234375 C 10.363281 -27.546875 10.5 -25.5 10.28125 -23.09375 C 10.28125 -23.007812 10.273438 -22.925781 10.265625 -22.84375 C 10.253906 -22.757812 10.242188 -22.671875 10.234375 -22.578125 C 10.910156 -22.796875 11.546875 -23.082031 12.140625 -23.4375 C 12.734375 -23.789062 13.210938 -24.226562 13.578125 -24.75 C 13.941406 -25.269531 14.117188 -25.875 14.109375 -26.5625 Z M 2.03125 -29.890625 C 1.957031 -29.609375 1.863281 -29.21875 1.75 -28.71875 C 1.632812 -28.226562 1.550781 -27.691406 1.5 -27.109375 C 1.445312 -26.523438 1.457031 -25.953125 1.53125 -25.390625 C 1.738281 -25.265625 1.898438 -25.113281 2.015625 -24.9375 C 2.140625 -24.757812 2.210938 -24.5625 2.234375 -24.34375 C 2.234375 -24.257812 2.234375 -24.148438 2.234375 -24.015625 C 2.234375 -23.890625 2.234375 -23.738281 2.234375 -23.5625 C 2.253906 -23.539062 2.269531 -23.519531 2.28125 -23.5 C 2.300781 -23.488281 2.316406 -23.46875 2.328125 -23.4375 C 2.753906 -22.96875 3.410156 -22.609375 4.296875 -22.359375 C 5.179688 -22.117188 6.160156 -22.015625 7.234375 -22.046875 C 7.304688 -22.773438 7.34375 -23.390625 7.34375 -23.890625 C 7.375 -24.710938 7.378906 -25.578125 7.359375 -26.484375 C 7.347656 -27.398438 7.273438 -28.300781 7.140625 -29.1875 C 7.003906 -30.070312 6.75 -30.882812 6.375 -31.625 C 5.988281 -32.394531 5.59375 -32.878906 5.1875 -33.078125 C 4.78125 -33.273438 4.378906 -33.253906 3.984375 -33.015625 C 3.597656 -32.785156 3.234375 -32.390625 2.890625 -31.828125 C 2.554688 -31.273438 2.269531 -30.628906 2.03125 -29.890625 Z M 4.828125 -14.3125 C 5.128906 -14.34375 5.394531 -14.535156 5.625 -14.890625 C 5.863281 -15.253906 6.070312 -15.726562 6.25 -16.3125 C 6.4375 -16.90625 6.59375 -17.554688 6.71875 -18.265625 C 6.851562 -18.984375 6.960938 -19.691406 7.046875 -20.390625 C 6.203125 -20.265625 5.378906 -20.234375 4.578125 -20.296875 C 3.773438 -20.359375 3.050781 -20.535156 2.40625 -20.828125 C 2.46875 -20.078125 2.554688 -19.316406 2.671875 -18.546875 C 2.796875 -17.785156 2.953125 -17.078125 3.140625 -16.421875 C 3.328125 -15.773438 3.554688 -15.253906 3.828125 -14.859375 C 4.097656 -14.472656 4.429688 -14.289062 4.828125 -14.3125 Z M 4.828125 -14.3125 "/></g></g></g><g fill="#ffffff" fill-opacity="1"><g transform="translate(312.131738, 63.499967)"><g><path d="M 13.65625 -26.890625 C 13.675781 -27.023438 13.734375 -27.097656 13.828125 -27.109375 C 13.921875 -27.117188 14.003906 -27.101562 14.078125 -27.0625 C 14.160156 -27.03125 14.203125 -26.992188 14.203125 -26.953125 C 14.097656 -24.972656 13.847656 -23.117188 13.453125 -21.390625 C 13.054688 -19.660156 12.535156 -18.125 11.890625 -16.78125 C 11.242188 -15.4375 10.5 -14.347656 9.65625 -13.515625 C 8.820312 -12.679688 7.914062 -12.164062 6.9375 -11.96875 C 6.269531 -11.84375 5.546875 -11.796875 4.765625 -11.828125 C 3.992188 -11.867188 3.25 -12.007812 2.53125 -12.25 C 1.820312 -12.5 1.210938 -12.863281 0.703125 -13.34375 C 0.117188 -13.90625 -0.347656 -14.539062 -0.703125 -15.25 C -1.054688 -15.957031 -1.3125 -16.707031 -1.46875 -17.5 C -1.625 -18.289062 -1.710938 -19.078125 -1.734375 -19.859375 C -1.835938 -22.515625 -1.550781 -25.128906 -0.875 -27.703125 C -0.71875 -28.285156 -0.53125 -28.898438 -0.3125 -29.546875 C -0.09375 -30.191406 0.171875 -30.816406 0.484375 -31.421875 C 0.796875 -32.035156 1.164062 -32.59375 1.59375 -33.09375 C 2.03125 -33.59375 2.535156 -34 3.109375 -34.3125 C 3.703125 -34.644531 4.351562 -34.828125 5.0625 -34.859375 C 5.78125 -34.898438 6.460938 -34.789062 7.109375 -34.53125 C 7.765625 -34.28125 8.289062 -33.867188 8.6875 -33.296875 C 9.039062 -32.816406 9.28125 -32.242188 9.40625 -31.578125 C 9.539062 -30.921875 9.609375 -30.253906 9.609375 -29.578125 C 9.609375 -28.898438 9.570312 -28.273438 9.5 -27.703125 C 9.425781 -27.140625 9.363281 -26.707031 9.3125 -26.40625 C 9.28125 -26.226562 9.148438 -26.0625 8.921875 -25.90625 C 8.691406 -25.75 8.410156 -25.613281 8.078125 -25.5 C 7.753906 -25.382812 7.4375 -25.316406 7.125 -25.296875 C 6.8125 -25.285156 6.550781 -25.320312 6.34375 -25.40625 C 6.132812 -25.5 6.03125 -25.664062 6.03125 -25.90625 C 6.019531 -26.5625 6.039062 -27.207031 6.09375 -27.84375 C 6.144531 -28.476562 6.15625 -29.109375 6.125 -29.734375 C 6.101562 -30.367188 5.976562 -31.007812 5.75 -31.65625 C 5.644531 -31.957031 5.554688 -32.195312 5.484375 -32.375 C 5.421875 -32.550781 5.335938 -32.628906 5.234375 -32.609375 C 5.140625 -32.585938 4.984375 -32.4375 4.765625 -32.15625 C 4.535156 -31.84375 4.328125 -31.503906 4.140625 -31.140625 C 3.960938 -30.785156 3.796875 -30.425781 3.640625 -30.0625 C 2.921875 -28.46875 2.429688 -26.769531 2.171875 -24.96875 C 1.910156 -23.175781 1.828125 -21.410156 1.921875 -19.671875 C 1.953125 -18.828125 2.039062 -18.050781 2.1875 -17.34375 C 2.332031 -16.644531 2.6875 -15.957031 3.25 -15.28125 C 3.363281 -15.132812 3.578125 -14.957031 3.890625 -14.75 C 4.210938 -14.550781 4.609375 -14.394531 5.078125 -14.28125 C 5.546875 -14.175781 6.0625 -14.175781 6.625 -14.28125 C 7.1875 -14.382812 7.773438 -14.664062 8.390625 -15.125 C 9.003906 -15.59375 9.617188 -16.300781 10.234375 -17.25 C 10.859375 -18.195312 11.460938 -19.457031 12.046875 -21.03125 C 12.640625 -22.613281 13.175781 -24.566406 13.65625 -26.890625 Z M 13.65625 -26.890625 "/></g></g></g><g fill="#ffffff" fill-opacity="1"><g transform="translate(325.685101, 63.499967)"><g><path d="M 7.9375 -24.203125 C 7.570312 -23.585938 7.140625 -23.019531 6.640625 -22.5 C 6.148438 -21.988281 5.59375 -21.585938 4.96875 -21.296875 C 4.351562 -21.015625 3.660156 -20.910156 2.890625 -20.984375 C 2.816406 -20.984375 2.738281 -20.988281 2.65625 -21 C 2.582031 -21.007812 2.503906 -21.019531 2.421875 -21.03125 C 2.472656 -20.320312 2.570312 -19.628906 2.71875 -18.953125 C 2.875 -18.273438 3.097656 -17.664062 3.390625 -17.125 C 3.691406 -16.582031 4.085938 -16.140625 4.578125 -15.796875 C 5.078125 -15.460938 5.6875 -15.28125 6.40625 -15.25 C 7.03125 -15.226562 7.617188 -15.375 8.171875 -15.6875 C 8.722656 -16 9.234375 -16.410156 9.703125 -16.921875 C 10.171875 -17.441406 10.597656 -17.988281 10.984375 -18.5625 C 11.378906 -19.132812 11.734375 -19.671875 12.046875 -20.171875 C 12.148438 -20.347656 12.296875 -20.628906 12.484375 -21.015625 C 12.679688 -21.410156 12.890625 -21.863281 13.109375 -22.375 C 13.328125 -22.882812 13.539062 -23.414062 13.75 -23.96875 C 13.96875 -24.53125 14.160156 -25.078125 14.328125 -25.609375 C 14.492188 -26.140625 14.613281 -26.609375 14.6875 -27.015625 C 14.738281 -27.285156 14.851562 -27.457031 15.03125 -27.53125 C 15.207031 -27.613281 15.367188 -27.609375 15.515625 -27.515625 C 15.671875 -27.429688 15.710938 -27.257812 15.640625 -27 C 15.484375 -26.300781 15.257812 -25.507812 14.96875 -24.625 C 14.675781 -23.738281 14.34375 -22.832031 13.96875 -21.90625 C 13.59375 -20.976562 13.195312 -20.078125 12.78125 -19.203125 C 12.257812 -18.097656 11.648438 -17.09375 10.953125 -16.1875 C 10.253906 -15.28125 9.488281 -14.550781 8.65625 -14 C 7.832031 -13.457031 6.953125 -13.15625 6.015625 -13.09375 C 5.140625 -13.019531 4.296875 -13.097656 3.484375 -13.328125 C 2.671875 -13.566406 1.945312 -13.953125 1.3125 -14.484375 C 0.675781 -15.023438 0.160156 -15.707031 -0.234375 -16.53125 C -0.597656 -17.332031 -0.859375 -18.1875 -1.015625 -19.09375 C -1.171875 -20.007812 -1.25 -20.9375 -1.25 -21.875 C -1.257812 -22.820312 -1.238281 -23.726562 -1.1875 -24.59375 C -1.15625 -25.289062 -1.0625 -26.0625 -0.90625 -26.90625 C -0.757812 -27.75 -0.546875 -28.601562 -0.265625 -29.46875 C 0.00390625 -30.34375 0.34375 -31.179688 0.75 -31.984375 C 1.164062 -32.796875 1.648438 -33.519531 2.203125 -34.15625 C 2.765625 -34.800781 3.40625 -35.3125 4.125 -35.6875 C 4.84375 -36.0625 5.644531 -36.25 6.53125 -36.25 C 7.382812 -36.25 8.070312 -36.082031 8.59375 -35.75 C 9.113281 -35.414062 9.492188 -34.957031 9.734375 -34.375 C 9.972656 -33.800781 10.109375 -33.148438 10.140625 -32.421875 C 10.179688 -31.703125 10.132812 -30.945312 10 -30.15625 C 9.875 -29.375 9.691406 -28.601562 9.453125 -27.84375 C 9.222656 -27.09375 8.972656 -26.398438 8.703125 -25.765625 C 8.429688 -25.140625 8.175781 -24.617188 7.9375 -24.203125 Z M 2.390625 -22.5 C 2.421875 -22.476562 2.457031 -22.453125 2.5 -22.421875 C 2.539062 -22.398438 2.585938 -22.375 2.640625 -22.34375 C 3.023438 -22.144531 3.382812 -22.101562 3.71875 -22.21875 C 4.0625 -22.332031 4.375 -22.53125 4.65625 -22.8125 C 4.945312 -23.101562 5.203125 -23.421875 5.421875 -23.765625 C 5.648438 -24.109375 5.84375 -24.410156 6 -24.671875 C 6.570312 -25.703125 7.03125 -26.789062 7.375 -27.9375 C 7.71875 -29.082031 7.894531 -30.238281 7.90625 -31.40625 C 7.925781 -31.707031 7.914062 -32.078125 7.875 -32.515625 C 7.84375 -32.960938 7.757812 -33.390625 7.625 -33.796875 C 7.5 -34.210938 7.28125 -34.503906 6.96875 -34.671875 C 6.6875 -34.835938 6.328125 -34.757812 5.890625 -34.4375 C 5.453125 -34.125 5.007812 -33.597656 4.5625 -32.859375 C 4.113281 -32.128906 3.710938 -31.210938 3.359375 -30.109375 C 3.003906 -29.003906 2.757812 -27.757812 2.625 -26.375 C 2.582031 -25.957031 2.53125 -25.40625 2.46875 -24.71875 C 2.414062 -24.03125 2.390625 -23.289062 2.390625 -22.5 Z M 8.484375 -43.0625 C 8.484375 -43.0625 8.429688 -42.9375 8.328125 -42.6875 C 8.222656 -42.445312 8.082031 -42.132812 7.90625 -41.75 C 7.738281 -41.363281 7.554688 -40.953125 7.359375 -40.515625 C 7.171875 -40.078125 6.988281 -39.664062 6.8125 -39.28125 C 6.644531 -38.90625 6.507812 -38.59375 6.40625 -38.34375 C 6.300781 -38.09375 6.25 -37.96875 6.25 -37.96875 C 6.25 -37.820312 6.179688 -37.742188 6.046875 -37.734375 C 5.910156 -37.734375 5.769531 -37.785156 5.625 -37.890625 C 5.476562 -37.992188 5.398438 -38.117188 5.390625 -38.265625 C 5.335938 -39.035156 5.367188 -39.796875 5.484375 -40.546875 C 5.609375 -41.304688 5.78125 -41.988281 6 -42.59375 C 6.21875 -43.195312 6.46875 -43.671875 6.75 -44.015625 C 7.039062 -44.359375 7.335938 -44.5 7.640625 -44.4375 C 7.890625 -44.382812 8.109375 -44.28125 8.296875 -44.125 C 8.484375 -43.976562 8.617188 -43.816406 8.703125 -43.640625 C 8.796875 -43.460938 8.828125 -43.316406 8.796875 -43.203125 C 8.773438 -43.085938 8.671875 -43.039062 8.484375 -43.0625 Z M 8.484375 -43.0625 "/></g></g></g><g fill="#ffffff" fill-opacity="1"><g transform="translate(340.5274, 63.499967)"><g><path d="M 15.640625 -27.5 C 15.660156 -27.5625 15.738281 -27.597656 15.875 -27.609375 C 16.019531 -27.628906 16.164062 -27.625 16.3125 -27.59375 C 16.457031 -27.570312 16.519531 -27.53125 16.5 -27.46875 C 16.3125 -25.832031 16.050781 -24.195312 15.71875 -22.5625 C 15.382812 -20.9375 14.9375 -19.347656 14.375 -17.796875 C 14.164062 -17.210938 13.929688 -16.613281 13.671875 -16 C 13.410156 -15.394531 13.09375 -14.859375 12.71875 -14.390625 C 12.351562 -13.921875 11.894531 -13.585938 11.34375 -13.390625 C 10.800781 -13.191406 10.140625 -13.195312 9.359375 -13.40625 C 8.722656 -13.582031 8.222656 -13.914062 7.859375 -14.40625 C 7.492188 -14.90625 7.222656 -15.492188 7.046875 -16.171875 C 6.867188 -16.847656 6.75 -17.539062 6.6875 -18.25 C 6.550781 -17.832031 6.40625 -17.414062 6.25 -17 C 6.101562 -16.59375 5.941406 -16.191406 5.765625 -15.796875 C 5.523438 -15.265625 5.238281 -14.757812 4.90625 -14.28125 C 4.582031 -13.8125 4.207031 -13.414062 3.78125 -13.09375 C 3.351562 -12.78125 2.875 -12.578125 2.34375 -12.484375 C 1.820312 -12.398438 1.238281 -12.484375 0.59375 -12.734375 C 0.03125 -12.953125 -0.414062 -13.28125 -0.75 -13.71875 C -1.09375 -14.15625 -1.351562 -14.644531 -1.53125 -15.1875 C -1.707031 -15.738281 -1.832031 -16.304688 -1.90625 -16.890625 C -1.976562 -17.484375 -2.023438 -18.039062 -2.046875 -18.5625 C -2.128906 -19.945312 -2.09375 -21.328125 -1.9375 -22.703125 C -1.78125 -24.078125 -1.519531 -25.4375 -1.15625 -26.78125 C -1 -27.351562 -0.816406 -27.96875 -0.609375 -28.625 C -0.410156 -29.28125 -0.175781 -29.929688 0.09375 -30.578125 C 0.375 -31.222656 0.695312 -31.820312 1.0625 -32.375 C 1.425781 -32.9375 1.851562 -33.414062 2.34375 -33.8125 C 2.71875 -34.113281 3.148438 -34.34375 3.640625 -34.5 C 4.140625 -34.664062 4.648438 -34.75 5.171875 -34.75 C 5.691406 -34.75 6.191406 -34.660156 6.671875 -34.484375 C 7.160156 -34.304688 7.570312 -34.03125 7.90625 -33.65625 C 7.9375 -33.625 7.960938 -33.59375 7.984375 -33.5625 C 8.015625 -33.53125 8.039062 -33.492188 8.0625 -33.453125 C 8.445312 -33.554688 8.835938 -33.59375 9.234375 -33.5625 C 9.640625 -33.539062 9.984375 -33.453125 10.265625 -33.296875 C 10.546875 -33.140625 10.671875 -32.921875 10.640625 -32.640625 C 10.515625 -30.828125 10.394531 -29 10.28125 -27.15625 C 10.175781 -25.3125 10.148438 -23.472656 10.203125 -21.640625 C 10.253906 -19.816406 10.453125 -18.007812 10.796875 -16.21875 C 10.816406 -16.082031 10.84375 -15.945312 10.875 -15.8125 C 10.90625 -15.675781 10.941406 -15.539062 10.984375 -15.40625 C 11.117188 -15.582031 11.25 -15.753906 11.375 -15.921875 C 11.5 -16.085938 11.613281 -16.253906 11.71875 -16.421875 C 12.082031 -16.960938 12.410156 -17.507812 12.703125 -18.0625 C 12.992188 -18.625 13.265625 -19.195312 13.515625 -19.78125 C 14.046875 -21.019531 14.484375 -22.28125 14.828125 -23.5625 C 15.179688 -24.84375 15.453125 -26.15625 15.640625 -27.5 Z M 5 -22.46875 C 5.351562 -23.695312 5.640625 -24.941406 5.859375 -26.203125 C 6.078125 -27.460938 6.289062 -28.722656 6.5 -29.984375 C 6.414062 -30.242188 6.300781 -30.5 6.15625 -30.75 C 6.019531 -30.96875 5.894531 -31.1875 5.78125 -31.40625 C 5.664062 -31.625 5.535156 -31.835938 5.390625 -32.046875 C 5.335938 -32.128906 5.28125 -32.207031 5.21875 -32.28125 C 5.164062 -32.363281 5.109375 -32.441406 5.046875 -32.515625 C 4.953125 -32.378906 4.863281 -32.238281 4.78125 -32.09375 C 4.695312 -31.945312 4.613281 -31.800781 4.53125 -31.65625 C 4.40625 -31.4375 4.28125 -31.207031 4.15625 -30.96875 C 4.039062 -30.726562 3.929688 -30.484375 3.828125 -30.234375 C 3.359375 -29.222656 2.96875 -28.1875 2.65625 -27.125 C 2.300781 -25.976562 2.035156 -24.800781 1.859375 -23.59375 C 1.691406 -22.394531 1.609375 -21.195312 1.609375 -20 C 1.609375 -19.46875 1.617188 -18.929688 1.640625 -18.390625 C 1.671875 -17.847656 1.726562 -17.3125 1.8125 -16.78125 C 1.84375 -16.625 1.890625 -16.375 1.953125 -16.03125 C 2.015625 -15.6875 2.109375 -15.359375 2.234375 -15.046875 C 2.460938 -15.367188 2.671875 -15.738281 2.859375 -16.15625 C 3.046875 -16.582031 3.210938 -16.988281 3.359375 -17.375 C 3.515625 -17.757812 3.625 -18.039062 3.6875 -18.21875 C 3.945312 -18.914062 4.179688 -19.617188 4.390625 -20.328125 C 4.597656 -21.035156 4.800781 -21.75 5 -22.46875 Z M 5 -22.46875 "/></g></g></g><g fill="#ffffff" fill-opacity="1"><g transform="translate(356.287584, 63.499967)"><g><path d="M 14.8125 -7.890625 C 14.914062 -7.921875 15.070312 -7.9375 15.28125 -7.9375 C 15.5 -7.9375 15.617188 -7.84375 15.640625 -7.65625 C 15.691406 -7.332031 15.625 -7.078125 15.4375 -6.890625 C 15.257812 -6.703125 15.023438 -6.5625 14.734375 -6.46875 C 14.453125 -6.382812 14.175781 -6.328125 13.90625 -6.296875 C 13.21875 -6.203125 12.539062 -6.265625 11.875 -6.484375 C 11.207031 -6.703125 10.648438 -7.082031 10.203125 -7.625 C 9.804688 -8.207031 9.488281 -8.960938 9.25 -9.890625 C 9.007812 -10.828125 8.851562 -11.988281 8.78125 -13.375 C 8.707031 -14.769531 8.726562 -16.4375 8.84375 -18.375 C 8.96875 -20.320312 9.1875 -22.585938 9.5 -25.171875 C 9.820312 -27.765625 10.25 -30.726562 10.78125 -34.0625 C 10.78125 -34.5625 10.773438 -35.0625 10.765625 -35.5625 C 10.765625 -36.0625 10.75 -36.550781 10.71875 -37.03125 C 10.707031 -37.070312 10.703125 -37.109375 10.703125 -37.140625 C 10.703125 -37.179688 10.703125 -37.222656 10.703125 -37.265625 C 10.492188 -36.898438 10.316406 -36.601562 10.171875 -36.375 C 9.890625 -35.925781 9.640625 -35.46875 9.421875 -35 C 9.210938 -34.53125 9.003906 -34.054688 8.796875 -33.578125 C 8.347656 -32.546875 7.953125 -31.488281 7.609375 -30.40625 C 7.273438 -29.332031 6.957031 -28.253906 6.65625 -27.171875 C 6.0625 -24.941406 5.476562 -22.691406 4.90625 -20.421875 C 4.332031 -18.160156 3.785156 -15.90625 3.265625 -13.65625 C 3.210938 -13.4375 3.070312 -13.265625 2.84375 -13.140625 C 2.625 -13.015625 2.367188 -12.941406 2.078125 -12.921875 C 1.796875 -12.898438 1.53125 -12.929688 1.28125 -13.015625 C 1.039062 -13.097656 0.867188 -13.234375 0.765625 -13.421875 C 0.253906 -14.347656 -0.113281 -15.335938 -0.34375 -16.390625 C -0.582031 -17.441406 -0.734375 -18.515625 -0.796875 -19.609375 C -0.867188 -20.703125 -0.910156 -21.757812 -0.921875 -22.78125 C -0.921875 -23.738281 -0.890625 -24.695312 -0.828125 -25.65625 C -0.773438 -26.625 -0.695312 -27.546875 -0.59375 -28.421875 C -0.488281 -29.304688 -0.367188 -30.09375 -0.234375 -30.78125 C -0.109375 -31.46875 0.0234375 -32.015625 0.171875 -32.421875 C 0.242188 -32.617188 0.425781 -32.785156 0.71875 -32.921875 C 1.007812 -33.066406 1.328125 -33.15625 1.671875 -33.1875 C 2.023438 -33.226562 2.328125 -33.1875 2.578125 -33.0625 C 2.835938 -32.945312 2.957031 -32.722656 2.9375 -32.390625 C 2.832031 -30.640625 2.773438 -28.984375 2.765625 -27.421875 C 2.753906 -25.859375 2.796875 -24.269531 2.890625 -22.65625 C 2.898438 -22.425781 2.910156 -22.191406 2.921875 -21.953125 C 2.941406 -21.722656 2.957031 -21.488281 2.96875 -21.25 C 3.3125 -22.71875 3.648438 -24.179688 3.984375 -25.640625 C 4.328125 -27.097656 4.71875 -28.539062 5.15625 -29.96875 C 5.570312 -31.269531 6.035156 -32.550781 6.546875 -33.8125 C 7.054688 -35.070312 7.582031 -36.328125 8.125 -37.578125 C 8.332031 -38.046875 8.578125 -38.507812 8.859375 -38.96875 C 9.140625 -39.4375 9.460938 -39.835938 9.828125 -40.171875 C 10.203125 -40.503906 10.625 -40.710938 11.09375 -40.796875 C 11.3125 -40.835938 11.578125 -40.800781 11.890625 -40.6875 C 12.203125 -40.582031 12.519531 -40.429688 12.84375 -40.234375 C 13.164062 -40.035156 13.445312 -39.832031 13.6875 -39.625 C 13.925781 -39.414062 14.078125 -39.234375 14.140625 -39.078125 C 14.359375 -38.523438 14.5 -37.898438 14.5625 -37.203125 C 14.632812 -36.515625 14.65625 -35.84375 14.625 -35.1875 C 14.601562 -34.539062 14.566406 -34 14.515625 -33.5625 C 14.410156 -32.644531 14.265625 -31.609375 14.078125 -30.453125 C 13.898438 -29.304688 13.707031 -28.082031 13.5 -26.78125 C 13.289062 -25.476562 13.09375 -24.148438 12.90625 -22.796875 C 12.726562 -21.441406 12.582031 -20.101562 12.46875 -18.78125 C 12.363281 -17.457031 12.3125 -16.195312 12.3125 -15 C 12.3125 -13.8125 12.390625 -12.726562 12.546875 -11.75 C 12.710938 -10.78125 12.976562 -9.957031 13.34375 -9.28125 C 13.707031 -8.613281 14.195312 -8.148438 14.8125 -7.890625 Z M 14.8125 -7.890625 "/></g></g></g><g fill="#ffffff" fill-opacity="1"><g transform="translate(373.082817, 63.499967)"><g><path d="M 14.109375 -26.5625 C 14.171875 -26.695312 14.269531 -26.773438 14.40625 -26.796875 C 14.550781 -26.828125 14.671875 -26.800781 14.765625 -26.71875 C 14.867188 -26.644531 14.890625 -26.519531 14.828125 -26.34375 C 14.660156 -25.09375 14.171875 -24.0625 13.359375 -23.25 C 12.554688 -22.4375 11.457031 -21.757812 10.0625 -21.21875 C 9.90625 -20.132812 9.679688 -19.0625 9.390625 -18 C 9.109375 -16.945312 8.757812 -15.984375 8.34375 -15.109375 C 7.925781 -14.234375 7.4375 -13.523438 6.875 -12.984375 C 6.3125 -12.441406 5.675781 -12.148438 4.96875 -12.109375 C 4.15625 -12.054688 3.445312 -12.1875 2.84375 -12.5 C 2.238281 -12.820312 1.71875 -13.269531 1.28125 -13.84375 C 0.851562 -14.414062 0.492188 -15.070312 0.203125 -15.8125 C -0.078125 -16.5625 -0.296875 -17.332031 -0.453125 -18.125 C -0.617188 -18.914062 -0.742188 -19.6875 -0.828125 -20.4375 C -0.910156 -21.1875 -0.960938 -21.867188 -0.984375 -22.484375 C -1.003906 -23.097656 -1.007812 -23.578125 -1 -23.921875 C -1 -24.078125 -0.984375 -24.222656 -0.953125 -24.359375 C -0.929688 -24.503906 -0.898438 -24.628906 -0.859375 -24.734375 C -1.097656 -25.628906 -1.160156 -26.5625 -1.046875 -27.53125 C -0.929688 -28.507812 -0.671875 -29.460938 -0.265625 -30.390625 C 0.128906 -31.316406 0.648438 -32.144531 1.296875 -32.875 C 1.921875 -33.570312 2.585938 -34.035156 3.296875 -34.265625 C 4.015625 -34.503906 4.71875 -34.539062 5.40625 -34.375 C 6.101562 -34.21875 6.71875 -33.90625 7.25 -33.4375 C 8.519531 -32.320312 9.394531 -30.921875 9.875 -29.234375 C 10.363281 -27.546875 10.5 -25.5 10.28125 -23.09375 C 10.28125 -23.007812 10.273438 -22.925781 10.265625 -22.84375 C 10.253906 -22.757812 10.242188 -22.671875 10.234375 -22.578125 C 10.910156 -22.796875 11.546875 -23.082031 12.140625 -23.4375 C 12.734375 -23.789062 13.210938 -24.226562 13.578125 -24.75 C 13.941406 -25.269531 14.117188 -25.875 14.109375 -26.5625 Z M 2.03125 -29.890625 C 1.957031 -29.609375 1.863281 -29.21875 1.75 -28.71875 C 1.632812 -28.226562 1.550781 -27.691406 1.5 -27.109375 C 1.445312 -26.523438 1.457031 -25.953125 1.53125 -25.390625 C 1.738281 -25.265625 1.898438 -25.113281 2.015625 -24.9375 C 2.140625 -24.757812 2.210938 -24.5625 2.234375 -24.34375 C 2.234375 -24.257812 2.234375 -24.148438 2.234375 -24.015625 C 2.234375 -23.890625 2.234375 -23.738281 2.234375 -23.5625 C 2.253906 -23.539062 2.269531 -23.519531 2.28125 -23.5 C 2.300781 -23.488281 2.316406 -23.46875 2.328125 -23.4375 C 2.753906 -22.96875 3.410156 -22.609375 4.296875 -22.359375 C 5.179688 -22.117188 6.160156 -22.015625 7.234375 -22.046875 C 7.304688 -22.773438 7.34375 -23.390625 7.34375 -23.890625 C 7.375 -24.710938 7.378906 -25.578125 7.359375 -26.484375 C 7.347656 -27.398438 7.273438 -28.300781 7.140625 -29.1875 C 7.003906 -30.070312 6.75 -30.882812 6.375 -31.625 C 5.988281 -32.394531 5.59375 -32.878906 5.1875 -33.078125 C 4.78125 -33.273438 4.378906 -33.253906 3.984375 -33.015625 C 3.597656 -32.785156 3.234375 -32.390625 2.890625 -31.828125 C 2.554688 -31.273438 2.269531 -30.628906 2.03125 -29.890625 Z M 4.828125 -14.3125 C 5.128906 -14.34375 5.394531 -14.535156 5.625 -14.890625 C 5.863281 -15.253906 6.070312 -15.726562 6.25 -16.3125 C 6.4375 -16.90625 6.59375 -17.554688 6.71875 -18.265625 C 6.851562 -18.984375 6.960938 -19.691406 7.046875 -20.390625 C 6.203125 -20.265625 5.378906 -20.234375 4.578125 -20.296875 C 3.773438 -20.359375 3.050781 -20.535156 2.40625 -20.828125 C 2.46875 -20.078125 2.554688 -19.316406 2.671875 -18.546875 C 2.796875 -17.785156 2.953125 -17.078125 3.140625 -16.421875 C 3.328125 -15.773438 3.554688 -15.253906 3.828125 -14.859375 C 4.097656 -14.472656 4.429688 -14.289062 4.828125 -14.3125 Z M 4.828125 -14.3125 "/></g></g></g><g fill="#ffffff" fill-opacity="1"><g transform="translate(387.007243, 63.499967)"><g/></g></g><g fill="#ffffff" fill-opacity="1"><g transform="translate(396.830507, 63.499967)"><g><path d="M 15.640625 -27.5 C 15.660156 -27.5625 15.738281 -27.597656 15.875 -27.609375 C 16.019531 -27.628906 16.164062 -27.625 16.3125 -27.59375 C 16.457031 -27.570312 16.519531 -27.53125 16.5 -27.46875 C 16.3125 -25.832031 16.050781 -24.195312 15.71875 -22.5625 C 15.382812 -20.9375 14.9375 -19.347656 14.375 -17.796875 C 14.164062 -17.210938 13.929688 -16.613281 13.671875 -16 C 13.410156 -15.394531 13.09375 -14.859375 12.71875 -14.390625 C 12.351562 -13.921875 11.894531 -13.585938 11.34375 -13.390625 C 10.800781 -13.191406 10.140625 -13.195312 9.359375 -13.40625 C 8.722656 -13.582031 8.222656 -13.914062 7.859375 -14.40625 C 7.492188 -14.90625 7.222656 -15.492188 7.046875 -16.171875 C 6.867188 -16.847656 6.75 -17.539062 6.6875 -18.25 C 6.550781 -17.832031 6.40625 -17.414062 6.25 -17 C 6.101562 -16.59375 5.941406 -16.191406 5.765625 -15.796875 C 5.523438 -15.265625 5.238281 -14.757812 4.90625 -14.28125 C 4.582031 -13.8125 4.207031 -13.414062 3.78125 -13.09375 C 3.351562 -12.78125 2.875 -12.578125 2.34375 -12.484375 C 1.820312 -12.398438 1.238281 -12.484375 0.59375 -12.734375 C 0.03125 -12.953125 -0.414062 -13.28125 -0.75 -13.71875 C -1.09375 -14.15625 -1.351562 -14.644531 -1.53125 -15.1875 C -1.707031 -15.738281 -1.832031 -16.304688 -1.90625 -16.890625 C -1.976562 -17.484375 -2.023438 -18.039062 -2.046875 -18.5625 C -2.128906 -19.945312 -2.09375 -21.328125 -1.9375 -22.703125 C -1.78125 -24.078125 -1.519531 -25.4375 -1.15625 -26.78125 C -1 -27.351562 -0.816406 -27.96875 -0.609375 -28.625 C -0.410156 -29.28125 -0.175781 -29.929688 0.09375 -30.578125 C 0.375 -31.222656 0.695312 -31.820312 1.0625 -32.375 C 1.425781 -32.9375 1.851562 -33.414062 2.34375 -33.8125 C 2.71875 -34.113281 3.148438 -34.34375 3.640625 -34.5 C 4.140625 -34.664062 4.648438 -34.75 5.171875 -34.75 C 5.691406 -34.75 6.191406 -34.660156 6.671875 -34.484375 C 7.160156 -34.304688 7.570312 -34.03125 7.90625 -33.65625 C 7.9375 -33.625 7.960938 -33.59375 7.984375 -33.5625 C 8.015625 -33.53125 8.039062 -33.492188 8.0625 -33.453125 C 8.445312 -33.554688 8.835938 -33.59375 9.234375 -33.5625 C 9.640625 -33.539062 9.984375 -33.453125 10.265625 -33.296875 C 10.546875 -33.140625 10.671875 -32.921875 10.640625 -32.640625 C 10.515625 -30.828125 10.394531 -29 10.28125 -27.15625 C 10.175781 -25.3125 10.148438 -23.472656 10.203125 -21.640625 C 10.253906 -19.816406 10.453125 -18.007812 10.796875 -16.21875 C 10.816406 -16.082031 10.84375 -15.945312 10.875 -15.8125 C 10.90625 -15.675781 10.941406 -15.539062 10.984375 -15.40625 C 11.117188 -15.582031 11.25 -15.753906 11.375 -15.921875 C 11.5 -16.085938 11.613281 -16.253906 11.71875 -16.421875 C 12.082031 -16.960938 12.410156 -17.507812 12.703125 -18.0625 C 12.992188 -18.625 13.265625 -19.195312 13.515625 -19.78125 C 14.046875 -21.019531 14.484375 -22.28125 14.828125 -23.5625 C 15.179688 -24.84375 15.453125 -26.15625 15.640625 -27.5 Z M 5 -22.46875 C 5.351562 -23.695312 5.640625 -24.941406 5.859375 -26.203125 C 6.078125 -27.460938 6.289062 -28.722656 6.5 -29.984375 C 6.414062 -30.242188 6.300781 -30.5 6.15625 -30.75 C 6.019531 -30.96875 5.894531 -31.1875 5.78125 -31.40625 C 5.664062 -31.625 5.535156 -31.835938 5.390625 -32.046875 C 5.335938 -32.128906 5.28125 -32.207031 5.21875 -32.28125 C 5.164062 -32.363281 5.109375 -32.441406 5.046875 -32.515625 C 4.953125 -32.378906 4.863281 -32.238281 4.78125 -32.09375 C 4.695312 -31.945312 4.613281 -31.800781 4.53125 -31.65625 C 4.40625 -31.4375 4.28125 -31.207031 4.15625 -30.96875 C 4.039062 -30.726562 3.929688 -30.484375 3.828125 -30.234375 C 3.359375 -29.222656 2.96875 -28.1875 2.65625 -27.125 C 2.300781 -25.976562 2.035156 -24.800781 1.859375 -23.59375 C 1.691406 -22.394531 1.609375 -21.195312 1.609375 -20 C 1.609375 -19.46875 1.617188 -18.929688 1.640625 -18.390625 C 1.671875 -17.847656 1.726562 -17.3125 1.8125 -16.78125 C 1.84375 -16.625 1.890625 -16.375 1.953125 -16.03125 C 2.015625 -15.6875 2.109375 -15.359375 2.234375 -15.046875 C 2.460938 -15.367188 2.671875 -15.738281 2.859375 -16.15625 C 3.046875 -16.582031 3.210938 -16.988281 3.359375 -17.375 C 3.515625 -17.757812 3.625 -18.039062 3.6875 -18.21875 C 3.945312 -18.914062 4.179688 -19.617188 4.390625 -20.328125 C 4.597656 -21.035156 4.800781 -21.75 5 -22.46875 Z M 5 -22.46875 "/></g></g></g><g fill="#ffffff" fill-opacity="1"><g transform="translate(412.590691, 63.499967)"><g/></g></g><g fill="#ffffff" fill-opacity="1"><g transform="translate(422.413955, 63.499967)"><g><path d="M 12.171875 -25.859375 C 11.867188 -24.515625 11.570312 -23.175781 11.28125 -21.84375 C 11 -20.519531 10.695312 -19.265625 10.375 -18.078125 C 10.0625 -16.890625 9.710938 -15.820312 9.328125 -14.875 C 8.941406 -13.925781 8.503906 -13.164062 8.015625 -12.59375 C 7.523438 -12.019531 6.96875 -11.691406 6.34375 -11.609375 C 5.351562 -11.460938 4.488281 -11.550781 3.75 -11.875 C 3.007812 -12.195312 2.375 -12.691406 1.84375 -13.359375 C 1.320312 -14.035156 0.878906 -14.820312 0.515625 -15.71875 C 0.160156 -16.625 -0.125 -17.578125 -0.34375 -18.578125 C -0.5625 -19.578125 -0.722656 -20.578125 -0.828125 -21.578125 C -0.941406 -22.585938 -1.019531 -23.53125 -1.0625 -24.40625 C -1.113281 -25.28125 -1.144531 -26.03125 -1.15625 -26.65625 C -1.195312 -28.976562 -1.125 -31.335938 -0.9375 -33.734375 C -0.757812 -36.140625 -0.441406 -38.523438 0.015625 -40.890625 C 0.472656 -43.265625 1.085938 -45.546875 1.859375 -47.734375 C 2.335938 -49.097656 2.796875 -50.234375 3.234375 -51.140625 C 3.671875 -52.046875 4.082031 -52.769531 4.46875 -53.3125 C 4.851562 -53.863281 5.210938 -54.273438 5.546875 -54.546875 C 5.890625 -54.828125 6.203125 -55.007812 6.484375 -55.09375 C 7.523438 -55.457031 8.4375 -55.210938 9.21875 -54.359375 C 9.632812 -53.898438 9.890625 -53.207031 9.984375 -52.28125 C 10.085938 -51.363281 10.050781 -50.273438 9.875 -49.015625 C 9.707031 -47.753906 9.421875 -46.398438 9.015625 -44.953125 C 8.609375 -43.503906 8.085938 -42.015625 7.453125 -40.484375 C 6.816406 -38.960938 6.09375 -37.46875 5.28125 -36 C 4.46875 -34.53125 3.582031 -33.160156 2.625 -31.890625 C 2.59375 -31.441406 2.570312 -30.898438 2.5625 -30.265625 C 2.550781 -29.628906 2.546875 -28.992188 2.546875 -28.359375 C 2.546875 -27.734375 2.546875 -27.191406 2.546875 -26.734375 C 2.566406 -25.347656 2.640625 -23.9375 2.765625 -22.5 C 2.890625 -21.070312 3.117188 -19.671875 3.453125 -18.296875 C 3.628906 -17.691406 3.828125 -17.082031 4.046875 -16.46875 C 4.273438 -15.851562 4.554688 -15.273438 4.890625 -14.734375 C 5.097656 -14.398438 5.300781 -14.140625 5.5 -13.953125 C 5.695312 -13.773438 6 -13.695312 6.40625 -13.71875 C 6.75 -13.726562 7.082031 -13.941406 7.40625 -14.359375 C 7.726562 -14.773438 8.035156 -15.320312 8.328125 -16 C 8.617188 -16.675781 8.894531 -17.421875 9.15625 -18.234375 C 9.414062 -19.054688 9.65625 -19.890625 9.875 -20.734375 C 10.101562 -21.585938 10.304688 -22.394531 10.484375 -23.15625 C 10.660156 -23.914062 10.8125 -24.566406 10.9375 -25.109375 C 11.070312 -25.648438 11.171875 -26.023438 11.234375 -26.234375 C 11.335938 -26.546875 11.476562 -26.710938 11.65625 -26.734375 C 11.832031 -26.765625 11.976562 -26.691406 12.09375 -26.515625 C 12.207031 -26.347656 12.234375 -26.128906 12.171875 -25.859375 Z M 4.34375 -43.640625 C 4.0625 -42.242188 3.804688 -40.84375 3.578125 -39.4375 C 3.359375 -38.03125 3.160156 -36.617188 2.984375 -35.203125 C 3.160156 -35.359375 3.394531 -35.6875 3.6875 -36.1875 C 3.988281 -36.695312 4.328125 -37.335938 4.703125 -38.109375 C 5.085938 -38.890625 5.476562 -39.75 5.875 -40.6875 C 6.269531 -41.625 6.648438 -42.601562 7.015625 -43.625 C 7.390625 -44.65625 7.71875 -45.675781 8 -46.6875 C 8.289062 -47.695312 8.507812 -48.660156 8.65625 -49.578125 C 8.800781 -50.492188 8.847656 -51.3125 8.796875 -52.03125 C 8.753906 -52.757812 8.582031 -53.335938 8.28125 -53.765625 C 8.019531 -53.691406 7.753906 -53.453125 7.484375 -53.046875 C 7.210938 -52.640625 6.941406 -52.128906 6.671875 -51.515625 C 6.398438 -50.898438 6.144531 -50.226562 5.90625 -49.5 C 5.664062 -48.78125 5.441406 -48.050781 5.234375 -47.3125 C 5.023438 -46.582031 4.84375 -45.894531 4.6875 -45.25 C 4.539062 -44.613281 4.425781 -44.078125 4.34375 -43.640625 Z M 4.34375 -43.640625 "/></g></g></g><g fill="#ffffff" fill-opacity="1"><g transform="translate(433.604262, 63.499967)"><g><path d="M 15.640625 -27.5 C 15.660156 -27.5625 15.738281 -27.597656 15.875 -27.609375 C 16.019531 -27.628906 16.164062 -27.625 16.3125 -27.59375 C 16.457031 -27.570312 16.519531 -27.53125 16.5 -27.46875 C 16.3125 -25.832031 16.050781 -24.195312 15.71875 -22.5625 C 15.382812 -20.9375 14.9375 -19.347656 14.375 -17.796875 C 14.164062 -17.210938 13.929688 -16.613281 13.671875 -16 C 13.410156 -15.394531 13.09375 -14.859375 12.71875 -14.390625 C 12.351562 -13.921875 11.894531 -13.585938 11.34375 -13.390625 C 10.800781 -13.191406 10.140625 -13.195312 9.359375 -13.40625 C 8.722656 -13.582031 8.222656 -13.914062 7.859375 -14.40625 C 7.492188 -14.90625 7.222656 -15.492188 7.046875 -16.171875 C 6.867188 -16.847656 6.75 -17.539062 6.6875 -18.25 C 6.550781 -17.832031 6.40625 -17.414062 6.25 -17 C 6.101562 -16.59375 5.941406 -16.191406 5.765625 -15.796875 C 5.523438 -15.265625 5.238281 -14.757812 4.90625 -14.28125 C 4.582031 -13.8125 4.207031 -13.414062 3.78125 -13.09375 C 3.351562 -12.78125 2.875 -12.578125 2.34375 -12.484375 C 1.820312 -12.398438 1.238281 -12.484375 0.59375 -12.734375 C 0.03125 -12.953125 -0.414062 -13.28125 -0.75 -13.71875 C -1.09375 -14.15625 -1.351562 -14.644531 -1.53125 -15.1875 C -1.707031 -15.738281 -1.832031 -16.304688 -1.90625 -16.890625 C -1.976562 -17.484375 -2.023438 -18.039062 -2.046875 -18.5625 C -2.128906 -19.945312 -2.09375 -21.328125 -1.9375 -22.703125 C -1.78125 -24.078125 -1.519531 -25.4375 -1.15625 -26.78125 C -1 -27.351562 -0.816406 -27.96875 -0.609375 -28.625 C -0.410156 -29.28125 -0.175781 -29.929688 0.09375 -30.578125 C 0.375 -31.222656 0.695312 -31.820312 1.0625 -32.375 C 1.425781 -32.9375 1.851562 -33.414062 2.34375 -33.8125 C 2.71875 -34.113281 3.148438 -34.34375 3.640625 -34.5 C 4.140625 -34.664062 4.648438 -34.75 5.171875 -34.75 C 5.691406 -34.75 6.191406 -34.660156 6.671875 -34.484375 C 7.160156 -34.304688 7.570312 -34.03125 7.90625 -33.65625 C 7.9375 -33.625 7.960938 -33.59375 7.984375 -33.5625 C 8.015625 -33.53125 8.039062 -33.492188 8.0625 -33.453125 C 8.445312 -33.554688 8.835938 -33.59375 9.234375 -33.5625 C 9.640625 -33.539062 9.984375 -33.453125 10.265625 -33.296875 C 10.546875 -33.140625 10.671875 -32.921875 10.640625 -32.640625 C 10.515625 -30.828125 10.394531 -29 10.28125 -27.15625 C 10.175781 -25.3125 10.148438 -23.472656 10.203125 -21.640625 C 10.253906 -19.816406 10.453125 -18.007812 10.796875 -16.21875 C 10.816406 -16.082031 10.84375 -15.945312 10.875 -15.8125 C 10.90625 -15.675781 10.941406 -15.539062 10.984375 -15.40625 C 11.117188 -15.582031 11.25 -15.753906 11.375 -15.921875 C 11.5 -16.085938 11.613281 -16.253906 11.71875 -16.421875 C 12.082031 -16.960938 12.410156 -17.507812 12.703125 -18.0625 C 12.992188 -18.625 13.265625 -19.195312 13.515625 -19.78125 C 14.046875 -21.019531 14.484375 -22.28125 14.828125 -23.5625 C 15.179688 -24.84375 15.453125 -26.15625 15.640625 -27.5 Z M 5 -22.46875 C 5.351562 -23.695312 5.640625 -24.941406 5.859375 -26.203125 C 6.078125 -27.460938 6.289062 -28.722656 6.5 -29.984375 C 6.414062 -30.242188 6.300781 -30.5 6.15625 -30.75 C 6.019531 -30.96875 5.894531 -31.1875 5.78125 -31.40625 C 5.664062 -31.625 5.535156 -31.835938 5.390625 -32.046875 C 5.335938 -32.128906 5.28125 -32.207031 5.21875 -32.28125 C 5.164062 -32.363281 5.109375 -32.441406 5.046875 -32.515625 C 4.953125 -32.378906 4.863281 -32.238281 4.78125 -32.09375 C 4.695312 -31.945312 4.613281 -31.800781 4.53125 -31.65625 C 4.40625 -31.4375 4.28125 -31.207031 4.15625 -30.96875 C 4.039062 -30.726562 3.929688 -30.484375 3.828125 -30.234375 C 3.359375 -29.222656 2.96875 -28.1875 2.65625 -27.125 C 2.300781 -25.976562 2.035156 -24.800781 1.859375 -23.59375 C 1.691406 -22.394531 1.609375 -21.195312 1.609375 -20 C 1.609375 -19.46875 1.617188 -18.929688 1.640625 -18.390625 C 1.671875 -17.847656 1.726562 -17.3125 1.8125 -16.78125 C 1.84375 -16.625 1.890625 -16.375 1.953125 -16.03125 C 2.015625 -15.6875 2.109375 -15.359375 2.234375 -15.046875 C 2.460938 -15.367188 2.671875 -15.738281 2.859375 -16.15625 C 3.046875 -16.582031 3.210938 -16.988281 3.359375 -17.375 C 3.515625 -17.757812 3.625 -18.039062 3.6875 -18.21875 C 3.945312 -18.914062 4.179688 -19.617188 4.390625 -20.328125 C 4.597656 -21.035156 4.800781 -21.75 5 -22.46875 Z M 5 -22.46875 "/></g></g></g><g fill="#ffffff" fill-opacity="1"><g transform="translate(449.364469, 63.499967)"><g/></g></g><g fill="#ffffff" fill-opacity="1"><g transform="translate(459.18771, 63.499967)"><g><path d="M 18.328125 -36.71875 C 18.046875 -36.300781 17.8125 -35.867188 17.625 -35.421875 C 17.4375 -34.984375 17.253906 -34.519531 17.078125 -34.03125 C 16.785156 -33.207031 16.519531 -32.378906 16.28125 -31.546875 C 16.050781 -30.710938 15.828125 -29.875 15.609375 -29.03125 C 15.140625 -27.132812 14.78125 -25.234375 14.53125 -23.328125 C 14.28125 -21.429688 13.988281 -19.535156 13.65625 -17.640625 C 13.644531 -17.492188 13.519531 -17.363281 13.28125 -17.25 C 13.15625 -17.15625 13.003906 -17.082031 12.828125 -17.03125 C 12.648438 -16.988281 12.484375 -16.96875 12.328125 -16.96875 C 11.390625 -17 10.644531 -17.21875 10.09375 -17.625 C 9.539062 -18.039062 9.125 -18.59375 8.84375 -19.28125 C 8.5625 -19.96875 8.378906 -20.753906 8.296875 -21.640625 C 8.222656 -22.523438 8.191406 -23.441406 8.203125 -24.390625 C 8.210938 -24.847656 8.25 -25.46875 8.3125 -26.25 C 8.382812 -27.03125 8.460938 -27.882812 8.546875 -28.8125 C 8.640625 -29.738281 8.738281 -30.65625 8.84375 -31.5625 C 8.945312 -32.476562 9.039062 -33.289062 9.125 -34 C 9.03125 -33.875 8.945312 -33.742188 8.875 -33.609375 C 8.800781 -33.472656 8.734375 -33.351562 8.671875 -33.25 C 8.460938 -32.863281 8.265625 -32.46875 8.078125 -32.0625 C 7.898438 -31.65625 7.722656 -31.242188 7.546875 -30.828125 C 7.160156 -29.910156 6.800781 -28.984375 6.46875 -28.046875 C 6.144531 -27.117188 5.835938 -26.179688 5.546875 -25.234375 C 5.066406 -23.578125 4.640625 -21.898438 4.265625 -20.203125 C 3.898438 -18.503906 3.546875 -16.800781 3.203125 -15.09375 C 3.234375 -14.75 3.273438 -14.398438 3.328125 -14.046875 C 3.378906 -13.691406 3.414062 -13.40625 3.4375 -13.1875 C 3.46875 -12.976562 3.4375 -12.785156 3.34375 -12.609375 C 3.257812 -12.429688 3.078125 -12.210938 2.796875 -11.953125 C 2.578125 -11.753906 2.273438 -11.640625 1.890625 -11.609375 C 1.503906 -11.585938 1.179688 -11.648438 0.921875 -11.796875 C 0.566406 -11.992188 0.304688 -12.160156 0.140625 -12.296875 C -0.015625 -12.429688 -0.125 -12.597656 -0.1875 -12.796875 C -0.25 -13.003906 -0.3125 -13.300781 -0.375 -13.6875 C -0.4375 -14.1875 -0.492188 -14.679688 -0.546875 -15.171875 C -0.609375 -15.660156 -0.65625 -16.148438 -0.6875 -16.640625 C -0.738281 -17.578125 -0.757812 -18.515625 -0.75 -19.453125 C -0.75 -20.398438 -0.722656 -21.34375 -0.671875 -22.28125 C -0.640625 -22.625 -0.597656 -23.082031 -0.546875 -23.65625 C -0.503906 -24.226562 -0.445312 -24.867188 -0.375 -25.578125 C -0.3125 -26.296875 -0.234375 -27.03125 -0.140625 -27.78125 C -0.046875 -28.53125 0.0546875 -29.242188 0.171875 -29.921875 C 0.296875 -30.597656 0.414062 -31.191406 0.53125 -31.703125 C 0.65625 -32.210938 0.789062 -32.578125 0.9375 -32.796875 C 1.03125 -32.972656 1.207031 -33.125 1.46875 -33.25 C 1.738281 -33.382812 2.035156 -33.476562 2.359375 -33.53125 C 2.691406 -33.582031 3.007812 -33.59375 3.3125 -33.5625 C 3.613281 -33.539062 3.863281 -33.46875 4.0625 -33.34375 C 4.269531 -33.226562 4.367188 -33.050781 4.359375 -32.8125 C 4.347656 -32.394531 4.289062 -31.882812 4.1875 -31.28125 C 4.082031 -30.6875 3.96875 -30.078125 3.84375 -29.453125 C 3.726562 -28.828125 3.640625 -28.253906 3.578125 -27.734375 C 3.390625 -26.390625 3.253906 -25.078125 3.171875 -23.796875 C 3.273438 -24.171875 3.375 -24.539062 3.46875 -24.90625 C 3.5625 -25.269531 3.671875 -25.632812 3.796875 -26 C 4.117188 -27.050781 4.460938 -28.097656 4.828125 -29.140625 C 5.191406 -30.191406 5.5625 -31.191406 5.9375 -32.140625 C 6.3125 -33.097656 6.671875 -33.957031 7.015625 -34.71875 C 7.367188 -35.488281 7.679688 -36.113281 7.953125 -36.59375 C 8.222656 -37.082031 8.441406 -37.382812 8.609375 -37.5 C 8.921875 -37.707031 9.289062 -37.8125 9.71875 -37.8125 C 10.144531 -37.820312 10.566406 -37.75 10.984375 -37.59375 C 11.410156 -37.4375 11.785156 -37.207031 12.109375 -36.90625 C 12.429688 -36.613281 12.660156 -36.265625 12.796875 -35.859375 C 12.953125 -35.378906 12.992188 -34.957031 12.921875 -34.59375 C 12.847656 -34.238281 12.78125 -33.816406 12.71875 -33.328125 C 12.65625 -32.734375 12.578125 -32.144531 12.484375 -31.5625 C 12.390625 -30.988281 12.296875 -30.410156 12.203125 -29.828125 C 12.023438 -28.679688 11.875 -27.523438 11.75 -26.359375 C 11.625 -25.191406 11.609375 -24.03125 11.703125 -22.875 C 11.722656 -22.601562 11.753906 -22.328125 11.796875 -22.046875 C 11.847656 -21.765625 11.898438 -21.492188 11.953125 -21.234375 C 12.148438 -23.410156 12.519531 -25.578125 13.0625 -27.734375 C 13.601562 -29.898438 14.191406 -32 14.828125 -34.03125 C 14.929688 -34.363281 15.070312 -34.785156 15.25 -35.296875 C 15.425781 -35.816406 15.628906 -36.359375 15.859375 -36.921875 C 16.097656 -37.492188 16.375 -38.039062 16.6875 -38.5625 C 17 -39.082031 17.34375 -39.507812 17.71875 -39.84375 C 18 -40.101562 18.351562 -40.203125 18.78125 -40.140625 C 19.21875 -40.078125 19.65625 -39.90625 20.09375 -39.625 C 20.539062 -39.351562 20.925781 -39.03125 21.25 -38.65625 C 21.570312 -38.28125 21.757812 -37.910156 21.8125 -37.546875 C 21.863281 -36.503906 21.847656 -35.300781 21.765625 -33.9375 C 21.679688 -32.570312 21.554688 -31.113281 21.390625 -29.5625 C 21.234375 -28.007812 21.066406 -26.40625 20.890625 -24.75 C 20.710938 -23.101562 20.5625 -21.46875 20.4375 -19.84375 C 20.3125 -18.226562 20.242188 -16.675781 20.234375 -15.1875 C 20.234375 -13.695312 20.3125 -12.328125 20.46875 -11.078125 C 20.632812 -9.828125 20.921875 -8.75 21.328125 -7.84375 C 21.734375 -6.9375 22.285156 -6.269531 22.984375 -5.84375 C 23.117188 -5.78125 23.140625 -5.695312 23.046875 -5.59375 C 22.953125 -5.5 22.828125 -5.414062 22.671875 -5.34375 C 22.515625 -5.269531 22.40625 -5.226562 22.34375 -5.21875 C 21.394531 -5.082031 20.582031 -5.179688 19.90625 -5.515625 C 19.226562 -5.847656 18.671875 -6.34375 18.234375 -7 C 17.804688 -7.65625 17.476562 -8.410156 17.25 -9.265625 C 17.082031 -9.816406 16.972656 -10.578125 16.921875 -11.546875 C 16.867188 -12.523438 16.859375 -13.640625 16.890625 -14.890625 C 16.929688 -16.140625 17 -17.472656 17.09375 -18.890625 C 17.1875 -20.304688 17.296875 -21.742188 17.421875 -23.203125 C 17.554688 -24.671875 17.679688 -26.101562 17.796875 -27.5 C 17.921875 -28.90625 18.03125 -30.21875 18.125 -31.4375 C 18.226562 -32.65625 18.300781 -33.71875 18.34375 -34.625 C 18.382812 -35.539062 18.378906 -36.238281 18.328125 -36.71875 Z M 18.328125 -36.71875 "/></g></g></g><g fill="#ffffff" fill-opacity="1"><g transform="translate(484.653971, 63.499967)"><g><path d="M 7.9375 -24.203125 C 7.570312 -23.585938 7.140625 -23.019531 6.640625 -22.5 C 6.148438 -21.988281 5.59375 -21.585938 4.96875 -21.296875 C 4.351562 -21.015625 3.660156 -20.910156 2.890625 -20.984375 C 2.816406 -20.984375 2.738281 -20.988281 2.65625 -21 C 2.582031 -21.007812 2.503906 -21.019531 2.421875 -21.03125 C 2.472656 -20.320312 2.570312 -19.628906 2.71875 -18.953125 C 2.875 -18.273438 3.097656 -17.664062 3.390625 -17.125 C 3.691406 -16.582031 4.085938 -16.140625 4.578125 -15.796875 C 5.078125 -15.460938 5.6875 -15.28125 6.40625 -15.25 C 7.03125 -15.226562 7.617188 -15.375 8.171875 -15.6875 C 8.722656 -16 9.234375 -16.410156 9.703125 -16.921875 C 10.171875 -17.441406 10.597656 -17.988281 10.984375 -18.5625 C 11.378906 -19.132812 11.734375 -19.671875 12.046875 -20.171875 C 12.148438 -20.347656 12.296875 -20.628906 12.484375 -21.015625 C 12.679688 -21.410156 12.890625 -21.863281 13.109375 -22.375 C 13.328125 -22.882812 13.539062 -23.414062 13.75 -23.96875 C 13.96875 -24.53125 14.160156 -25.078125 14.328125 -25.609375 C 14.492188 -26.140625 14.613281 -26.609375 14.6875 -27.015625 C 14.738281 -27.285156 14.851562 -27.457031 15.03125 -27.53125 C 15.207031 -27.613281 15.367188 -27.609375 15.515625 -27.515625 C 15.671875 -27.429688 15.710938 -27.257812 15.640625 -27 C 15.484375 -26.300781 15.257812 -25.507812 14.96875 -24.625 C 14.675781 -23.738281 14.34375 -22.832031 13.96875 -21.90625 C 13.59375 -20.976562 13.195312 -20.078125 12.78125 -19.203125 C 12.257812 -18.097656 11.648438 -17.09375 10.953125 -16.1875 C 10.253906 -15.28125 9.488281 -14.550781 8.65625 -14 C 7.832031 -13.457031 6.953125 -13.15625 6.015625 -13.09375 C 5.140625 -13.019531 4.296875 -13.097656 3.484375 -13.328125 C 2.671875 -13.566406 1.945312 -13.953125 1.3125 -14.484375 C 0.675781 -15.023438 0.160156 -15.707031 -0.234375 -16.53125 C -0.597656 -17.332031 -0.859375 -18.1875 -1.015625 -19.09375 C -1.171875 -20.007812 -1.25 -20.9375 -1.25 -21.875 C -1.257812 -22.820312 -1.238281 -23.726562 -1.1875 -24.59375 C -1.15625 -25.289062 -1.0625 -26.0625 -0.90625 -26.90625 C -0.757812 -27.75 -0.546875 -28.601562 -0.265625 -29.46875 C 0.00390625 -30.34375 0.34375 -31.179688 0.75 -31.984375 C 1.164062 -32.796875 1.648438 -33.519531 2.203125 -34.15625 C 2.765625 -34.800781 3.40625 -35.3125 4.125 -35.6875 C 4.84375 -36.0625 5.644531 -36.25 6.53125 -36.25 C 7.382812 -36.25 8.070312 -36.082031 8.59375 -35.75 C 9.113281 -35.414062 9.492188 -34.957031 9.734375 -34.375 C 9.972656 -33.800781 10.109375 -33.148438 10.140625 -32.421875 C 10.179688 -31.703125 10.132812 -30.945312 10 -30.15625 C 9.875 -29.375 9.691406 -28.601562 9.453125 -27.84375 C 9.222656 -27.09375 8.972656 -26.398438 8.703125 -25.765625 C 8.429688 -25.140625 8.175781 -24.617188 7.9375 -24.203125 Z M 2.390625 -22.5 C 2.421875 -22.476562 2.457031 -22.453125 2.5 -22.421875 C 2.539062 -22.398438 2.585938 -22.375 2.640625 -22.34375 C 3.023438 -22.144531 3.382812 -22.101562 3.71875 -22.21875 C 4.0625 -22.332031 4.375 -22.53125 4.65625 -22.8125 C 4.945312 -23.101562 5.203125 -23.421875 5.421875 -23.765625 C 5.648438 -24.109375 5.84375 -24.410156 6 -24.671875 C 6.570312 -25.703125 7.03125 -26.789062 7.375 -27.9375 C 7.71875 -29.082031 7.894531 -30.238281 7.90625 -31.40625 C 7.925781 -31.707031 7.914062 -32.078125 7.875 -32.515625 C 7.84375 -32.960938 7.757812 -33.390625 7.625 -33.796875 C 7.5 -34.210938 7.28125 -34.503906 6.96875 -34.671875 C 6.6875 -34.835938 6.328125 -34.757812 5.890625 -34.4375 C 5.453125 -34.125 5.007812 -33.597656 4.5625 -32.859375 C 4.113281 -32.128906 3.710938 -31.210938 3.359375 -30.109375 C 3.003906 -29.003906 2.757812 -27.757812 2.625 -26.375 C 2.582031 -25.957031 2.53125 -25.40625 2.46875 -24.71875 C 2.414062 -24.03125 2.390625 -23.289062 2.390625 -22.5 Z M 2.390625 -22.5 "/></g></g></g><g fill="#ffffff" fill-opacity="1"><g transform="translate(499.49627, 63.499967)"><g><path d="M 10.390625 -23.75 C 10.328125 -23.632812 10.164062 -23.550781 9.90625 -23.5 C 9.65625 -23.445312 9.378906 -23.429688 9.078125 -23.453125 C 8.785156 -23.472656 8.539062 -23.53125 8.34375 -23.625 C 8.144531 -23.71875 8.070312 -23.851562 8.125 -24.03125 C 8.28125 -24.582031 8.429688 -25.207031 8.578125 -25.90625 C 8.722656 -26.601562 8.8125 -27.316406 8.84375 -28.046875 C 8.882812 -28.785156 8.84375 -29.5 8.71875 -30.1875 C 8.59375 -30.882812 8.347656 -31.519531 7.984375 -32.09375 C 7.617188 -32.664062 7.09375 -33.128906 6.40625 -33.484375 C 6 -33.691406 5.675781 -33.773438 5.4375 -33.734375 C 5.195312 -33.703125 4.910156 -33.550781 4.578125 -33.28125 C 4.128906 -32.914062 3.742188 -32.460938 3.421875 -31.921875 C 3.097656 -31.378906 2.835938 -30.835938 2.640625 -30.296875 C 2.191406 -29.015625 2.101562 -27.726562 2.375 -26.4375 C 2.65625 -25.144531 3.234375 -23.988281 4.109375 -22.96875 C 4.503906 -22.5 4.945312 -22.082031 5.4375 -21.71875 C 5.925781 -21.363281 6.425781 -21.023438 6.9375 -20.703125 C 7.457031 -20.390625 7.960938 -20.0625 8.453125 -19.71875 C 8.941406 -19.382812 9.394531 -19 9.8125 -18.5625 C 10.34375 -18 10.695312 -17.390625 10.875 -16.734375 C 11.0625 -16.078125 11.046875 -15.4375 10.828125 -14.8125 C 10.617188 -14.195312 10.1875 -13.660156 9.53125 -13.203125 C 8.9375 -12.785156 8.273438 -12.484375 7.546875 -12.296875 C 6.816406 -12.109375 6.09375 -11.992188 5.375 -11.953125 C 4.21875 -11.898438 3.164062 -12.050781 2.21875 -12.40625 C 1.269531 -12.769531 0.5 -13.34375 -0.09375 -14.125 C -0.6875 -14.90625 -1.046875 -15.894531 -1.171875 -17.09375 C -1.203125 -17.351562 -1.097656 -17.5625 -0.859375 -17.71875 C -0.628906 -17.882812 -0.332031 -18 0.03125 -18.0625 C 0.40625 -18.132812 0.773438 -18.148438 1.140625 -18.109375 C 1.515625 -18.066406 1.832031 -17.96875 2.09375 -17.8125 C 2.363281 -17.65625 2.515625 -17.441406 2.546875 -17.171875 C 2.597656 -16.710938 2.703125 -16.234375 2.859375 -15.734375 C 3.015625 -15.242188 3.25 -14.820312 3.5625 -14.46875 C 3.882812 -14.125 4.316406 -13.925781 4.859375 -13.875 C 5.203125 -13.84375 5.546875 -13.890625 5.890625 -14.015625 C 6.242188 -14.140625 6.546875 -14.320312 6.796875 -14.5625 C 7.054688 -14.8125 7.222656 -15.125 7.296875 -15.5 C 7.367188 -15.875 7.300781 -16.296875 7.09375 -16.765625 C 6.925781 -17.160156 6.679688 -17.5 6.359375 -17.78125 C 6.035156 -18.070312 5.6875 -18.332031 5.3125 -18.5625 C 4.9375 -18.789062 4.570312 -19.015625 4.21875 -19.234375 C 3.726562 -19.546875 3.242188 -19.878906 2.765625 -20.234375 C 2.285156 -20.597656 1.835938 -20.984375 1.421875 -21.390625 C 0.609375 -22.191406 -0.0664062 -23.097656 -0.609375 -24.109375 C -1.148438 -25.128906 -1.445312 -26.226562 -1.5 -27.40625 C -1.539062 -28.34375 -1.425781 -29.265625 -1.15625 -30.171875 C -0.882812 -31.078125 -0.484375 -31.910156 0.046875 -32.671875 C 0.585938 -33.441406 1.222656 -34.085938 1.953125 -34.609375 C 2.691406 -35.128906 3.507812 -35.476562 4.40625 -35.65625 C 5.3125 -35.832031 6.257812 -35.789062 7.25 -35.53125 C 8.34375 -35.238281 9.226562 -34.773438 9.90625 -34.140625 C 10.59375 -33.515625 11.097656 -32.78125 11.421875 -31.9375 C 11.753906 -31.09375 11.921875 -30.191406 11.921875 -29.234375 C 11.929688 -28.285156 11.800781 -27.335938 11.53125 -26.390625 C 11.269531 -25.453125 10.890625 -24.570312 10.390625 -23.75 Z M 10.390625 -23.75 "/></g></g></g><g fill="#ffffff" fill-opacity="1"><g transform="translate(513.205879, 63.499967)"><g><path d="M 15.640625 -27.5 C 15.660156 -27.5625 15.738281 -27.597656 15.875 -27.609375 C 16.019531 -27.628906 16.164062 -27.625 16.3125 -27.59375 C 16.457031 -27.570312 16.519531 -27.53125 16.5 -27.46875 C 16.3125 -25.832031 16.050781 -24.195312 15.71875 -22.5625 C 15.382812 -20.9375 14.9375 -19.347656 14.375 -17.796875 C 14.164062 -17.210938 13.929688 -16.613281 13.671875 -16 C 13.410156 -15.394531 13.09375 -14.859375 12.71875 -14.390625 C 12.351562 -13.921875 11.894531 -13.585938 11.34375 -13.390625 C 10.800781 -13.191406 10.140625 -13.195312 9.359375 -13.40625 C 8.722656 -13.582031 8.222656 -13.914062 7.859375 -14.40625 C 7.492188 -14.90625 7.222656 -15.492188 7.046875 -16.171875 C 6.867188 -16.847656 6.75 -17.539062 6.6875 -18.25 C 6.550781 -17.832031 6.40625 -17.414062 6.25 -17 C 6.101562 -16.59375 5.941406 -16.191406 5.765625 -15.796875 C 5.523438 -15.265625 5.238281 -14.757812 4.90625 -14.28125 C 4.582031 -13.8125 4.207031 -13.414062 3.78125 -13.09375 C 3.351562 -12.78125 2.875 -12.578125 2.34375 -12.484375 C 1.820312 -12.398438 1.238281 -12.484375 0.59375 -12.734375 C 0.03125 -12.953125 -0.414062 -13.28125 -0.75 -13.71875 C -1.09375 -14.15625 -1.351562 -14.644531 -1.53125 -15.1875 C -1.707031 -15.738281 -1.832031 -16.304688 -1.90625 -16.890625 C -1.976562 -17.484375 -2.023438 -18.039062 -2.046875 -18.5625 C -2.128906 -19.945312 -2.09375 -21.328125 -1.9375 -22.703125 C -1.78125 -24.078125 -1.519531 -25.4375 -1.15625 -26.78125 C -1 -27.351562 -0.816406 -27.96875 -0.609375 -28.625 C -0.410156 -29.28125 -0.175781 -29.929688 0.09375 -30.578125 C 0.375 -31.222656 0.695312 -31.820312 1.0625 -32.375 C 1.425781 -32.9375 1.851562 -33.414062 2.34375 -33.8125 C 2.71875 -34.113281 3.148438 -34.34375 3.640625 -34.5 C 4.140625 -34.664062 4.648438 -34.75 5.171875 -34.75 C 5.691406 -34.75 6.191406 -34.660156 6.671875 -34.484375 C 7.160156 -34.304688 7.570312 -34.03125 7.90625 -33.65625 C 7.9375 -33.625 7.960938 -33.59375 7.984375 -33.5625 C 8.015625 -33.53125 8.039062 -33.492188 8.0625 -33.453125 C 8.445312 -33.554688 8.835938 -33.59375 9.234375 -33.5625 C 9.640625 -33.539062 9.984375 -33.453125 10.265625 -33.296875 C 10.546875 -33.140625 10.671875 -32.921875 10.640625 -32.640625 C 10.515625 -30.828125 10.394531 -29 10.28125 -27.15625 C 10.175781 -25.3125 10.148438 -23.472656 10.203125 -21.640625 C 10.253906 -19.816406 10.453125 -18.007812 10.796875 -16.21875 C 10.816406 -16.082031 10.84375 -15.945312 10.875 -15.8125 C 10.90625 -15.675781 10.941406 -15.539062 10.984375 -15.40625 C 11.117188 -15.582031 11.25 -15.753906 11.375 -15.921875 C 11.5 -16.085938 11.613281 -16.253906 11.71875 -16.421875 C 12.082031 -16.960938 12.410156 -17.507812 12.703125 -18.0625 C 12.992188 -18.625 13.265625 -19.195312 13.515625 -19.78125 C 14.046875 -21.019531 14.484375 -22.28125 14.828125 -23.5625 C 15.179688 -24.84375 15.453125 -26.15625 15.640625 -27.5 Z M 5 -22.46875 C 5.351562 -23.695312 5.640625 -24.941406 5.859375 -26.203125 C 6.078125 -27.460938 6.289062 -28.722656 6.5 -29.984375 C 6.414062 -30.242188 6.300781 -30.5 6.15625 -30.75 C 6.019531 -30.96875 5.894531 -31.1875 5.78125 -31.40625 C 5.664062 -31.625 5.535156 -31.835938 5.390625 -32.046875 C 5.335938 -32.128906 5.28125 -32.207031 5.21875 -32.28125 C 5.164062 -32.363281 5.109375 -32.441406 5.046875 -32.515625 C 4.953125 -32.378906 4.863281 -32.238281 4.78125 -32.09375 C 4.695312 -31.945312 4.613281 -31.800781 4.53125 -31.65625 C 4.40625 -31.4375 4.28125 -31.207031 4.15625 -30.96875 C 4.039062 -30.726562 3.929688 -30.484375 3.828125 -30.234375 C 3.359375 -29.222656 2.96875 -28.1875 2.65625 -27.125 C 2.300781 -25.976562 2.035156 -24.800781 1.859375 -23.59375 C 1.691406 -22.394531 1.609375 -21.195312 1.609375 -20 C 1.609375 -19.46875 1.617188 -18.929688 1.640625 -18.390625 C 1.671875 -17.847656 1.726562 -17.3125 1.8125 -16.78125 C 1.84375 -16.625 1.890625 -16.375 1.953125 -16.03125 C 2.015625 -15.6875 2.109375 -15.359375 2.234375 -15.046875 C 2.460938 -15.367188 2.671875 -15.738281 2.859375 -16.15625 C 3.046875 -16.582031 3.210938 -16.988281 3.359375 -17.375 C 3.515625 -17.757812 3.625 -18.039062 3.6875 -18.21875 C 3.945312 -18.914062 4.179688 -19.617188 4.390625 -20.328125 C 4.597656 -21.035156 4.800781 -21.75 5 -22.46875 Z M 5 -22.46875 "/></g></g></g></svg>