<svg xmlns="http://www.w3.org/2000/svg" xmlns:xlink="http://www.w3.org/1999/xlink" width="1000" zoomAndPan="magnify" viewBox="0 0 750 74.999997" height="100" preserveAspectRatio="xMidYMid meet" version="1.0"><defs><g/></defs><g fill="#ffffff" fill-opacity="1"><g transform="translate(319.652336, 63.49996)"><g><path d="M 24.546875 -61.0625 C 25.796875 -61.0625 26.925781 -60.734375 27.9375 -60.078125 C 28.957031 -59.429688 29.710938 -58.535156 30.203125 -57.390625 C 30.597656 -56.453125 30.867188 -55.460938 31.015625 -54.421875 C 31.160156 -53.378906 31.234375 -52.328125 31.234375 -51.265625 C 31.242188 -50.210938 31.238281 -49.191406 31.21875 -48.203125 C 31.132812 -44.878906 30.75 -41.585938 30.0625 -38.328125 C 29.90625 -37.578125 29.722656 -36.773438 29.515625 -35.921875 C 29.316406 -35.078125 29.066406 -34.21875 28.765625 -33.34375 C 28.472656 -32.476562 28.113281 -31.664062 27.6875 -30.90625 C 27.257812 -30.144531 26.75 -29.476562 26.15625 -28.90625 C 25.570312 -28.34375 24.878906 -27.929688 24.078125 -27.671875 C 23.285156 -27.410156 22.375 -27.359375 21.34375 -27.515625 C 20.65625 -27.617188 20.070312 -27.910156 19.59375 -28.390625 C 19.125 -28.878906 18.769531 -29.484375 18.53125 -30.203125 C 18.300781 -30.929688 18.1875 -31.703125 18.1875 -32.515625 C 18.195312 -33.953125 18.351562 -35.296875 18.65625 -36.546875 C 18.957031 -37.796875 19.484375 -38.804688 20.234375 -39.578125 C 20.285156 -39.628906 20.390625 -39.660156 20.546875 -39.671875 C 20.703125 -39.691406 20.847656 -39.6875 20.984375 -39.65625 C 21.117188 -39.632812 21.175781 -39.566406 21.15625 -39.453125 C 21.0625 -38.984375 20.945312 -38.394531 20.8125 -37.6875 C 20.675781 -36.988281 20.550781 -36.238281 20.4375 -35.4375 C 20.332031 -34.632812 20.265625 -33.84375 20.234375 -33.0625 C 20.210938 -32.28125 20.257812 -31.570312 20.375 -30.9375 C 20.5 -30.300781 20.722656 -29.789062 21.046875 -29.40625 C 21.378906 -29.03125 21.835938 -28.859375 22.421875 -28.890625 C 22.921875 -28.910156 23.378906 -29.210938 23.796875 -29.796875 C 24.222656 -30.378906 24.609375 -31.164062 24.953125 -32.15625 C 25.304688 -33.144531 25.625 -34.257812 25.90625 -35.5 C 26.1875 -36.738281 26.429688 -38.039062 26.640625 -39.40625 C 26.847656 -40.78125 27.015625 -42.132812 27.140625 -43.46875 C 27.273438 -44.800781 27.375 -46.050781 27.4375 -47.21875 C 27.507812 -48.394531 27.535156 -49.398438 27.515625 -50.234375 C 27.503906 -50.890625 27.488281 -51.582031 27.46875 -52.3125 C 27.445312 -53.039062 27.390625 -53.769531 27.296875 -54.5 C 27.203125 -55.238281 27.023438 -55.9375 26.765625 -56.59375 C 26.515625 -57.257812 26.148438 -57.847656 25.671875 -58.359375 C 25.421875 -58.617188 25.191406 -58.796875 24.984375 -58.890625 C 24.773438 -58.984375 24.492188 -59.003906 24.140625 -58.953125 C 24.046875 -58.929688 23.820312 -58.832031 23.46875 -58.65625 C 23.113281 -58.488281 22.664062 -58.164062 22.125 -57.6875 C 21.582031 -57.207031 20.992188 -56.53125 20.359375 -55.65625 C 19.734375 -54.789062 19.097656 -53.664062 18.453125 -52.28125 C 17.816406 -50.894531 17.226562 -49.1875 16.6875 -47.15625 C 16.507812 -46.53125 16.351562 -45.898438 16.21875 -45.265625 C 16.09375 -44.628906 15.972656 -43.992188 15.859375 -43.359375 C 15.992188 -39.910156 16 -36.457031 15.875 -33 C 15.757812 -29.539062 15.484375 -26.097656 15.046875 -22.671875 C 14.804688 -20.847656 14.519531 -19.035156 14.1875 -17.234375 C 13.851562 -15.429688 13.46875 -13.640625 13.03125 -11.859375 C 12.789062 -10.941406 12.546875 -10.03125 12.296875 -9.125 C 12.046875 -8.226562 11.769531 -7.328125 11.46875 -6.421875 C 11.269531 -5.835938 11.078125 -5.253906 10.890625 -4.671875 C 10.703125 -4.085938 10.46875 -3.53125 10.1875 -3 C 9.914062 -2.46875 9.546875 -1.984375 9.078125 -1.546875 C 8.953125 -1.410156 8.765625 -1.300781 8.515625 -1.21875 C 8.265625 -1.144531 7.992188 -1.101562 7.703125 -1.09375 C 7.421875 -1.09375 7.160156 -1.132812 6.921875 -1.21875 C 6.679688 -1.300781 6.507812 -1.441406 6.40625 -1.640625 C 6.28125 -1.878906 6.25 -2.1875 6.3125 -2.5625 C 6.375 -2.945312 6.488281 -3.359375 6.65625 -3.796875 C 6.832031 -4.242188 7.015625 -4.6875 7.203125 -5.125 C 7.398438 -5.570312 7.554688 -5.976562 7.671875 -6.34375 C 7.929688 -7.15625 8.1875 -7.960938 8.4375 -8.765625 C 8.6875 -9.578125 8.914062 -10.394531 9.125 -11.21875 C 9.5625 -12.851562 9.941406 -14.503906 10.265625 -16.171875 C 10.597656 -17.835938 10.878906 -19.507812 11.109375 -21.1875 C 11.523438 -24.101562 11.820312 -27.023438 12 -29.953125 C 12.175781 -32.890625 12.253906 -35.820312 12.234375 -38.75 C 12.210938 -40.65625 12.1875 -42.585938 12.15625 -44.546875 C 12.125 -46.503906 12.003906 -48.457031 11.796875 -50.40625 C 11.585938 -52.351562 11.222656 -54.242188 10.703125 -56.078125 C 10.640625 -56.296875 10.546875 -56.609375 10.421875 -57.015625 C 10.296875 -57.421875 10.128906 -57.84375 9.921875 -58.28125 C 9.722656 -58.726562 9.488281 -59.109375 9.21875 -59.421875 C 8.945312 -59.734375 8.625 -59.898438 8.25 -59.921875 C 7.757812 -59.960938 7.316406 -59.828125 6.921875 -59.515625 C 6.535156 -59.203125 6.179688 -58.785156 5.859375 -58.265625 C 5.546875 -57.753906 5.238281 -57.203125 4.9375 -56.609375 C 4.675781 -56.054688 4.398438 -55.398438 4.109375 -54.640625 C 3.816406 -53.878906 3.523438 -53.054688 3.234375 -52.171875 C 2.953125 -51.296875 2.695312 -50.40625 2.46875 -49.5 C 2.238281 -48.59375 2.050781 -47.726562 1.90625 -46.90625 C 1.769531 -46.082031 1.695312 -45.335938 1.6875 -44.671875 C 1.6875 -44.003906 1.765625 -43.46875 1.921875 -43.0625 C 2.085938 -42.664062 2.359375 -42.445312 2.734375 -42.40625 C 3.035156 -42.375 3.351562 -42.5 3.6875 -42.78125 C 4.03125 -43.0625 4.378906 -43.445312 4.734375 -43.9375 C 5.097656 -44.4375 5.453125 -44.992188 5.796875 -45.609375 C 6.148438 -46.222656 6.484375 -46.847656 6.796875 -47.484375 C 7.117188 -48.117188 7.410156 -48.722656 7.671875 -49.296875 C 7.929688 -49.878906 8.148438 -50.375 8.328125 -50.78125 C 8.378906 -50.863281 8.488281 -50.921875 8.65625 -50.953125 C 8.820312 -50.992188 8.976562 -51 9.125 -50.96875 C 9.28125 -50.945312 9.351562 -50.863281 9.34375 -50.71875 C 9.3125 -50.394531 9.1875 -49.941406 8.96875 -49.359375 C 8.757812 -48.785156 8.484375 -48.144531 8.140625 -47.4375 C 7.796875 -46.738281 7.40625 -46.035156 6.96875 -45.328125 C 6.539062 -44.617188 6.085938 -43.96875 5.609375 -43.375 C 5.140625 -42.78125 4.664062 -42.300781 4.1875 -41.9375 C 3.71875 -41.570312 3.265625 -41.390625 2.828125 -41.390625 C 2.273438 -41.390625 1.816406 -41.53125 1.453125 -41.8125 C 1.085938 -42.101562 0.804688 -42.5 0.609375 -43 C 0.410156 -43.5 0.269531 -44.066406 0.1875 -44.703125 C 0.113281 -45.347656 0.078125 -46.023438 0.078125 -46.734375 C 0.078125 -47.390625 0.128906 -48.144531 0.234375 -49 C 0.347656 -49.863281 0.515625 -50.773438 0.734375 -51.734375 C 0.960938 -52.703125 1.242188 -53.664062 1.578125 -54.625 C 1.910156 -55.59375 2.300781 -56.507812 2.75 -57.375 C 3.195312 -58.25 3.695312 -59.023438 4.25 -59.703125 C 4.8125 -60.378906 5.4375 -60.910156 6.125 -61.296875 C 6.8125 -61.691406 7.550781 -61.890625 8.34375 -61.890625 C 9.28125 -61.890625 10.082031 -61.75 10.75 -61.46875 C 11.425781 -61.195312 11.988281 -60.8125 12.4375 -60.3125 C 12.894531 -59.820312 13.273438 -59.242188 13.578125 -58.578125 C 13.890625 -57.910156 14.15625 -57.1875 14.375 -56.40625 C 14.71875 -55.21875 14.972656 -54.019531 15.140625 -52.8125 C 15.316406 -51.613281 15.453125 -50.40625 15.546875 -49.1875 C 15.953125 -50.394531 16.410156 -51.578125 16.921875 -52.734375 C 17.441406 -53.890625 18 -54.96875 18.59375 -55.96875 C 19.195312 -56.976562 19.828125 -57.863281 20.484375 -58.625 C 21.140625 -59.382812 21.8125 -59.976562 22.5 -60.40625 C 23.1875 -60.84375 23.867188 -61.0625 24.546875 -61.0625 Z M 24.546875 -61.0625 "/></g></g></g><g fill="#ffffff" fill-opacity="1"><g transform="translate(350.020468, 63.49996)"><g><path d="M 14.109375 -26.5625 C 14.171875 -26.695312 14.269531 -26.773438 14.40625 -26.796875 C 14.550781 -26.828125 14.671875 -26.800781 14.765625 -26.71875 C 14.867188 -26.644531 14.890625 -26.519531 14.828125 -26.34375 C 14.660156 -25.09375 14.171875 -24.0625 13.359375 -23.25 C 12.554688 -22.4375 11.457031 -21.757812 10.0625 -21.21875 C 9.90625 -20.132812 9.679688 -19.0625 9.390625 -18 C 9.109375 -16.945312 8.757812 -15.984375 8.34375 -15.109375 C 7.925781 -14.234375 7.4375 -13.523438 6.875 -12.984375 C 6.3125 -12.441406 5.675781 -12.148438 4.96875 -12.109375 C 4.15625 -12.054688 3.445312 -12.1875 2.84375 -12.5 C 2.238281 -12.820312 1.71875 -13.269531 1.28125 -13.84375 C 0.851562 -14.414062 0.492188 -15.070312 0.203125 -15.8125 C -0.078125 -16.5625 -0.296875 -17.332031 -0.453125 -18.125 C -0.617188 -18.914062 -0.742188 -19.6875 -0.828125 -20.4375 C -0.910156 -21.1875 -0.960938 -21.867188 -0.984375 -22.484375 C -1.003906 -23.097656 -1.007812 -23.578125 -1 -23.921875 C -1 -24.078125 -0.984375 -24.222656 -0.953125 -24.359375 C -0.929688 -24.503906 -0.898438 -24.628906 -0.859375 -24.734375 C -1.097656 -25.628906 -1.160156 -26.5625 -1.046875 -27.53125 C -0.929688 -28.507812 -0.671875 -29.460938 -0.265625 -30.390625 C 0.128906 -31.316406 0.648438 -32.144531 1.296875 -32.875 C 1.921875 -33.570312 2.585938 -34.035156 3.296875 -34.265625 C 4.015625 -34.503906 4.71875 -34.539062 5.40625 -34.375 C 6.101562 -34.21875 6.71875 -33.90625 7.25 -33.4375 C 8.519531 -32.320312 9.394531 -30.921875 9.875 -29.234375 C 10.363281 -27.546875 10.5 -25.5 10.28125 -23.09375 C 10.28125 -23.007812 10.273438 -22.925781 10.265625 -22.84375 C 10.253906 -22.757812 10.242188 -22.671875 10.234375 -22.578125 C 10.910156 -22.796875 11.546875 -23.082031 12.140625 -23.4375 C 12.734375 -23.789062 13.210938 -24.226562 13.578125 -24.75 C 13.941406 -25.269531 14.117188 -25.875 14.109375 -26.5625 Z M 2.03125 -29.890625 C 1.957031 -29.609375 1.863281 -29.21875 1.75 -28.71875 C 1.632812 -28.226562 1.550781 -27.691406 1.5 -27.109375 C 1.445312 -26.523438 1.457031 -25.953125 1.53125 -25.390625 C 1.738281 -25.265625 1.898438 -25.113281 2.015625 -24.9375 C 2.140625 -24.757812 2.210938 -24.5625 2.234375 -24.34375 C 2.234375 -24.257812 2.234375 -24.148438 2.234375 -24.015625 C 2.234375 -23.890625 2.234375 -23.738281 2.234375 -23.5625 C 2.253906 -23.539062 2.269531 -23.519531 2.28125 -23.5 C 2.300781 -23.488281 2.316406 -23.46875 2.328125 -23.4375 C 2.753906 -22.96875 3.410156 -22.609375 4.296875 -22.359375 C 5.179688 -22.117188 6.160156 -22.015625 7.234375 -22.046875 C 7.304688 -22.773438 7.34375 -23.390625 7.34375 -23.890625 C 7.375 -24.710938 7.378906 -25.578125 7.359375 -26.484375 C 7.347656 -27.398438 7.273438 -28.300781 7.140625 -29.1875 C 7.003906 -30.070312 6.75 -30.882812 6.375 -31.625 C 5.988281 -32.394531 5.59375 -32.878906 5.1875 -33.078125 C 4.78125 -33.273438 4.378906 -33.253906 3.984375 -33.015625 C 3.597656 -32.785156 3.234375 -32.390625 2.890625 -31.828125 C 2.554688 -31.273438 2.269531 -30.628906 2.03125 -29.890625 Z M 4.828125 -14.3125 C 5.128906 -14.34375 5.394531 -14.535156 5.625 -14.890625 C 5.863281 -15.253906 6.070312 -15.726562 6.25 -16.3125 C 6.4375 -16.90625 6.59375 -17.554688 6.71875 -18.265625 C 6.851562 -18.984375 6.960938 -19.691406 7.046875 -20.390625 C 6.203125 -20.265625 5.378906 -20.234375 4.578125 -20.296875 C 3.773438 -20.359375 3.050781 -20.535156 2.40625 -20.828125 C 2.46875 -20.078125 2.554688 -19.316406 2.671875 -18.546875 C 2.796875 -17.785156 2.953125 -17.078125 3.140625 -16.421875 C 3.328125 -15.773438 3.554688 -15.253906 3.828125 -14.859375 C 4.097656 -14.472656 4.429688 -14.289062 4.828125 -14.3125 Z M 4.828125 -14.3125 "/></g></g></g><g fill="#ffffff" fill-opacity="1"><g transform="translate(363.944894, 63.49996)"><g><path d="M 10.390625 -23.75 C 10.328125 -23.632812 10.164062 -23.550781 9.90625 -23.5 C 9.65625 -23.445312 9.378906 -23.429688 9.078125 -23.453125 C 8.785156 -23.472656 8.539062 -23.53125 8.34375 -23.625 C 8.144531 -23.71875 8.070312 -23.851562 8.125 -24.03125 C 8.28125 -24.582031 8.429688 -25.207031 8.578125 -25.90625 C 8.722656 -26.601562 8.8125 -27.316406 8.84375 -28.046875 C 8.882812 -28.785156 8.84375 -29.5 8.71875 -30.1875 C 8.59375 -30.882812 8.347656 -31.519531 7.984375 -32.09375 C 7.617188 -32.664062 7.09375 -33.128906 6.40625 -33.484375 C 6 -33.691406 5.675781 -33.773438 5.4375 -33.734375 C 5.195312 -33.703125 4.910156 -33.550781 4.578125 -33.28125 C 4.128906 -32.914062 3.742188 -32.460938 3.421875 -31.921875 C 3.097656 -31.378906 2.835938 -30.835938 2.640625 -30.296875 C 2.191406 -29.015625 2.101562 -27.726562 2.375 -26.4375 C 2.65625 -25.144531 3.234375 -23.988281 4.109375 -22.96875 C 4.503906 -22.5 4.945312 -22.082031 5.4375 -21.71875 C 5.925781 -21.363281 6.425781 -21.023438 6.9375 -20.703125 C 7.457031 -20.390625 7.960938 -20.0625 8.453125 -19.71875 C 8.941406 -19.382812 9.394531 -19 9.8125 -18.5625 C 10.34375 -18 10.695312 -17.390625 10.875 -16.734375 C 11.0625 -16.078125 11.046875 -15.4375 10.828125 -14.8125 C 10.617188 -14.195312 10.1875 -13.660156 9.53125 -13.203125 C 8.9375 -12.785156 8.273438 -12.484375 7.546875 -12.296875 C 6.816406 -12.109375 6.09375 -11.992188 5.375 -11.953125 C 4.21875 -11.898438 3.164062 -12.050781 2.21875 -12.40625 C 1.269531 -12.769531 0.5 -13.34375 -0.09375 -14.125 C -0.6875 -14.90625 -1.046875 -15.894531 -1.171875 -17.09375 C -1.203125 -17.351562 -1.097656 -17.5625 -0.859375 -17.71875 C -0.628906 -17.882812 -0.332031 -18 0.03125 -18.0625 C 0.40625 -18.132812 0.773438 -18.148438 1.140625 -18.109375 C 1.515625 -18.066406 1.832031 -17.96875 2.09375 -17.8125 C 2.363281 -17.65625 2.515625 -17.441406 2.546875 -17.171875 C 2.597656 -16.710938 2.703125 -16.234375 2.859375 -15.734375 C 3.015625 -15.242188 3.25 -14.820312 3.5625 -14.46875 C 3.882812 -14.125 4.316406 -13.925781 4.859375 -13.875 C 5.203125 -13.84375 5.546875 -13.890625 5.890625 -14.015625 C 6.242188 -14.140625 6.546875 -14.320312 6.796875 -14.5625 C 7.054688 -14.8125 7.222656 -15.125 7.296875 -15.5 C 7.367188 -15.875 7.300781 -16.296875 7.09375 -16.765625 C 6.925781 -17.160156 6.679688 -17.5 6.359375 -17.78125 C 6.035156 -18.070312 5.6875 -18.332031 5.3125 -18.5625 C 4.9375 -18.789062 4.570312 -19.015625 4.21875 -19.234375 C 3.726562 -19.546875 3.242188 -19.878906 2.765625 -20.234375 C 2.285156 -20.597656 1.835938 -20.984375 1.421875 -21.390625 C 0.609375 -22.191406 -0.0664062 -23.097656 -0.609375 -24.109375 C -1.148438 -25.128906 -1.445312 -26.226562 -1.5 -27.40625 C -1.539062 -28.34375 -1.425781 -29.265625 -1.15625 -30.171875 C -0.882812 -31.078125 -0.484375 -31.910156 0.046875 -32.671875 C 0.585938 -33.441406 1.222656 -34.085938 1.953125 -34.609375 C 2.691406 -35.128906 3.507812 -35.476562 4.40625 -35.65625 C 5.3125 -35.832031 6.257812 -35.789062 7.25 -35.53125 C 8.34375 -35.238281 9.226562 -34.773438 9.90625 -34.140625 C 10.59375 -33.515625 11.097656 -32.78125 11.421875 -31.9375 C 11.753906 -31.09375 11.921875 -30.191406 11.921875 -29.234375 C 11.929688 -28.285156 11.800781 -27.335938 11.53125 -26.390625 C 11.269531 -25.453125 10.890625 -24.570312 10.390625 -23.75 Z M 10.390625 -23.75 "/></g></g></g><g fill="#ffffff" fill-opacity="1"><g transform="translate(377.654491, 63.49996)"><g><path d="M 4.421875 -43.609375 C 4.140625 -42.234375 3.890625 -40.84375 3.671875 -39.4375 C 3.453125 -38.039062 3.257812 -36.640625 3.09375 -35.234375 C 2.988281 -34.640625 2.898438 -33.640625 2.828125 -32.234375 C 2.753906 -30.835938 2.691406 -29.03125 2.640625 -26.8125 C 2.609375 -25.394531 2.664062 -23.988281 2.8125 -22.59375 C 2.96875 -21.207031 3.207031 -19.816406 3.53125 -18.421875 C 3.6875 -17.796875 3.878906 -17.1875 4.109375 -16.59375 C 4.347656 -16 4.632812 -15.421875 4.96875 -14.859375 C 5.15625 -14.523438 5.351562 -14.273438 5.5625 -14.109375 C 5.800781 -13.921875 6.109375 -13.832031 6.484375 -13.84375 C 7.109375 -13.9375 7.707031 -14.601562 8.28125 -15.84375 C 8.832031 -17.082031 9.320312 -18.507812 9.75 -20.125 C 9.96875 -20.925781 10.164062 -21.6875 10.34375 -22.40625 C 10.519531 -23.125 10.671875 -23.796875 10.796875 -24.421875 C 10.898438 -24.890625 10.992188 -25.28125 11.078125 -25.59375 C 11.171875 -25.90625 11.242188 -26.144531 11.296875 -26.3125 C 11.398438 -26.625 11.535156 -26.785156 11.703125 -26.796875 C 11.867188 -26.804688 12.007812 -26.742188 12.125 -26.609375 C 12.25 -26.429688 12.273438 -26.207031 12.203125 -25.9375 C 12.128906 -25.570312 12.050781 -25.207031 11.96875 -24.84375 C 11.894531 -24.488281 11.816406 -24.128906 11.734375 -23.765625 C 11.523438 -22.765625 11.3125 -21.789062 11.09375 -20.84375 C 10.875 -19.90625 10.644531 -18.992188 10.40625 -18.109375 C 9.9375 -16.335938 9.382812 -14.878906 8.75 -13.734375 C 8.101562 -12.578125 7.328125 -11.921875 6.421875 -11.765625 C 4.703125 -11.566406 3.347656 -12 2.359375 -13.0625 C 1.359375 -14.144531 0.617188 -15.539062 0.140625 -17.25 C -0.347656 -18.9375 -0.660156 -20.660156 -0.796875 -22.421875 C -0.953125 -24.171875 -1.03125 -25.609375 -1.03125 -26.734375 C -1.113281 -30.210938 -0.921875 -33.753906 -0.453125 -37.359375 C -0.304688 -38.484375 -0.128906 -39.585938 0.078125 -40.671875 C 0.285156 -41.765625 0.523438 -42.84375 0.796875 -43.90625 C 0.765625 -43.914062 0.722656 -43.921875 0.671875 -43.921875 C 0.628906 -43.921875 0.585938 -43.921875 0.546875 -43.921875 C -0.867188 -43.972656 -1.929688 -43.859375 -2.640625 -43.578125 C -2.679688 -43.566406 -2.710938 -43.628906 -2.734375 -43.765625 C -2.742188 -43.890625 -2.734375 -44.0625 -2.703125 -44.28125 C -2.679688 -44.445312 -2.613281 -44.609375 -2.5 -44.765625 C -2.164062 -45.085938 -1.488281 -45.25 -0.46875 -45.25 C -0.21875 -45.238281 0.0390625 -45.226562 0.3125 -45.21875 C 0.582031 -45.21875 0.863281 -45.210938 1.15625 -45.203125 C 1.28125 -45.617188 1.40625 -46.035156 1.53125 -46.453125 C 1.664062 -46.878906 1.804688 -47.300781 1.953125 -47.71875 C 2.828125 -50.113281 3.597656 -51.789062 4.265625 -52.75 C 4.953125 -53.738281 5.566406 -54.347656 6.109375 -54.578125 C 6.296875 -54.640625 6.484375 -54.675781 6.671875 -54.6875 C 6.867188 -54.695312 7.0625 -54.691406 7.25 -54.671875 C 7.625 -54.585938 7.9375 -54.429688 8.1875 -54.203125 C 8.25 -54.109375 8.28125 -54.023438 8.28125 -53.953125 C 8.257812 -53.828125 8.210938 -53.738281 8.140625 -53.6875 C 7.617188 -53.25 7.109375 -52.390625 6.609375 -51.109375 C 6.097656 -49.847656 5.644531 -48.503906 5.25 -47.078125 C 5.144531 -46.671875 5.046875 -46.285156 4.953125 -45.921875 C 4.859375 -45.566406 4.769531 -45.234375 4.6875 -44.921875 C 5.1875 -44.898438 5.671875 -44.878906 6.140625 -44.859375 C 6.617188 -44.835938 7.09375 -44.832031 7.5625 -44.84375 C 9.039062 -44.84375 10.191406 -45.117188 11.015625 -45.671875 C 11.015625 -45.648438 11.019531 -45.640625 11.03125 -45.640625 C 11.03125 -45.640625 11.03125 -45.632812 11.03125 -45.625 C 11.03125 -45.625 11.039062 -45.625 11.0625 -45.625 C 11.0625 -45.601562 11.070312 -45.578125 11.09375 -45.546875 C 11.125 -45.492188 11.148438 -45.441406 11.171875 -45.390625 C 11.203125 -45.335938 11.226562 -45.28125 11.25 -45.21875 C 11.289062 -45.0625 11.304688 -44.898438 11.296875 -44.734375 C 11.273438 -44.535156 11.210938 -44.335938 11.109375 -44.140625 C 11.023438 -43.941406 10.84375 -43.726562 10.5625 -43.5 C 10.21875 -43.28125 9.539062 -43.195312 8.53125 -43.25 C 8.007812 -43.269531 7.457031 -43.304688 6.875 -43.359375 C 6.289062 -43.410156 5.660156 -43.476562 4.984375 -43.5625 C 4.890625 -43.570312 4.796875 -43.578125 4.703125 -43.578125 C 4.617188 -43.585938 4.523438 -43.597656 4.421875 -43.609375 Z M 4.421875 -43.609375 "/></g></g></g><g fill="#ffffff" fill-opacity="1"><g transform="translate(388.84481, 63.49996)"><g><path d="M 9.265625 -25.09375 C 8.660156 -24.5 8.054688 -24.109375 7.453125 -23.921875 C 6.847656 -23.742188 6.210938 -23.875 5.546875 -24.3125 C 5.265625 -24.507812 5.0625 -24.765625 4.9375 -25.078125 C 4.8125 -25.390625 4.757812 -25.703125 4.78125 -26.015625 C 4.8125 -26.328125 4.898438 -26.582031 5.046875 -26.78125 C 5.097656 -26.820312 5.210938 -26.847656 5.390625 -26.859375 C 5.578125 -26.867188 5.765625 -26.859375 5.953125 -26.828125 C 6.148438 -26.804688 6.300781 -26.765625 6.40625 -26.703125 C 6.519531 -26.640625 6.535156 -26.535156 6.453125 -26.390625 C 6.347656 -26.234375 6.296875 -26.054688 6.296875 -25.859375 C 6.304688 -25.660156 6.375 -25.492188 6.5 -25.359375 C 6.625 -25.222656 6.800781 -25.15625 7.03125 -25.15625 C 7.269531 -25.164062 7.484375 -25.320312 7.671875 -25.625 C 7.859375 -25.925781 8.019531 -26.316406 8.15625 -26.796875 C 8.300781 -27.273438 8.414062 -27.785156 8.5 -28.328125 C 8.59375 -28.878906 8.640625 -29.40625 8.640625 -29.90625 C 8.640625 -30.414062 8.59375 -30.84375 8.5 -31.1875 C 8.414062 -31.53125 8.285156 -31.734375 8.109375 -31.796875 C 7.691406 -31.953125 7.257812 -31.882812 6.8125 -31.59375 C 6.363281 -31.300781 5.925781 -30.828125 5.5 -30.171875 C 5.070312 -29.523438 4.671875 -28.726562 4.296875 -27.78125 C 3.929688 -26.84375 3.613281 -25.796875 3.34375 -24.640625 C 3.070312 -23.484375 2.867188 -22.269531 2.734375 -21 C 2.503906 -19.695312 2.390625 -18.320312 2.390625 -16.875 C 2.398438 -15.425781 2.398438 -14.023438 2.390625 -12.671875 C 2.390625 -12.617188 2.390625 -12.5625 2.390625 -12.5 C 2.398438 -12.4375 2.40625 -12.378906 2.40625 -12.328125 L 2.390625 -12.328125 C 2.390625 -12.234375 2.382812 -12.140625 2.375 -12.046875 C 2.363281 -11.960938 2.359375 -11.875 2.359375 -11.78125 C 2.347656 -11.519531 2.222656 -11.320312 1.984375 -11.1875 C 1.753906 -11.0625 1.460938 -10.992188 1.109375 -10.984375 C 0.765625 -10.984375 0.414062 -11.035156 0.0625 -11.140625 C -0.289062 -11.242188 -0.585938 -11.390625 -0.828125 -11.578125 C -1.066406 -11.765625 -1.195312 -11.988281 -1.21875 -12.25 C -1.300781 -14.1875 -1.378906 -16.117188 -1.453125 -18.046875 C -1.535156 -19.972656 -1.585938 -21.898438 -1.609375 -23.828125 C -1.609375 -24.796875 -1.59375 -25.765625 -1.5625 -26.734375 C -1.539062 -27.703125 -1.503906 -28.660156 -1.453125 -29.609375 C -1.410156 -30.191406 -1.351562 -30.804688 -1.28125 -31.453125 C -1.21875 -32.097656 -1.117188 -32.707031 -0.984375 -33.28125 C -0.859375 -33.851562 -0.691406 -34.316406 -0.484375 -34.671875 C -0.378906 -34.847656 -0.195312 -34.992188 0.0625 -35.109375 C 0.320312 -35.222656 0.601562 -35.296875 0.90625 -35.328125 C 1.21875 -35.359375 1.507812 -35.34375 1.78125 -35.28125 C 2.0625 -35.226562 2.285156 -35.125 2.453125 -34.96875 C 2.617188 -34.820312 2.675781 -34.625 2.625 -34.375 C 2.425781 -33.375 2.3125 -32.460938 2.28125 -31.640625 C 2.25 -30.816406 2.207031 -29.957031 2.15625 -29.0625 C 2.132812 -28.550781 2.113281 -28.035156 2.09375 -27.515625 C 2.082031 -26.992188 2.066406 -26.472656 2.046875 -25.953125 C 2.117188 -26.148438 2.1875 -26.34375 2.25 -26.53125 C 2.320312 -26.71875 2.398438 -26.910156 2.484375 -27.109375 C 2.816406 -27.972656 3.175781 -28.847656 3.5625 -29.734375 C 3.957031 -30.617188 4.398438 -31.429688 4.890625 -32.171875 C 5.390625 -32.910156 5.945312 -33.5 6.5625 -33.9375 C 7.1875 -34.375 7.894531 -34.570312 8.6875 -34.53125 C 9.226562 -34.507812 9.664062 -34.3125 10 -33.9375 C 10.34375 -33.5625 10.59375 -33.082031 10.75 -32.5 C 10.914062 -31.914062 11 -31.273438 11 -30.578125 C 11.007812 -29.878906 10.945312 -29.175781 10.8125 -28.46875 C 10.675781 -27.769531 10.476562 -27.125 10.21875 -26.53125 C 9.957031 -25.9375 9.640625 -25.457031 9.265625 -25.09375 Z M 9.265625 -25.09375 "/></g></g></g><g fill="#ffffff" fill-opacity="1"><g transform="translate(401.773233, 63.49996)"><g><path d="M 7.9375 -24.203125 C 7.570312 -23.585938 7.140625 -23.019531 6.640625 -22.5 C 6.148438 -21.988281 5.59375 -21.585938 4.96875 -21.296875 C 4.351562 -21.015625 3.660156 -20.910156 2.890625 -20.984375 C 2.816406 -20.984375 2.738281 -20.988281 2.65625 -21 C 2.582031 -21.007812 2.503906 -21.019531 2.421875 -21.03125 C 2.472656 -20.320312 2.570312 -19.628906 2.71875 -18.953125 C 2.875 -18.273438 3.097656 -17.664062 3.390625 -17.125 C 3.691406 -16.582031 4.085938 -16.140625 4.578125 -15.796875 C 5.078125 -15.460938 5.6875 -15.28125 6.40625 -15.25 C 7.03125 -15.226562 7.617188 -15.375 8.171875 -15.6875 C 8.722656 -16 9.234375 -16.410156 9.703125 -16.921875 C 10.171875 -17.441406 10.597656 -17.988281 10.984375 -18.5625 C 11.378906 -19.132812 11.734375 -19.671875 12.046875 -20.171875 C 12.148438 -20.347656 12.296875 -20.628906 12.484375 -21.015625 C 12.679688 -21.410156 12.890625 -21.863281 13.109375 -22.375 C 13.328125 -22.882812 13.539062 -23.414062 13.75 -23.96875 C 13.96875 -24.53125 14.160156 -25.078125 14.328125 -25.609375 C 14.492188 -26.140625 14.613281 -26.609375 14.6875 -27.015625 C 14.738281 -27.285156 14.851562 -27.457031 15.03125 -27.53125 C 15.207031 -27.613281 15.367188 -27.609375 15.515625 -27.515625 C 15.671875 -27.429688 15.710938 -27.257812 15.640625 -27 C 15.484375 -26.300781 15.257812 -25.507812 14.96875 -24.625 C 14.675781 -23.738281 14.34375 -22.832031 13.96875 -21.90625 C 13.59375 -20.976562 13.195312 -20.078125 12.78125 -19.203125 C 12.257812 -18.097656 11.648438 -17.09375 10.953125 -16.1875 C 10.253906 -15.28125 9.488281 -14.550781 8.65625 -14 C 7.832031 -13.457031 6.953125 -13.15625 6.015625 -13.09375 C 5.140625 -13.019531 4.296875 -13.097656 3.484375 -13.328125 C 2.671875 -13.566406 1.945312 -13.953125 1.3125 -14.484375 C 0.675781 -15.023438 0.160156 -15.707031 -0.234375 -16.53125 C -0.597656 -17.332031 -0.859375 -18.1875 -1.015625 -19.09375 C -1.171875 -20.007812 -1.25 -20.9375 -1.25 -21.875 C -1.257812 -22.820312 -1.238281 -23.726562 -1.1875 -24.59375 C -1.15625 -25.289062 -1.0625 -26.0625 -0.90625 -26.90625 C -0.757812 -27.75 -0.546875 -28.601562 -0.265625 -29.46875 C 0.00390625 -30.34375 0.34375 -31.179688 0.75 -31.984375 C 1.164062 -32.796875 1.648438 -33.519531 2.203125 -34.15625 C 2.765625 -34.800781 3.40625 -35.3125 4.125 -35.6875 C 4.84375 -36.0625 5.644531 -36.25 6.53125 -36.25 C 7.382812 -36.25 8.070312 -36.082031 8.59375 -35.75 C 9.113281 -35.414062 9.492188 -34.957031 9.734375 -34.375 C 9.972656 -33.800781 10.109375 -33.148438 10.140625 -32.421875 C 10.179688 -31.703125 10.132812 -30.945312 10 -30.15625 C 9.875 -29.375 9.691406 -28.601562 9.453125 -27.84375 C 9.222656 -27.09375 8.972656 -26.398438 8.703125 -25.765625 C 8.429688 -25.140625 8.175781 -24.617188 7.9375 -24.203125 Z M 2.390625 -22.5 C 2.421875 -22.476562 2.457031 -22.453125 2.5 -22.421875 C 2.539062 -22.398438 2.585938 -22.375 2.640625 -22.34375 C 3.023438 -22.144531 3.382812 -22.101562 3.71875 -22.21875 C 4.0625 -22.332031 4.375 -22.53125 4.65625 -22.8125 C 4.945312 -23.101562 5.203125 -23.421875 5.421875 -23.765625 C 5.648438 -24.109375 5.84375 -24.410156 6 -24.671875 C 6.570312 -25.703125 7.03125 -26.789062 7.375 -27.9375 C 7.71875 -29.082031 7.894531 -30.238281 7.90625 -31.40625 C 7.925781 -31.707031 7.914062 -32.078125 7.875 -32.515625 C 7.84375 -32.960938 7.757812 -33.390625 7.625 -33.796875 C 7.5 -34.210938 7.28125 -34.503906 6.96875 -34.671875 C 6.6875 -34.835938 6.328125 -34.757812 5.890625 -34.4375 C 5.453125 -34.125 5.007812 -33.597656 4.5625 -32.859375 C 4.113281 -32.128906 3.710938 -31.210938 3.359375 -30.109375 C 3.003906 -29.003906 2.757812 -27.757812 2.625 -26.375 C 2.582031 -25.957031 2.53125 -25.40625 2.46875 -24.71875 C 2.414062 -24.03125 2.390625 -23.289062 2.390625 -22.5 Z M 2.390625 -22.5 "/></g></g></g><g fill="#ffffff" fill-opacity="1"><g transform="translate(416.615533, 63.49996)"><g><path d="M 10.390625 -23.75 C 10.328125 -23.632812 10.164062 -23.550781 9.90625 -23.5 C 9.65625 -23.445312 9.378906 -23.429688 9.078125 -23.453125 C 8.785156 -23.472656 8.539062 -23.53125 8.34375 -23.625 C 8.144531 -23.71875 8.070312 -23.851562 8.125 -24.03125 C 8.28125 -24.582031 8.429688 -25.207031 8.578125 -25.90625 C 8.722656 -26.601562 8.8125 -27.316406 8.84375 -28.046875 C 8.882812 -28.785156 8.84375 -29.5 8.71875 -30.1875 C 8.59375 -30.882812 8.347656 -31.519531 7.984375 -32.09375 C 7.617188 -32.664062 7.09375 -33.128906 6.40625 -33.484375 C 6 -33.691406 5.675781 -33.773438 5.4375 -33.734375 C 5.195312 -33.703125 4.910156 -33.550781 4.578125 -33.28125 C 4.128906 -32.914062 3.742188 -32.460938 3.421875 -31.921875 C 3.097656 -31.378906 2.835938 -30.835938 2.640625 -30.296875 C 2.191406 -29.015625 2.101562 -27.726562 2.375 -26.4375 C 2.65625 -25.144531 3.234375 -23.988281 4.109375 -22.96875 C 4.503906 -22.5 4.945312 -22.082031 5.4375 -21.71875 C 5.925781 -21.363281 6.425781 -21.023438 6.9375 -20.703125 C 7.457031 -20.390625 7.960938 -20.0625 8.453125 -19.71875 C 8.941406 -19.382812 9.394531 -19 9.8125 -18.5625 C 10.34375 -18 10.695312 -17.390625 10.875 -16.734375 C 11.0625 -16.078125 11.046875 -15.4375 10.828125 -14.8125 C 10.617188 -14.195312 10.1875 -13.660156 9.53125 -13.203125 C 8.9375 -12.785156 8.273438 -12.484375 7.546875 -12.296875 C 6.816406 -12.109375 6.09375 -11.992188 5.375 -11.953125 C 4.21875 -11.898438 3.164062 -12.050781 2.21875 -12.40625 C 1.269531 -12.769531 0.5 -13.34375 -0.09375 -14.125 C -0.6875 -14.90625 -1.046875 -15.894531 -1.171875 -17.09375 C -1.203125 -17.351562 -1.097656 -17.5625 -0.859375 -17.71875 C -0.628906 -17.882812 -0.332031 -18 0.03125 -18.0625 C 0.40625 -18.132812 0.773438 -18.148438 1.140625 -18.109375 C 1.515625 -18.066406 1.832031 -17.96875 2.09375 -17.8125 C 2.363281 -17.65625 2.515625 -17.441406 2.546875 -17.171875 C 2.597656 -16.710938 2.703125 -16.234375 2.859375 -15.734375 C 3.015625 -15.242188 3.25 -14.820312 3.5625 -14.46875 C 3.882812 -14.125 4.316406 -13.925781 4.859375 -13.875 C 5.203125 -13.84375 5.546875 -13.890625 5.890625 -14.015625 C 6.242188 -14.140625 6.546875 -14.320312 6.796875 -14.5625 C 7.054688 -14.8125 7.222656 -15.125 7.296875 -15.5 C 7.367188 -15.875 7.300781 -16.296875 7.09375 -16.765625 C 6.925781 -17.160156 6.679688 -17.5 6.359375 -17.78125 C 6.035156 -18.070312 5.6875 -18.332031 5.3125 -18.5625 C 4.9375 -18.789062 4.570312 -19.015625 4.21875 -19.234375 C 3.726562 -19.546875 3.242188 -19.878906 2.765625 -20.234375 C 2.285156 -20.597656 1.835938 -20.984375 1.421875 -21.390625 C 0.609375 -22.191406 -0.0664062 -23.097656 -0.609375 -24.109375 C -1.148438 -25.128906 -1.445312 -26.226562 -1.5 -27.40625 C -1.539062 -28.34375 -1.425781 -29.265625 -1.15625 -30.171875 C -0.882812 -31.078125 -0.484375 -31.910156 0.046875 -32.671875 C 0.585938 -33.441406 1.222656 -34.085938 1.953125 -34.609375 C 2.691406 -35.128906 3.507812 -35.476562 4.40625 -35.65625 C 5.3125 -35.832031 6.257812 -35.789062 7.25 -35.53125 C 8.34375 -35.238281 9.226562 -34.773438 9.90625 -34.140625 C 10.59375 -33.515625 11.097656 -32.78125 11.421875 -31.9375 C 11.753906 -31.09375 11.921875 -30.191406 11.921875 -29.234375 C 11.929688 -28.285156 11.800781 -27.335938 11.53125 -26.390625 C 11.269531 -25.453125 10.890625 -24.570312 10.390625 -23.75 Z M 10.390625 -23.75 "/></g></g></g></svg>