<svg xmlns="http://www.w3.org/2000/svg" xmlns:xlink="http://www.w3.org/1999/xlink" width="500" zoomAndPan="magnify" viewBox="0 0 375 374.999991" height="500" preserveAspectRatio="xMidYMid meet" version="1.0"><defs><clipPath id="7ba3bdda94"><path d="M 152.078125 112.5 L 222.578125 112.5 L 222.578125 262.5 L 152.078125 262.5 Z M 152.078125 112.5 " clip-rule="nonzero"/></clipPath><clipPath id="f189f5615e"><path d="M 187.5 0 C 83.945312 0 0 83.945312 0 187.5 C 0 291.054688 83.945312 375 187.5 375 C 291.054688 375 375 291.054688 375 187.5 C 375 83.945312 291.054688 0 187.5 0 Z M 187.5 0 " clip-rule="nonzero"/></clipPath><clipPath id="b041041ee3"><path d="M 18.75 18.75 L 356.25 18.75 L 356.25 356.25 L 18.75 356.25 Z M 18.75 18.75 " clip-rule="nonzero"/></clipPath><clipPath id="e79252cc0e"><path d="M 187.5 18.75 C 94.300781 18.75 18.75 94.300781 18.75 187.5 C 18.75 280.699219 94.300781 356.25 187.5 356.25 C 280.699219 356.25 356.25 280.699219 356.25 187.5 C 356.25 94.300781 280.699219 18.75 187.5 18.75 Z M 187.5 18.75 " clip-rule="nonzero"/></clipPath><clipPath id="2a0194db5a"><path d="M 161 109 L 299 109 L 299 308.691406 L 161 308.691406 Z M 161 109 " clip-rule="nonzero"/></clipPath><clipPath id="21c67aafbb"><path d="M 76.277344 66.441406 L 214 66.441406 L 214 266 L 76.277344 266 Z M 76.277344 66.441406 " clip-rule="nonzero"/></clipPath></defs><g clip-path="url(#7ba3bdda94)"><path fill="#ffffff" d="M 206.316406 137.402344 L 222.578125 137.402344 L 222.578125 112.761719 L 201.8125 112.761719 L 201.8125 112.855469 C 174.507812 113.863281 168.875 129.230469 168.40625 145.480469 L 168.34375 145.480469 L 168.34375 162.578125 L 152.078125 162.578125 L 152.078125 187.25 L 168.34375 187.25 L 168.34375 262.238281 L 197.527344 262.238281 L 197.527344 187.25 L 218.449219 187.25 L 222.578125 162.578125 L 197.527344 162.578125 L 197.527344 147.273438 C 197.527344 141.835938 201.15625 137.402344 206.316406 137.402344 Z M 206.316406 137.402344 " fill-opacity="1" fill-rule="nonzero"/></g><g clip-path="url(#f189f5615e)"><rect x="-37.5" width="450" fill="#bb8f2f" y="-37.499999" height="449.999989" fill-opacity="1"/></g><g clip-path="url(#b041041ee3)"><g clip-path="url(#e79252cc0e)"><path fill="#000000" d="M 18.75 18.75 L 356.25 18.75 L 356.25 356.25 L 18.75 356.25 Z M 18.75 18.75 " fill-opacity="1" fill-rule="nonzero"/></g></g><g clip-path="url(#2a0194db5a)"><path fill="#bb8f2f" d="M 298.589844 307.605469 C 292.195312 297.414062 285.792969 287.21875 279.386719 277.027344 L 269.769531 261.773438 L 260.117188 246.511719 L 240.78125 216.019531 L 222.640625 187.453125 L 245.996094 153.15625 L 252.144531 144.140625 C 254.203125 141.136719 256.242188 138.128906 258.316406 135.136719 L 270.738281 117.1875 L 275.761719 109.933594 L 209.515625 109.488281 L 208.121094 111.980469 C 206.078125 115.636719 204.082031 119.3125 202.070312 122.980469 L 200.5625 125.738281 L 199.078125 128.507812 L 196.089844 134.027344 L 190.183594 145.113281 L 187.175781 150.832031 C 186.027344 149.089844 184.878906 147.347656 183.730469 145.609375 L 180.207031 140.34375 L 176.652344 135.09375 L 173.09375 129.855469 L 169.488281 124.640625 C 167.074219 121.164062 164.621094 117.710938 162.136719 114.285156 C 162.0625 114.160156 161.957031 114.082031 161.820312 114.046875 C 161.683594 114.011719 161.554688 114.027344 161.429688 114.101562 C 161.308594 114.171875 161.230469 114.277344 161.191406 114.414062 C 161.15625 114.550781 161.175781 114.683594 161.246094 114.804688 C 163.050781 118.628906 164.90625 122.429688 166.8125 126.207031 L 169.660156 131.871094 L 172.550781 137.519531 L 175.464844 143.148438 L 178.402344 148.757812 C 180.382812 152.488281 182.355469 156.222656 184.359375 159.941406 L 187.253906 165.300781 L 190.699219 159.894531 C 192.949219 156.363281 195.148438 152.808594 197.371094 149.261719 L 203.976562 138.589844 L 207.253906 133.234375 L 208.890625 130.566406 L 210.511719 127.898438 C 212.152344 125.183594 213.796875 122.46875 215.425781 119.75 C 216.722656 119.75 256.328125 119.597656 257.902344 119.566406 L 251.09375 130.375 C 249.160156 133.457031 247.191406 136.511719 245.238281 139.582031 L 239.363281 148.777344 L 215.824219 185.539062 L 214.597656 187.453125 L 215.824219 189.230469 L 236.230469 219.019531 L 256.683594 248.777344 L 266.910156 263.648438 L 277.171875 278.503906 C 284.007812 288.417969 290.863281 298.3125 297.746094 308.183594 C 297.824219 308.296875 297.933594 308.367188 298.066406 308.394531 C 298.203125 308.421875 298.332031 308.398438 298.445312 308.320312 C 298.5625 308.242188 298.632812 308.136719 298.660156 308 C 298.691406 307.867188 298.667969 307.738281 298.589844 307.625 Z M 298.589844 307.605469 " fill-opacity="1" fill-rule="nonzero"/></g><g clip-path="url(#21c67aafbb)"><path fill="#bb8f2f" d="M 208.222656 248.566406 L 205.371094 242.898438 L 202.488281 237.257812 L 199.570312 231.628906 L 196.632812 226.015625 C 194.652344 222.28125 192.683594 218.546875 190.675781 214.835938 L 187.78125 209.46875 L 184.332031 214.878906 C 182.085938 218.410156 179.886719 221.96875 177.664062 225.515625 L 171.054688 236.183594 L 167.78125 241.542969 L 166.140625 244.210938 L 164.523438 246.878906 C 162.882812 249.597656 161.253906 252.3125 159.632812 255.027344 C 158.332031 255.027344 118.730469 255.183594 117.148438 255.214844 L 123.9375 244.40625 C 125.878906 241.324219 127.847656 238.265625 129.800781 235.199219 L 135.675781 226 L 159.214844 189.234375 L 160.4375 187.324219 L 159.214844 185.546875 L 138.808594 155.820312 L 118.355469 126.125 L 108.128906 111.285156 L 97.859375 96.460938 C 91.03125 86.574219 84.171875 76.703125 77.289062 66.851562 C 77.210938 66.738281 77.105469 66.667969 76.972656 66.640625 C 76.839844 66.613281 76.71875 66.636719 76.601562 66.707031 C 76.484375 66.78125 76.410156 66.886719 76.378906 67.023438 C 76.347656 67.160156 76.371094 67.289062 76.441406 67.40625 C 82.84375 77.585938 89.246094 87.757812 95.648438 97.921875 L 105.265625 113.167969 L 114.917969 128.390625 L 134.25 158.828125 L 152.394531 187.328125 L 129.050781 221.625 L 122.902344 230.640625 C 120.84375 233.636719 118.808594 236.652344 116.734375 239.644531 L 104.308594 257.59375 L 99.289062 264.847656 L 165.535156 265.292969 L 166.9375 262.777344 C 168.976562 259.121094 170.976562 255.445312 172.988281 251.777344 L 174.496094 249.019531 L 175.988281 246.257812 L 178.976562 240.738281 L 184.851562 229.667969 L 187.859375 223.953125 L 191.304688 229.164062 L 194.828125 234.433594 L 198.382812 239.6875 L 201.941406 244.925781 L 205.546875 250.140625 C 207.957031 253.613281 210.410156 257.066406 212.898438 260.492188 C 212.976562 260.597656 213.078125 260.660156 213.207031 260.6875 C 213.335938 260.714844 213.453125 260.691406 213.566406 260.625 C 213.679688 260.558594 213.753906 260.464844 213.792969 260.339844 C 213.832031 260.214844 213.820312 260.09375 213.765625 259.976562 C 211.976562 256.160156 210.128906 252.359375 208.222656 248.566406 Z M 208.222656 248.566406 " fill-opacity="1" fill-rule="nonzero"/></g></svg>